<?xml version="1.0" encoding="UTF-8"?>
<svg id="Layer_1" data-name="Layer 1" xmlns="http://www.w3.org/2000/svg" version="1.1" viewBox="0 0 300 189">
  <defs>
    <style>
      .cls-1 {
        fill: #f6cb6d;
      }

      .cls-1, .cls-2, .cls-3, .cls-4, .cls-5, .cls-6, .cls-7, .cls-8, .cls-9, .cls-10, .cls-11, .cls-12, .cls-13, .cls-14, .cls-15, .cls-16, .cls-17, .cls-18 {
        stroke-width: 0px;
      }

      .cls-2 {
        fill: #626681;
      }

      .cls-3 {
        fill: #0f5a85;
      }

      .cls-4 {
        fill: #e13e2d;
      }

      .cls-5 {
        fill: #fafbfc;
      }

      .cls-6 {
        fill: #63aef9;
      }

      .cls-7 {
        fill: #529efa;
      }

      .cls-8 {
        fill: #dfa858;
      }

      .cls-9 {
        fill: #165f8a;
      }

      .cls-10 {
        fill: #1f6690;
      }

      .cls-11 {
        fill: #4d5471;
      }

      .cls-12 {
        fill: #f9fafb;
      }

      .cls-13 {
        fill: #0f5882;
      }

      .cls-14 {
        fill: #f5cb6d;
      }

      .cls-15 {
        fill: #f3bb5f;
      }

      .cls-16 {
        fill: #fefefe;
      }

      .cls-17 {
        fill: #81c7fa;
      }

      .cls-18 {
        fill: #fb4a32;
      }
    </style>
  </defs>
  <path class="cls-3" d="M19,188.9h-1c-4.5-1.2-9.4-1.1-13-5-3.9-4.2-3.9-9.2-3.9-14.3V19.3c-.5-6.4,1.5-11.7,6.7-15.6C11.7.8,16.4,1.5,20.7.6c1.4-.3,3,0,4.5,0h250.8c3.3,0,6.6.2,9.9.5,8.4.8,12.1,4.2,13.4,12.5.2,1.1-.2,2.3.6,3.4v4c-1.4,1.5-1,3.4-1,5.2v137.6c0,1.8-.4,3.7,1,5.2v4c0,.1-.3.3-.3.4-1.7,12.3-2,12.6-14,15-1.6-.8-3.6.8-5.1-.7-.2-.5-.3-1.1-.1-1.6.8-1.7,2-2.8,3.7-3.5,7-2.8,9.3-8.5,9.4-15.5.2-14.6,0-29.2,0-43.7V27.5c0-2.3,0-4.6-.1-7-.8-8.5-5.4-12.8-13.9-13.2H19.5c-7.6.5-10.8,3.4-12.3,11.1-2.3,9.8-1.7,19.7-1.7,29.6v101.3c0,6.6,0,13.2,1.5,19.7,0,2.6.5,5.2,1.8,7.5.6,2.1,1.7,3.9,4,4.4,1.8.9,3.7,1.7,5.6,2.4,1.3.7,2.5,1.5,2.8,3.1,0,1.5-1.6,1.7-2.4,2.4h.2Z"/>
  <path class="cls-13" d="M19,188.9c.7-.7,1.3-1.3,2-2,1.5-1.8,3.6-1.5,5.6-1.5h248.8c2,0,4-.3,5.6,1.5v1c.7.3.7.7,0,1H19Z"/>
  <path class="cls-13" d="M299.9,169.1c-3.7-.1-1.9-3-1.9-4.4-.1-25.6,0-51.2,0-76.8V25.5c0-1.4-1.8-4.3,1.9-4.4v148.1h0Z"/>
  <path class="cls-12" d="M284.9,187.9c8.4-1.5,12.9-7,14.9-14.9,0,4.6-.1,9.3,0,13.9,0,1.7-.3,2.1-2,2-4.6-.2-9.3,0-13.9,0-.3-.9,0-1.4,1-1Z"/>
  <path class="cls-9" d="M284.9,187.9c-.3.3-.7.7-1,1h-3v-1c1.3,0,2.7-1.2,4,0Z"/>
  <path class="cls-16" d="M7.2,177.6c-1.6-1.9-2.1-4.2-2.3-6.6-.5-1.3-.3-2.6-.3-3.9V21.9c0-1.3-.2-2.7.4-3.9,1.6-9.3,5.5-11.8,12.8-12.8,3.1-.4,6.3-.5,9.4-.5h247.3c16.6,0,21.4,4.7,21.4,21.2v141c0,8.9-3,15.4-12,18.2-4,1.4-8.1,1.4-12.2,1.4H30.8c-4.3,0-8.6,0-12.7-1.3-1.9-.9-4.1-.8-5.7-2.3-2.4-1.1-4.2-2.7-5.1-5.2h0Z"/>
  <path class="cls-9" d="M18,185.1c4.5.1,8.9.3,13.4.3h236.1c5.5,0,10.9-.3,16.4-.4-1,.6-2,1.2-3,1.8H20.9c-1-.6-2-1.2-3-1.8h.1Z"/>
  <path class="cls-10" d="M5,18v153.1c-1.2-1.8-.9-3.8-.9-5.8V24.3c0-2.1-.4-4.3.9-6.3Z"/>
  <path class="cls-10" d="M2,171.4c-1-1.7-.7-3.5-.7-5.3V24.1c0-1.8-.3-3.7.7-5.3,0,36.3,0,72.7,0,109s-.1,29.1-.2,43.6h.1Z"/>
  <path class="cls-9" d="M7.2,177.6c1.7,1.7,3.4,3.5,5.1,5.2-3.1-.4-4.8-2.1-5.1-5.2Z"/>
  <path class="cls-5" d="M218.8,81.5c.4,4.9.8,9.7,1.4,14.6.2,2-.5,2.7-2.4,2.6h-8.9c3.2-6.2,6.1-11.8,9.1-17.4.3,0,.6.2.9.3h-.1Z"/>
  <g id="M4ohwE">
    <g>
      <path class="cls-7" d="M263.9,93.6c0,21.6.1,43.1,0,64.7,0,9.2-5.2,15.7-13.5,17.9-1.7.5-3.5.4-5.3.4-52.1,0-104.2,0-156.3,0-1.6,0-3.2,0-4.8-.1-4.6,0-7.9-2.7-10.5-6-3.5-4.3-4.5-9.3-3.6-14.8,2.8-9.8,9.4-14.8,19.7-14.8,14.7,0,29.5,0,44.2,0,28.1.2,54.7-16.9,65.7-44,.5-1.3.8-2.8,2.4-3.4,1.2-.3,2.5-.3,3.8-.3,18.5,0,37,0,55.5,0,.9,0,1.9-.1,2.7.3Z"/>
      <path class="cls-15" d="M62.7,161.9c-1.4-4.3-2.9-8.7-3.5-13.2-.6-3.1-.8-6.1-.8-9.3,0-25.9,0-51.9,0-77.8,0-2.5.2-5,.9-7.5.5-1.6,1.1-3,2.4-4,6.9-2.5,14.1-4.1,21.2-6.1,4.7-1.3,9.2-3,14.1-3.6,2.8-.5,5.6-.8,8.5-.8,19.5,0,39.1,0,58.6,0,3.9,0,3.9,0,4-3.9.2-5.9,2.6-10.9,6.6-15.2,1.6-1.7,3.7-2.5,5.8-3.4,8.1-2.8,16.3-5.1,24.7-6.9,8.1-1.7,16.3,3.2,19,11.1,2.1,6.2,3.6,12.7,5.4,19.1-1.2,1.1-2.7.8-4.1.8-16.6,0-33.2,0-49.8,0-.7,0-1.3,0-2,0-3.2,0-3.4.2-2.7,3.3.3,1.3.8,2.6.1,3.9-1.3,1.1-2.9.8-4.4.8-25.4,0-50.9,0-76.3,0-3,0-5.9.4-8.7,1.4-6.1,2.2-10.5,8.4-10.7,14.9,0,1.9,0,3.9,0,5.8.1,7.3.1,14.6,0,22,0,4,.3,8.1-.2,12.1-.3,1.2-1.3,1.7-2.2,2.3-4.3,3.1-4.4,8.1-.2,11.3.9.7,2,1.2,2.3,2.5.3,7.7.4,15.3,0,23-.3,1-1,1.7-1.8,2.4-3.6,3.4-5.7,7.5-5.7,12.5,0,.9.1,1.9-.7,2.6Z"/>
      <path class="cls-6" d="M70.4,71.4c0-2.8-.3-5.6.2-8.3,1.7-8.7,8.8-14.4,18.1-14.4,26.4,0,52.9,0,79.3,0,1,0,2,0,3,0,1-.9,2.2-.8,3.3-.8,18.1,0,36.3,0,54.4,0,1.2,0,2.3.1,3.4.8,4.6,0,9.3,0,13.9,0,1,0,2-.2,2.9.4-.9,1-2.2.7-3.3.8-6.3,0-12.6.3-18.9,0-9.9-.5-18.5,7.5-20.2,16.6-.3,1.8.2,4-1.5,5.4-1.2.5-2.5.4-3.7.4-42.2,0-84.5,0-126.7,0-1.4,0-2.9.3-4.1-.7Z"/>
      <path class="cls-11" d="M263.9,93.6c-1,.6-2.1.4-3.2.4-19.8,0-39.5,0-59.3,0-.2-.3-.3-.5-.4-.9,0-.7.2-1.3.4-2,1.8-5.6,2.7-11.3,3.2-17.1.2-1.9.9-2.9,3-2.9,18.3,0,36.7,0,55,0,.2,0,.3,0,.5,0,.3,0,.6.3.8.5,0,7.3,0,14.6,0,21.8Z"/>
      <path class="cls-1" d="M61.8,50.1c-2.5,4.8-2.6,10-2.6,15.2,0,27.8,0,55.6,0,83.4-2.6-9.1-5.2-18.2-7.8-27.4-4.4-15.7-8.8-31.4-13-47.2-2.4-9.1,2.5-17.9,11.5-20.8,3.9-1.3,7.9-2.2,11.9-3.3Z"/>
      <path class="cls-7" d="M263.9,71.7h-.1s-.1,0-.1,0c-.9-.5-1.8-.2-2.7-.2-17.6,0-35.2,0-52.8,0-.9,0-1.9.3-2.7-.3,0-11.2,6.4-19.5,16.6-22,1-.2,2-.2,3-.2,8,0,16,0,23.9,0,7.1.7,13.7,7.2,14.6,14.2.4,2.8.5,5.7.3,8.5Z"/>
      <path class="cls-1" d="M180.6,17.2c-2.4,2-5.2,3.4-7.1,6-3.2,4.5-5,9.3-4.5,14.9.1,1.9-.5,2.5-2.4,2.5-23.2,0-46.3,0-69.5,0,9-2.9,18.2-5.2,27.4-7.8,18.2-5.1,36.4-10.1,54.7-15.2.5-.1,1-.2,1.5-.2Z"/>
      <path class="cls-8" d="M232.2,48.5c-20.4.3-40.8.2-61.2,0,0-2-.6-3.8-1.2-5.6-.6-2.1,0-2.5,1.9-2.5,13.7,0,27.3,0,41,0,5.6,0,11.3,0,16.9,0,1.2,2.5,1.5,5.4,2.5,8Z"/>
      <path class="cls-8" d="M62.7,161.9c-.3-5.3.9-10.1,4.5-14.2.9-1,2.1-1.6,3-2.6,1.6,2.2.9,4.8.7,7.2,0,1.1-.3,2.3-.5,3.4-1.3,10.7,4.5,18.2,13.7,20.7-8.4,2.3-16.7-2.1-20.2-10.2-.6-1.4-1.1-2.8-1.1-4.3Z"/>
      <path class="cls-6" d="M70.5,155.7c0-3.5-.1-7.1-.2-10.6,0-8.1,0-16.2,0-24.3-1.1-4.9-1.1-9.7,0-14.6,0-4.2.1-8.4.2-12.6,1.3-1.3,3-.9,4.6-.9,23.3,0,46.6,0,70,0,17.3,0,34.7,0,52,0,1.5,0,3.1-.3,4.3.9,0,.1,0,.3,0,.4-4,10.8-9.9,20.4-18.4,28.2-10.6,9.7-22.8,16-37.1,18.4-6,1-12,.9-18.1.9-12.3,0-24.6.2-36.9,0-9.6-.2-17.4,3.9-20.5,14.2Z"/>
      <path class="cls-15" d="M220.7,131.5c-3.1,3.1-6.1,6.2-9.2,9.3-.7.7-1.2,1-2.1.1-3.3-3.5-7-6.7-10.2-10.5-.5-2.3,0-3.2,2.3-3.7,1.6-.3,3.2-.5,4.6-1.3,2.9-1.7,4.2-4.4,4.6-7.6.4-2.9,2.1-4.1,4.8-3.6,1.8,1.6,3.5,3.2,5.3,4.8-.2,2.2-2.2,3-3.4,4.4-1.8,2.1-1.8,2,0,4.1,1.1,1.3,3,2,3.1,4.1Z"/>
      <path class="cls-17" d="M107.5,151.7c3.5,0,7.1,0,10.6,0,2.5,0,4.5,1.7,4.9,3.9.4,2.3-1.1,4.6-3.6,5.3-.8.2-1.6.4-2.5.4-6.4,0-12.8,0-19.2,0-3.7,0-5.7-2-5.6-5.3,0-2.7,1.6-4.2,4.3-4.3,3.7,0,7.4,0,11.1,0Z"/>
      <path class="cls-17" d="M147.7,151.7c3.4,0,6.7,0,10.1,0,3.1,0,4.9,1.5,5.1,4.3.2,2.8-1.6,5.2-4.6,5.2-7.2.2-14.5.1-21.7,0-2.7,0-4.8-2.7-4.5-5.4.2-2.4,2.3-4.2,5-4.2,3.5,0,7.1,0,10.6,0Z"/>
      <path class="cls-17" d="M187.5,161.3c-3.4,0-6.7.1-10.1,0-4-.2-6.3-3.5-4.9-6.9.8-1.8,2.2-2.7,4.2-2.7,7.3,0,14.6,0,21.9,0,2.2,0,3.7,1.1,4.2,3.3.6,2.5-.5,4.9-2.5,5.8-1,.4-2.1.6-3.2.6-3.2,0-6.4,0-9.6,0Z"/>
      <path class="cls-17" d="M227.8,151.7c3.5,0,7.1,0,10.6,0,2.7,0,4.6,1.7,4.9,4.1.3,2-1.3,4.3-3.4,5-.8.3-1.6.4-2.5.4-6.5,0-12.9,0-19.4,0-3.4,0-5.4-1.7-5.5-4.6-.2-3.3,1.4-5,4.8-5,3.5,0,7.1,0,10.6,0Z"/>
      <path class="cls-18" d="M220.7,131.5c-1.3-1.3-2.4-2.9-3.8-4-2.1-1.7-1.8-2.9,0-4.5,1.5-1.2,2.7-2.7,4-4.1,3-3,6-5.9,8.9-8.9,1.1-1.1,1.7-1.1,2.8,0,1.8,2,3.7,3.9,5.6,5.8-.5,1.8-.8,3.7-1.3,5.6-1.3,4.5-4.7,6.9-9,7.8-2.1.5-3.9,1-5,2.9-.2.3-.5.4-.9.3-.5-.3-.9-.7-1.4-1Z"/>
      <path class="cls-4" d="M222.1,132.5c1.3-2.1,2.6-3.5,5.6-3.8,5.4-.6,8.6-4.6,9.1-10,.1-1.3,1-1.9,1.5-2.8,3.2,2.6,5.8,5.8,8.9,8.5.8.8.4,1.2-.2,1.8-4.9,4.9-9.8,9.7-14.6,14.6-.7.7-1.2,1-2,.1-2.7-2.9-5.7-5.4-8.2-8.5Z"/>
      <path class="cls-1" d="M215.7,114.2c-3.2.5-3.9,1.3-4.2,4.5-.5,4.5-4,8.1-9,8.6-2.3.2-3.1,1.1-3.2,3.2q-5.8-5-.5-10.2c3.4-3.4,6.8-6.7,10.1-10.2,1.2-1.2,1.9-1.2,3,0,1.2,1.4,2.5,2.7,3.8,4Z"/>
      <path class="cls-2" d="M201.3,93.6c-42.4,0-84.7,0-127.1,0-1.3,0-2.5,0-3.8,0,0-7.4,0-14.8,0-22.2,43.9,0,87.8,0,131.7,0,1.1,0,2.2,0,3.3-.1,18.5,0,36.9,0,55.4,0,1,0,2-.4,2.9.5-18.4,0-36.8,0-55.2,0-2.1,0-3,.3-3.1,2.8-.4,6.5-1.5,12.9-4,19Z"/>
      <path class="cls-14" d="M70.3,106.2c0,4.9,0,9.7,0,14.6-4.8-2.7-6.5-6.1-4.9-9.9.9-2.3,2.7-3.8,4.9-4.7Z"/>
      <path class="cls-17" d="M116.5,119.8c-7.8,0-15.7-.2-23.5,0-3.8.1-7.8-2.7-8-7-.2-4.1,3.5-7.7,8-7.7,6.1,0,12.1,0,18.2,0,9.5,0,19,0,28.5,0,3.7,0,6.3,1.7,7.5,4.9,1.2,3.1.4,5.8-2.4,8.4-1.2,1.1-2.6,1.5-4.1,1.4-8.1,0-16.2,0-24.2,0Z"/>
    </g>
  </g>
</svg>