<?xml version="1.0" encoding="UTF-8"?>
<svg id="Layer_1" data-name="Layer 1" xmlns="http://www.w3.org/2000/svg" version="1.1" viewBox="0 0 300 189">
  <defs>
    <style>
      .cls-1 {
        fill: #ec9e2d;
      }

      .cls-1, .cls-2, .cls-3, .cls-4, .cls-5, .cls-6, .cls-7, .cls-8, .cls-9, .cls-10, .cls-11, .cls-12, .cls-13, .cls-14, .cls-15, .cls-16, .cls-17, .cls-18, .cls-19, .cls-20, .cls-21, .cls-22, .cls-23, .cls-24, .cls-25, .cls-26, .cls-27, .cls-28, .cls-29, .cls-30, .cls-31, .cls-32, .cls-33, .cls-34, .cls-35, .cls-36, .cls-37, .cls-38, .cls-39, .cls-40, .cls-41, .cls-42, .cls-43, .cls-44, .cls-45, .cls-46, .cls-47, .cls-48, .cls-49, .cls-50, .cls-51 {
        stroke-width: 0px;
      }

      .cls-2 {
        fill: #836842;
      }

      .cls-3 {
        fill: #4a3c28;
      }

      .cls-4 {
        fill: #030303;
      }

      .cls-5 {
        fill: #cfcfcf;
      }

      .cls-6 {
        fill: #0f5a85;
      }

      .cls-7 {
        fill: #f6cb8f;
      }

      .cls-8 {
        fill: #2c1d1d;
      }

      .cls-9 {
        fill: #fdf9f4;
      }

      .cls-10 {
        fill: #453824;
      }

      .cls-11 {
        fill: #f9e2c2;
      }

      .cls-12 {
        fill: #796240;
      }

      .cls-13 {
        fill: #362d20;
      }

      .cls-14 {
        fill: #652326;
      }

      .cls-15 {
        fill: #e4686d;
      }

      .cls-16 {
        fill: #fafbfc;
      }

      .cls-17 {
        fill: #491a1c;
      }

      .cls-18 {
        fill: #d7222a;
      }

      .cls-19 {
        fill: #503e23;
      }

      .cls-20 {
        fill: #000;
      }

      .cls-21 {
        fill: #f4c0c2;
      }

      .cls-22 {
        fill: #165f8a;
      }

      .cls-23 {
        fill: #1f6690;
      }

      .cls-24 {
        fill: #010101;
      }

      .cls-25 {
        fill: #fefdfb;
      }

      .cls-26 {
        fill: #f9fafb;
      }

      .cls-27 {
        fill: #f1b55d;
      }

      .cls-28 {
        fill: #0f5882;
      }

      .cls-29 {
        fill: #d8222a;
      }

      .cls-30 {
        fill: #ed9f2e;
      }

      .cls-31 {
        fill: #010000;
      }

      .cls-32 {
        fill: #e0565c;
      }

      .cls-33 {
        fill: #f9e3c4;
      }

      .cls-34 {
        fill: #0d0d0d;
      }

      .cls-35 {
        fill: #efac4b;
      }

      .cls-36 {
        fill: #401c1e;
      }

      .cls-37 {
        fill: #4c4c4c;
      }

      .cls-38 {
        fill: #f9e3c3;
      }

      .cls-39 {
        fill: #ed9e2d;
      }

      .cls-40 {
        fill: #fefefe;
      }

      .cls-41 {
        fill: #412f30;
      }

      .cls-42 {
        fill: #ac854d;
      }

      .cls-43 {
        fill: #f6cc91;
      }

      .cls-44 {
        fill: #8a6c41;
      }

      .cls-45 {
        fill: #969696;
      }

      .cls-46 {
        fill: #525252;
      }

      .cls-47 {
        fill: #d5d5d5;
      }

      .cls-48 {
        fill: #f5cc91;
      }

      .cls-49 {
        fill: #ea8b90;
      }

      .cls-50 {
        fill: #fcfcfc;
      }

      .cls-51 {
        fill: #ea8d91;
      }
    </style>
  </defs>
  <path class="cls-6" d="M19,188.9h-1c-4.5-1.2-9.4-1.1-13-5-3.9-4.2-3.9-9.2-3.9-14.3,0-50.1,0-100.2,0-150.3C.6,12.9,2.6,7.6,7.8,3.7,11.7.8,16.4,1.5,20.7.6c1.4-.3,3,0,4.5,0,83.6,0,167.2,0,250.8,0,3.3,0,6.6.2,9.9.5,8.4.8,12.1,4.2,13.4,12.5.2,1.1-.2,2.3.6,3.4v4c-1.4,1.5-1,3.4-1,5.2,0,45.9,0,91.8,0,137.6,0,1.8-.4,3.7,1,5.2v4c0,.1-.3.3-.3.4-1.7,12.3-2,12.6-14,15-1.6-.8-3.6.8-5.1-.7-.2-.5-.3-1.1-.1-1.6.8-1.7,2-2.8,3.7-3.5,7-2.8,9.3-8.5,9.4-15.5.2-14.6,0-29.2,0-43.7,0-32,0-63.9,0-95.9,0-2.3,0-4.6-.1-7-.8-8.5-5.4-12.8-13.9-13.2-2.2,0-4.3,0-6.5,0-82.2,0-164.3,0-246.5,0-2.3,0-4.6,0-7,0-7.6.5-10.8,3.4-12.3,11.1-2.3,9.8-1.7,19.7-1.7,29.6,0,33.8,0,67.5,0,101.3,0,6.6,0,13.2,1.5,19.7,0,2.6.5,5.2,1.8,7.5.6,2.1,1.7,3.9,4,4.4,1.8.9,3.7,1.7,5.6,2.4,1.3.7,2.5,1.5,2.8,3.1,0,1.5-1.6,1.7-2.4,2.4Z"/>
  <path class="cls-28" d="M19,188.9c.7-.7,1.3-1.3,2-2,1.5-1.8,3.6-1.5,5.6-1.5,82.9,0,165.9,0,248.8,0,2,0,4-.3,5.6,1.5,0,.3,0,.7,0,1,.7.3.7.7,0,1H19Z"/>
  <path class="cls-28" d="M299.9,169.1c-3.7-.1-1.9-3-1.9-4.4-.1-25.6,0-51.2,0-76.8s0-41.6,0-62.4c0-1.4-1.8-4.3,1.9-4.4v148.1Z"/>
  <path class="cls-26" d="M284.9,187.9c8.4-1.5,12.9-7,14.9-14.9,0,4.6-.1,9.3,0,13.9,0,1.7-.3,2.1-2,2-4.6-.2-9.3,0-13.9,0-.3-.9,0-1.4,1-1Z"/>
  <path class="cls-22" d="M284.9,187.9c-.3.3-.7.7-1,1h-3c0-.3,0-.7,0-1,1.3,0,2.7-1.2,4,0Z"/>
  <path class="cls-40" d="M7.2,177.6c-1.6-1.9-2.1-4.2-2.3-6.6-.5-1.3-.3-2.6-.3-3.9,0-48.4,0-96.8,0-145.2,0-1.3-.2-2.7.4-3.9,1.6-9.3,5.5-11.8,12.8-12.8,3.1-.4,6.3-.5,9.4-.5,82.1,0,164.2,0,246.3,0,.3,0,.7,0,1,0,16.6,0,21.4,4.7,21.4,21.2,0,47,0,94,0,141,0,8.9-3,15.4-12,18.2-4,1.4-8.1,1.4-12.2,1.4-80.3,0-160.6,0-240.9,0-4.3,0-8.6,0-12.7-1.3-1.9-.9-4.1-.8-5.7-2.3-2.4-1.1-4.2-2.7-5.1-5.2Z"/>
  <path class="cls-22" d="M18,185.1c4.5.1,8.9.3,13.4.3,78.7,0,157.4,0,236.1,0,5.5,0,10.9-.3,16.4-.4-1,.6-2,1.2-3,1.8-86.7,0-173.3,0-260,0-1-.6-2-1.2-3-1.8Z"/>
  <path class="cls-23" d="M5,18c0,51,0,102,0,153.1-1.2-1.8-.9-3.8-.9-5.8,0-47,0-94,0-141,0-2.1-.4-4.3.9-6.3Z"/>
  <path class="cls-23" d="M2,171.4c-1-1.7-.7-3.5-.7-5.3,0-47.3,0-94.6,0-142,0-1.8-.3-3.7.7-5.3,0,36.3.1,72.7.1,109,0,14.5-.1,29.1-.2,43.6Z"/>
  <path class="cls-22" d="M7.2,177.6c1.7,1.7,3.4,3.5,5.1,5.2-3.1-.4-4.8-2.1-5.1-5.2Z"/>
  <path class="cls-16" d="M218.8,81.5c.4,4.9.8,9.7,1.4,14.6.2,2-.5,2.7-2.4,2.6-2.6,0-5.3,0-8.9,0,3.2-6.2,6.1-11.8,9.1-17.4.3,0,.6.2.9.3Z"/>
  <g id="KoLEzS">
    <g>
      <path class="cls-1" d="M195.4,26.2h.7c.5.1,1,0,1.6,0,.4,0,.7,0,1.1,0,.2,0,.4,0,.6,0,3.1,0,6.1.4,9.1,1,4,.7,7.8,1.8,11.6,3.2,4.4,1.6,8.5,3.7,12.5,6.2,3,1.9,5.8,4,8.5,6.4,1.5,1.3,2.9,2.7,4.3,4.1,3.9,4.1,7.3,8.5,10.1,13.4,2.4,4.2,4.3,8.5,5.8,13.1,1.3,4.1,2.2,8.4,2.8,12.7.3,2,.3,3.9.3,5.9,0,.3,0,.6,0,1,0,.8,0,1.6,0,2.5,0,.4,0,.8,0,1.2,0,5.9-1,11.6-2.7,17.2-1.5,5-3.5,9.7-6,14.2-2.3,4.1-5.1,7.9-8.2,11.5-4,4.6-8.6,8.6-13.7,11.9-4.6,3-9.4,5.4-14.6,7.3-5,1.8-10.2,3-15.4,3.6-3.6.4-7.2.4-10.8.3-3.8,0-7.4-.6-11.1-1.4-4.3-.9-8.4-2.2-12.4-3.9-5.7-2.4-11-5.6-15.9-9.4-1.1-.9-2.2-1.8-3.3-2.8,0,0-.2-.1-.1-.3,0-.2.3-.3.4-.5,1.9-1.9,3.8-3.7,5.6-5.8.2-.2.4-.4.5-.7-.2-.1-.4,0-.6,0-3.9,0-7.8,0-11.6,0-.7,0-1.2-.2-1.6-.7-1.5-2-3-4-4.4-6.1-.4-.6-.3-.8.4-.8.3,0,.5,0,.8,0,7.2,0,14.4,0,21.6,0,.7,0,1.1-.2,1.5-.9,1-1.7,1.9-3.4,2.8-5.1,0-.2.2-.4.3-.6.1-.3,0-.4-.3-.4-.2,0-.3,0-.5,0-9.9,0-19.8,0-29.7,0-.2,0-.5,0-.7,0-.4,0-.6-.2-.7-.5-1-2.1-1.9-4.2-2.5-6.4-.2-.5,0-.6.5-.7.2,0,.5,0,.7,0,11.7,0,23.5,0,35.2,0,.2,0,.4,0,.7,0,.4,0,.7-.2.8-.6.3-.9.5-1.7.8-2.6.2-.8.4-1.6.7-2.5,0-.2,0-.4.2-.5.3-.1.4,0,.5.3,1.2,1.7,2.7,2.9,4.6,3.7,1.4.6,2.9.9,4.4,1,2.3.1,4.5-.1,6.7-.7.8-.2,1-.8.7-1.6.1-.3.5-.2.7-.3,1.4-.3,1.4-.3,1.7-1.7,0-.3,0-.7.3-1,.2,0,.2.2.2.3.5,3,3.3,5.1,6.1,5,1.7,0,3.4-.2,5-1,.9-.4,1.7-1,2.3-1.7.2-.2.4-.5.6-.4.3.1.1.5.1.8,0,.4,0,.9,0,1.3,0,.3.1.5.5.5,1.6,0,3.2,0,4.8,0,.3,0,.5-.2.5-.5.2-1.2.2-1.2-1-1.2-.8,0-1.5,0-2.3,0-.2,0-.5,0-.6-.2.2-.2.4-.2.7-.2,1.4,0,2.8,0,4.1,0,0,0,.1,0,.2,0,1,0,1,0,1.1-1,.6-5.1,1.5-10.1,2.3-15.2.2-1.4.4-2.9.4-4.3,0-.9-.2-1.8-.4-2.7-.6-2.3-2.1-3.7-4.2-4.5-1.4-.5-2.8-.7-4.3-.8-2.9,0-5.7.4-8.5,1.1-.8.2-1.2.6-1.2,1.4,0,.3,0,.7-.3.8-.8-.4-1.7,0-1.8.8-.3,1.6-.5,3.2-.8,4.7,0,.4,0,.5.4.4,1.6-.5,3.2-.8,4.8-.9,1.6-.1,3.2-.2,4.8,0,.6,0,1.1.3,1.5.6.5.4.9.8.7,1.5-.3.3-.6.2-1,.2-1.9,0-3.8.1-5.7.7-2.1.7-4,1.7-5.4,3.5,0,0-.1.1-.2.2-.1,0-.3.1-.4.3-1.6,1.3-2.7,3-3.2,5,0,.1,0,.2-.2.4-1,.6-2.1.9-3.2,1.1-1.8.4-3.5.4-5.2-.4-1.9-.9-3.1-2.4-3.5-4.3-1-4.5-.5-8.9,2-12.9.2-.3.3-.5.7-.7.8-.3,1.6-.7,2.4-.9,2.2-.5,4.3,0,6.3.7.5.2.9.4,1.4.6.5.3.6.2.7-.3.1-.7.1-1.4.4-2,.4-.1.7.2,1.1.3.4.2.5,0,.6-.3.3-2.1.6-4.1,1-6.2,0-.4,0-.5-.4-.7-2.3-.8-4.7-1.5-7.1-1.6-2.6,0-5.2.5-7.5,1.8-.2,0-.4.2-.5.3-.2,0-.4,0-.5.2-.2,0-.3.1-.5.2-.1,0-.2.2-.4.2-.3.2-.5.3-.8.5-1.5,1-2.9,2.3-4,3.8-.3.4-.6.5-1,.3-.2-.1-.5,0-.8-.1,0,0-.1-.2-.1-.4,0-1.1-.3-2.2-.5-3.2,0-.3-.2-.4-.5-.4-.2,0-.4,0-.6,0-13.4,0-26.8,0-40.3,0-.1,0-.2,0-.3,0,0,0-.1,0-.1-.1,0-.7.2-1.4.4-2.1.4-1.5.8-2.9,1.2-4.4.3-.9.4-1,1.3-1,10.4,0,20.8,0,31.2,0,1.6,0,3.2,0,4.8,0,.6,0,.7,0,.5-.7-.6-1.9-1.5-3.8-2.2-5.6-.2-.4-.5-.6-.9-.6-.3,0-.7,0-1,0-9.7,0-19.4,0-29.1,0-1.4,0-1.4-.1-.8-1.3.9-1.8,1.9-3.6,3-5.4.4-.6.8-.8,1.5-.8,7.3,0,14.7,0,22,0,.1,0,.3,0,.4,0,.1,0,.3,0,.4-.1,0-.1,0-.2-.2-.3-1.3-2-2.7-4-4.2-5.8-.4-.5-.8-.6-1.3-.6-3.9,0-7.8,0-11.8,0-.3,0-.8.1-.9-.2-.1-.3.2-.6.4-.8,1.7-1.9,3.4-3.9,5.3-5.5.3-.2.5-.5.8-.8,2.2-1.9,4.4-3.7,6.8-5.4,2-1.4,4.1-2.7,6.2-3.9,2.3-1.3,4.7-2.4,7.2-3.5,2.6-1.1,5.3-2,8.1-2.7,3.5-1,7.1-1.5,10.7-2,1.2-.1,2.5-.2,3.7-.2.2,0,.4,0,.6,0,.3,0,.6,0,.9,0,.5,0,1,0,1.6,0Z"/>
      <path class="cls-18" d="M71.5,34.6c1.9-1.1,3.9-2,5.9-2.9,6.2-2.7,12.8-4.3,19.5-5.1,1.1-.1,2.2-.2,3.3-.3.2,0,.3,0,.4-.1h.3c.4.1.8,0,1.2,0,.5,0,1,0,1.5,0h.7c.5.1,1,0,1.6,0,.3,0,.6,0,1,0,.2,0,.4,0,.6,0,3.5,0,7,.5,10.4,1.2,2.7.5,5.4,1.2,8,2.1,2.7.9,5.4,2,8,3.3,5.4,2.6,10.4,5.9,14.9,9.8.4.3.9.6,1,1.1-.2.5-.6.8-1,1.1-2,1.8-3.9,3.9-5.6,6,0,0,0,0,0,.2h.6c4.1,0,8.3,0,12.4,0,.4,0,.7.1,1,.5,1.7,2.1,3.2,4.3,4.7,6.5,0,0,0,.1,0,.2-.2,0-.4,0-.7,0-7.6,0-15.2,0-22.8,0-.5,0-.7.2-1,.6-1.2,2-2.3,4-3.3,6-.3.7-.3.7.4.7,10.2,0,20.4,0,30.7,0,.5,0,.7.1.9.6.8,2,1.7,4,2.4,6.1.2.6.2.6-.4.6-12.1,0-24.3,0-36.4,0-.6,0-.8.1-1,.7-.7,2.2-1.2,4.3-1.8,6.5-.3.2-.6.2-.9.2-1.7,0-3.3,0-5,0-1.5,0-1.3-.1-1.5,1.3,0,.2,0,.5-.2.7-.3.1-.6,0-.9,0-.7,0-.8,0-.9.7-.4,2-.7,4.1-1,6.1-.7,3.8-1.2,7.7-1.9,11.5,0,.4,0,.8-.1,1.2-.1.2-.2.1-.3,0,0-.2,0-.4-.1-.5-.4-1.8-1.4-3.2-3-4.3-1.1-.7-2.3-1.2-3.5-1.8-.4-.2-.9-.5-1.3-.8-.6-.5-.8-1.3-.5-1.9,1.2-.2,2.5-.1,3.7,0,.8,0,1.6.1,2.4.2.4,0,.5-.1.6-.5.1-.5,0-1.1.3-1.6.4-.3.8,0,1.1,0,.4,0,.6,0,.7-.5.2-1.7.5-3.4.8-5.1,0-.5,0-.6-.6-.6-1.8-.2-3.6-.4-5.4-.4-.9,0-1.8,0-2.7,0-.2,0-.5,0-.7-.3,1.1-.3,1.7-1.3,2.4-2,1.2-1.2,2.4-2.4,3.6-3.5.3-.3.3-.5,0-.7-.5-.5-1-.9-1.4-1.4-13.6-13.6-27.2-27.2-40.8-40.7-.2-.2-.5-.4-.6-.7Z"/>
      <path class="cls-48" d="M264.1,95.6c0-.9,0-1.7,0-2.6,0,0,0,0,.1,0v2.6s0,0-.1,0Z"/>
      <path class="cls-32" d="M106,26.3c-.5,0-1.1.1-1.6-.1h1.6s0,0,0,0c0,0,0,0,0,0Z"/>
      <path class="cls-32" d="M103.8,26.2c-.5.2-1,0-1.6.1,0,0,0,0,0,0,0,0,0,0,0,0h1.6Z"/>
      <path class="cls-27" d="M197.6,26.3c-.5,0-1.1.1-1.6-.1h1.6s0,0,0,0c0,0,0,0,0,0Z"/>
      <path class="cls-27" d="M195.4,26.2c-.5.2-1,0-1.6.1,0,0,0,0,0,0,0,0,0,0,0,0h1.6Z"/>
      <path class="cls-38" d="M264.1,95.6s0,0,.1,0v1.2s0,0,0,0c0-.4,0-.8,0-1.2Z"/>
      <path class="cls-51" d="M102.2,26.2s0,0,0,.1c-.4,0-.8.2-1.2-.1h1.2Z"/>
      <path class="cls-43" d="M197.6,26.3s0,0,0-.1h1.1s0,0,0,0c0,0,0,0,0,0-.4,0-.7,0-1.1,0Z"/>
      <path class="cls-49" d="M106,26.3s0,0,0-.1h1s0,0,0,0c0,0,0,0,0,0-.3,0-.7,0-1,0Z"/>
      <path class="cls-38" d="M264.2,93.1s0,0-.1,0c0-.3,0-.7,0-1,0,0,0,0,0,0v1Z"/>
      <path class="cls-7" d="M193.8,26.2s0,0,0,.1c-.3,0-.6,0-.9,0,0,0,0,0,0,0,0,0,0,0,0,0h.9Z"/>
      <path class="cls-33" d="M198.7,26.3s0,0,0-.1h.6s0,0,0,.1c-.2,0-.4,0-.6,0Z"/>
      <path class="cls-11" d="M192.9,26.2s0,0,0,.1c-.2,0-.4,0-.6,0,0,0,0,0,0,0h.6Z"/>
      <path class="cls-21" d="M107,26.3s0,0,0,0h.6s0,0,0,0c-.2,0-.4,0-.6,0Z"/>
      <path class="cls-29" d="M71.5,34.6c.2.1.3.3.5.4,14.1,14.1,28.3,28.3,42.4,42.4.3.3.3.5,0,.9-1.7,1.6-3.3,3.3-5,5-.3.3-.5.5-.9.5.1,0,.2,0,.3.1-.2.3-.5.3-.7.3-1.4.2-2.8.7-4,1.5-.7.4-1.3,1.1-1.9,1.7-.1.1-.3.3-.4.4-.2,0-.3.1-.4.3,0,0-.2.2-.3.2-.3.1-.5.3-.6.6-.1.2-.3.3-.4.5-.2.2-.3.4-.4.6,0,0,0,0,0,.1-.1.2-.2.3-.3.5-.1.1-.1.4-.4.4,0-.1,0-.2,0-.3,0,0,0,0,0,0,0,.1,0,.3.1.4,0,.2,0,.4-.2.5-.2,0-.2-.3-.2-.5-.3-3.4-2.1-5.7-5.5-6.6-2.7-.7-5.4-.6-8.1-.1-1.3.2-2.7.5-4,.9-.5.1-.8.4-.8.9,0,.2,0,.5-.2.7,0,0,0,0-.2,0-.6,0-1,.2-1.6.4-.2,0-.3.2-.3.4-.1.8-.3,1.6-.3,2.4,0,0,0,.1,0,.2,0,.2,0,.4,0,.6,0,0,0,.1,0,.2,0,.2,0,.4,0,.5,0,0,0,.1,0,.2,0,.2,0,.4,0,.6,0,.3,0,.6-.1.9,0,.2-.1.5.2.3.8-.2,1.6-.4,2.3-.7.6-.2,1.2-.2,1.9-.3.3,0,.6,0,.8,0,0,0,.2,0,.3,0,1.3,0,2.5,0,3.8,0,.8.1,1.6.2,2.2.7.2.1.3.3.4.4.1.1.2.3.3.4,0,.2.2.5,0,.7-.1,0-.2,0-.4,0-2,0-4,.2-6,.6-.2,0-.3,0-.5,0,0,0-.1,0-.2,0,0,0,.1,0,.1.1,0,.3-.3.3-.5.3-1.5.5-2.8,1.4-3.9,2.5-.3.3-.5.7-.8.9-.2.1-.3.2-.5.3-.2.1-.4.3-.6.5,0,0-.2.2-.3.3-.2.2-.4.3-.5.6,0,0,0,0,0,.1-.2.3-.5.6-.6.9,0,.2-.1.3-.3.4-.1,0-.2,0-.2-.1,0,0,0,0,0,0,0,0,.2.2.1.4,0,.2,0,.4-.3.6,0,0-.1,0-.1-.1-.1-.7.1-1.4.2-2.1,0-.6,0-1.3.4-1.9.3,0,.1.2.2.3,0-.1,0-.3-.1-.4,0-.2-.1-.5.1-.6.2.1.1.3,0,.4,0-.2,0-.4,0-.5,0-.2,0-.4.1-.5.1.1.1.2,0,.3.2-.2,0-.3,0-.5,0-.2,0-.4,0-.5.3-2,.6-4.1,1-6.1,0-.2,0-.4.2-.6.3,0,0,.3.2.5,0-.3,0-.5-.1-.6-.1-.4,0-.8.2-1.2.1,0,.1,0,0,.2,0,0,0-.2,0-.2,0,0,0-.2-.1-.3,0-1,.3-1.9.4-2.9.2-1.2.4-2.4.6-3.7,0-.2,0-.4.2-.6.3,0,.1.2.2.3,0-.1,0-.3-.1-.4,0-.2-.1-.5.1-.6.2.1.1.3,0,.5.1-.3,0-.4,0-.6,0-.2,0-.4.2-.5.1,0,0,.2,0,.3,0,0,0,0,0,0,0-.2,0-.4-.2-.5,0-.4,0-.8.1-1.2,0-.5,0-.6-.5-.6-.6,0-1.3,0-1.9,0-2.6,0-5.2,0-7.7,0-.8,0-.9,0-1.1.8,0,.2-.1.5-.3.6,0,0-.1,0-.2,0-.2.6-.7.4-1.2.4-.3,0-.6,0-.7.3,0,0,0,.1,0,.2-.4.9-.7,1.9-1,2.9-.2.5-.3,1.1-.6,1.6-.4.9-.6,1.8-.9,2.6-.2.6-.3,1.2-.6,1.7-.4.9-.6,1.8-.9,2.7-.2.6-.4,1.3-.6,1.9,0,.2,0,.4-.2.5,0,0-.1,0-.1-.1,0-.2,0-.4,0-.6,0-3.9-.2-7.8-.1-11.7,0-1,0-2.1,0-3.1,0-.5-.3-.6-.7-.6-3,0-6,0-9,0-.4,0-.7.1-.8.5,0,0,0,0,0,0-.1,0-.1,0-.2-.1,0,.1,0,.2.1.3,0,.2,0,.4,0,.5-.1,0-.1,0-.2-.1,0,.1.1.2.1.3,0,.1,0,.3-.1.4,0,0-.1,0-.2,0-.3,0-.6,0-.9,0-.7,0-.7,0-.8.7-.2,1.1-.4,2.2-.5,3.2,0,0,0,.1,0,.2,0,.2,0,.4,0,.6,0,0,0,.1,0,.2,0,.2,0,.4,0,.6,0,.5-.2,1-.2,1.5-.4,1.3-.5,2.7-.7,4,0,.6-.2,1.1-.2,1.7,0,0,0,.1,0,.2,0,.2,0,.4,0,.6,0,0,0,.1,0,.2,0,.2,0,.4,0,.6,0,.5-.2,1-.2,1.5-.4,1.3-.5,2.7-.7,4.1,0,.5-.2,1.1-.2,1.6,0,0,0,.1,0,.2,0,.2,0,.4,0,.6,0,0,0,.1,0,.2,0,.2,0,.4,0,.6,0,.2,0,.5-.1.7,0,.2,0,.4,0,.6,0,0,0,.2,0,.3-.4,1.3-.5,2.6-.7,4,0,.5-.2,1.1-.2,1.6,0,0,0,.1,0,.2,0,.2,0,.4,0,.6,0,0,0,.1,0,.2,0,.2,0,.4,0,.6-.1.7-.2,1.3-.4,2-.3,1.4-.3,1.2,1,1.2,1.6,0,3.3,0,4.9,0,.2,0,.4,0,.6,0,0,0,.1,0,.1,0,.2-.3.2-.7.3-1,0-.4.2-.7.7-.7.3,0,.6,0,1,0-.4,0-.7,0-1.1,0-.1,0-.4.1-.4-.2.3-.2.6-.1,1-.1.4,0,.6-.2.7-.6,0-.4,0-.8.3-1.1.2.1,0,.3,0,.5,0-.4,0-.8,0-1.2,0-.2,0-.4.2-.6.2,0,.1.2,0,.3.2-.2,0-.3,0-.5,0-.6,0-1.1.2-1.7.3-1.7.6-3.5.9-5.2,0-.3,0-.6.3-.8.3,0,.1.2.1.3,0,.1,0,0,0,0,0-.1,0-.4-.2-.5,0-.2,0-.3.1-.4.1,0,.1,0,0,.2,0,0,0-.2,0-.2,0,0,0-.1,0-.2,0-.2,0-.3.1-.4,0,0,0,0,0,0,0,0,0,0,0,0,0-.1-.1-.3-.2-.5,0-.5.1-.9.2-1.4,0-.1,0-.4.3-.2,0,.2,0,.3,0,.5,0,2.4.1,4.7.1,7.1,0,.7,0,1.4.2,2.1,0,.8,0,1.6,0,2.4,0,.9,0,1.8,0,2.7,0,.4,0,.8.1,1.1,0,0,.1.2.3.2,1.5,0,2.9,0,4.4,0,0,0,.2-.1.3-.2.3-.3.4-.8.5-1.2,0-.2,0-.4.3-.5,0,0,.2,0,.3,0,.8.1,1.1-.3,1.3-1,1.2-3.6,2.6-7.2,3.8-10.8,0-.3.1-.6.4-.8.1,0,.2,0,.1.2.1,0,0-.1,0-.2,0-.1,0-.3,0-.4.3-1.1.7-2.1,1.1-3.2,0-.1.1-.3.3-.2.1.1.1.3.1.4,0,.6-.1,1.1-.3,1.7-.3.8-.3,1.7-.5,2.6-.1.6-.2,1.3-.3,1.9,0,0,0,.1,0,.2,0,.4-.2.8-.2,1.3,0,0,0,.1,0,.2,0,.2,0,.4,0,.6,0,.3,0,.6-.1.8,0,.2,0,.4,0,.6,0,.3,0,.6-.1.9-.4,1.2-.4,2.4-.6,3.5,0,.6-.2,1.1-.2,1.7,0,0,0,.1,0,.2,0,.2,0,.4-.1.6,0,0,0,.1,0,.2,0,.2,0,.4,0,.6,0,0,0,.1,0,.2,0,.2.2.3.4.3,2.1,0,4.3,0,6.4,0,.1,0,.2,0,.3,0,0,0,0,0,0-.1.1-.2,0-.4,0-.6,0-.3,0-.6.2-.9.5-.2,1.1,0,1.6-.1,0,0,0-.1,0,0,0,0,0,0,0,0-.5,0-1,.2-1.5-.1.3-.3.6-.2,1-.2.4,0,.7-.2.7-.6.2-1.2.4-2.4.6-3.6,0-.2,0-.5.3-.6.2.2.2.5,0,.7-.1.1-.2.3-.1.4,0,0,0-.2,0-.3.3,0,.2.3.2.5.1.8.3,1.6.7,2.3.2.4.4.7.6,1,0,.2.2.3.3.4,0,0,0,0,0,.1.2.3.4.5.7.7,0,0,0,0,.1,0,.1.1.3.2.5.3.5.3,1,.6,1.6.7,1.8.6,3.5.4,5.2-.1.6-.2,1.2-.4,1.8-.7.5-.2.9-.3,1.2-.7,0-.1.2-.2.3-.3.2,0,.3-.2.4-.3,0,0,0,0,.1-.1,0,0,0,0,.1-.1.1-.1.3-.3.5-.2.2,0,.2.3.2.5,0,.4,0,.9,0,1.3,0,0,0,.1,0,.2,0,.3.1.4.4.4,1.7,0,3.5,0,5.2,0,.1,0,.3,0,.3-.1,0-.1.1-.3.1-.4,0-.3.2-.5.2-.8,0-.3.2-.5.5-.5.1,0,.3,0,.4,0,.7,0,.8.1.7.8,0,.3-.2.6.2.7.7.2,1.3.2,2,.4.4.2.8.2,1.2.2.8,0,1.5.2,2.3.1.4,0,.7,0,1.1,0,1.7.1,3.5,0,5.2-.4.7-.2,1.5-.4,2.3-.7.5-.1.9-.3,1.3-.6.2-.2.4-.3.6-.5.2,0,.4-.2.5-.4.1-.2.3-.4.5-.6.1-.1.2-.3.4-.5.3-.4.8-.6,1.2-1,.3-.3.6-.6.8-.9.1-.1.2-.4.5-.2.3.5.1,1.1.3,1.7.1.5.2,1.1.6,1.5.1.2.2.4.4.6,0,.2.2.3.4.5.5.5,1.1.9,1.8,1.2,1.1.4,2.3.5,3.5.4.7,0,1.4,0,2-.3.2,0,.4,0,.5-.2.5-.2,1.1-.3,1.6-.5.3,0,.2-.3.3-.5,0,0,0,0,0-.1,0-.2,0-.4,0-.6,0-.1,0-.2,0-.3.4-.3.8-.3,1.3-.4.4-.1.6-.4.7-.8.2-1.2.3-2.4.5-3.6,0-.2,0-.4.2-.6,0,0,0,0,.2,0,0,0,0,0,.1.1.2.2-.4.5.2.7.1,0,.2.4.3.6,0,0,0,0,0,.1,0,.3.2.6.4.9.2.5.6.9.9,1.4,0,.2.2.3.3.5.3.3.5.5.8.8.2.2.3.3.6.5.3.2.6.4,1,.7.2.2.4.3.7.4,0,0,0,0,.1,0,.3.1.5.2.8.3.6.2,1.3.4,1.9.6.5.2,1,.2,1.5.3,2.4.3,4.8.2,7.1-.3.8-.2,1.5-.3,2.3-.5.2,0,.4,0,.6-.2,0,0,0,0,0-.1.2-.5.2-1,.3-1.5.1,0,.2-.1.3-.2.6-.2,1.3-.2,1.6-.9.1.1,0,.3,0,.4,0-.2,0-.3,0-.4,0-.2-.1-.4.1-.5.2,0,.1.2,0,.3.1-.2,0-.3-.1-.4,0-.2,0-.4.1-.5.1,0,.1.2,0,.3,0-.2,0-.3-.1-.4,0-.6.1-1.1.2-1.7.1-1,.3-1.9.5-2.9-.2,0-.4,0-.6.1-2.3,1-4.7,1.4-7.2,1.4-1.1,0-2.2-.1-3.2-.5-1.3-.5-2.2-1.3-2.7-2.6-.1-.3-.3-.6,0-.9,2,0,3.9,0,5.9,0,1.8,0,3.6,0,5.5,0,.8,0,.9,0,1.1-.9,0-.3.1-.7.2-1,.2-.3.6-.2.9-.2.9,0,.9,0,1.1-.9.4-2.1.7-4.2.7-6.3-.1-2.7-.8-5.1-2.8-7-1.6-1.6-3.6-2.3-5.8-2.5-1.7-.1-3.5,0-5.1.7-1.8.7-3.4,1.8-4.7,3.3-.2.2-.3.4-.5.5-.3,0-.4.4-.6.5-1.1,1-2,2.2-2.7,3.4-1.4,2.5-2.1,5.2-2.4,8-.2,1.9-.1,3.7.2,5.5-.8.5-3.1.4-3.8-.2-.5-.5-.7-1.1-.7-1.7,0-.9.2-1.8.4-2.6.4-2.5.8-5,1.3-7.6,0-.3,0-.5.3-.7.6-.2,1.2,0,1.8-.1.6,0,.7,0,.8-.7,0-.4,0-.8.3-1.2.1,0,.2-.1.4-.1.7,0,.8-.2.9-.9.3-1.6.5-3.3.7-5,0-.6,0-.7-.6-.7-.8,0-1.5,0-2.3,0-.7,0-.8-.2-.6-.8.2-.9.3-1.9.6-2.8,0-.2,0-.5.3-.7.2-.1.4,0,.6,0,13.5,0,27,0,40.5,0,.5,0,.7,0,.8.6.1.9.3,1.8.5,2.7,0,.2,0,.5,0,.7-.2.2-.4.1-.6.1-1.4-.1-2.5.3-3.5,1.2-.8.7-1.4,1.4-2,2.3-.1.2-.2.5-.6.4-.2-.2-.2-.4-.2-.6,0-.8.2-1.6.2-2.5,0-.4-.1-.5-.5-.5-1.8,0-3.7,0-5.5,0-.3,0-.5.2-.5.5,0,.5,0,1-.3,1.4-.3.2-.7.1-1.1.1-.6,0-.7,0-.8.7-.2,1.9-.5,3.7-.7,5.6-.4,2.8-.8,5.5-1.3,8.3,0,.1,0,.3-.1.4-.3.5-.3,1.1-.4,1.7-.2,1.4-.4,2.8-.6,4.3,0,0,0,.1,0,.2,0,.2,0,.4,0,.6,0,0,0,.1,0,.2,0,.2,0,.4,0,.6,0,0,0,.2,0,.2,0,.2,0,.4,0,.6,0,.3,0,.7-.2,1-.3.8-.3,1.7-.5,2.6-.2,1.1-.3,1.1.9,1.1,1.9,0,3.7,0,5.6,0,.7,0,.7,0,.8-.7.2-1.2,0-1.1,1.4-1.1.2,0,.3,0,.5,0-.3,0-.7,0-1.1,0-.2,0-.3,0-.4-.1.2-.3.5-.2.7-.2.5,0,.9,0,1-.7,0,0,0-.1.1-.2.3,0,0,.3.2.5,0-.3,0-.4-.1-.6,0-.2-.1-.5.1-.6.2.1.1.3,0,.4,0-.2,0-.4-.1-.5,0-.2-.1-.5.1-.6.2,0,.1.2,0,.4,0-.2,0-.4,0-.5,0-.2,0-.4.2-.5.1.1,0,.3,0,.4.2-.2,0-.4-.1-.6,0-1.1.3-2.2.5-3.3.1-1,.3-2.1.5-3.1,0-.3,0-.6.2-.8.3,0,.1.2.2.3,0-.2,0-.3-.1-.4,0-.2-.1-.4.1-.5.1,0,.1.2,0,.3,0-.2,0-.3-.1-.4,0-.9.3-1.8.5-2.7.2-.8.3-1.7.7-2.4.1.1.2,0,.2,0,0-.1,0-.3.1-.4,0-.1.1-.3.2-.4.1-.1.3-.2.4-.3,1-.5,2.1-.6,3.2-.6.2,0,.2.2.2.4,0,.2,0,.4,0,.6,0,.3,0,.5-.1.8-.4,2-.4,4.1-.2,6.1,0,.4,0,.9.2,1.3.2.7.3,1.4.4,2,0,.3.1.5.2.8,0,.1,0,.3.1.4.2.5.3,1.1.6,1.5.2.3.3.6.4.9,0,.2.2.4.4.6,0,0,0,0,0,0-.4,1.6-.9,3.2-1.3,4.8-.4,1.6-.4,1.6-2,1.6-11.9,0-23.8,0-35.7,0-.6,0-.6,0-.4.6.7,2.1,1.5,4.1,2.4,6.1.2.4.4.6.9.5,10.2,0,20.4,0,30.6,0s.4,0,.7,0c-.4,1-.9,2-1.4,2.9-.7,1.3-1.4,2.6-2.2,3.8-.2.4-.5.5-.9.5-7.6,0-15.2,0-22.7,0-.1,0-.3,0-.4,0-.4,0-.4.1-.2.4.9,1.3,1.7,2.6,2.7,3.8.7.9,1.4,1.8,2.1,2.7.2.3.4.3.8.3,4.2,0,8.3,0,12.5,0,.2,0,.4,0,.6,0-2.1,2.6-4.4,4.9-6.8,7.2-3.8,3.5-8,6.5-12.5,9-5.6,3.1-11.5,5.4-17.8,6.9-4,.9-8,1.5-12.1,1.7-14.4.6-27.8-2.8-40-10.6-7.5-4.7-13.8-10.8-19-18-5.8-8.1-9.6-17.1-11.5-26.9-.7-3.7-1.1-7.5-1.2-11.2-.2-9,1.3-17.7,4.5-26.1,3.2-8.4,8-15.9,14.2-22.4,4.8-5,10.2-9.2,16.3-12.6.2,0,.4-.2.5-.3Z"/>
      <path class="cls-40" d="M235.2,86.4c.8-.5,1.6-1.2,2.5-1.6,3.3-1.4,6.4-1.1,9.1,1.3.7.3,1,.9,1.5,1.4.3-1.8.6-3.6.9-5.4,0-.4.1-.8.2-1.3,0-.2,0-.5.3-.7.1-.6.2-1.2.3-1.8,0-.3.2-.5.5-.5,2.1,0,4.3,0,6.4,0,.4,0,.4.1.4.5-1.1,6.7-2.2,13.3-3.3,20-.7,4.5-1.5,9-2.2,13.6,0,.5-.3.6-.7.6-2.1,0-4.2-.1-6.3,0-.3,0-.2-.3-.2-.5,0-.5.1-1,.2-1.6-.8.7-1.6,1.4-2.5,1.8-3.3,1.7-7.2,1.2-9.9-1.4-1-1-1.7-2.2-2.3-3.5-.6-1.5-.9-3.1-1-4.7-.2-3.7.4-7.2,1.9-10.5.7-1.7,1.7-3.2,2.9-4.5.1-.1.3-.3.4-.4.1-.2.3-.3.5-.4.1,0,.2-.2.3-.3Z"/>
      <path class="cls-40" d="M193.8,98.9c1.8-2.4,4.2-3.5,7-4.1,1.7-.4,3.5-.4,5.2-.4.4-.3.8,0,1.2,0,.5,0,.7-.1.7-.6,0-.3.1-.6.1-.9,0-1.1-.5-1.9-1.6-2.2-.9-.3-1.9-.3-2.9-.3-2.3,0-4.5.3-6.7.9-.2,0-.4.1-.5.1-.8.2-1,.1-.8-.8.1-1,.3-1.9.5-2.9,0-.2,0-.5.3-.7,0-.5.2-1.1.3-1.6,0-.3.2-.4.4-.5,3-.9,6.1-1.5,9.3-1.3,2.2,0,4.2.5,6,1.8,1.7,1.2,2.5,3,2.8,5,.3,2.1,0,4.1-.4,6.2-.8,5.1-1.6,10.1-2.3,15.2,0,.5-.3.6-.7.6-1.8,0-3.6-.1-5.4,0-.3-.1-.2-.4-.2-.6,0-.6,0-1.1,0-1.8-1.4,1.4-3,2.3-4.8,2.8-1.2.3-2.5.4-3.8.2-2.7-.5-4.5-2-5.4-4.7-.9-2.8-.6-5.6.6-8.3.1-.3.3-.6.6-.8.1-.1.2-.3.4-.4Z"/>
      <path class="cls-40" d="M181,87.5c-.5.4-.8,1-1.2,1.6-1.5,2.8-2,5.8-1.9,8.9,0,1.6.3,3.1,1.1,4.5,1.1,1.9,2.7,3,4.9,3.2,2.2.2,4.2-.4,6.2-1.3,0,0,.2-.2.2-.2.2-.1.4-.3.7-.1.2.1.1.4.1.6-.2,1.4-.5,2.9-.7,4.3,0,.2,0,.4-.3.5,0,.6-.2,1.2-.3,1.8,0,.4-.2.6-.6.7-.6.1-1.1.3-1.6.4-.4.4-1,.4-1.5.4-2.8.4-5.6.3-8.2-.8-2.5-1-4.4-2.8-5.7-5.2-1.3-2.2-1.8-4.7-2-7.2-.3-4.6.4-9,2.3-13.2,1.1-2.4,2.6-4.5,4.7-6.1.2-.2.5-.3.7-.5.1,0,.2-.2.4-.3.1,0,.2-.2.4-.2.2,0,.3-.2.5-.3,2.5-1.5,5.3-2.2,8.2-2.1,2.6,0,5,.8,7.4,1.7.3,0,.3.2.3.5-.4,2.2-.7,4.5-1.1,6.7,0,.3-.2.3-.4.2-.4-.2-.9-.4-1.3-.6-.3,0-.5,0-.7-.1-1.4-.6-2.9-.9-4.4-.8-2,0-3.8.8-5.3,2.2-.3.3-.6.6-.9.8Z"/>
      <path class="cls-40" d="M129,80.1c-.2,1.2-.5,2.4-.7,3.6,0,.4,0,.6.4.6.9,0,1.8,0,2.7,0,.4,0,.6,0,.5.5-.3,1.9-.6,3.9-.9,5.8,0,.3-.2.5-.5.5-.2,0-.5,0-.7,0-.5.3-1.1.1-1.6.1-.8,0-.8,0-1,.8,0,.4,0,.7-.3,1-.5,2.6-.9,5.3-1.4,7.9-.1.8-.3,1.6-.4,2.5-.2,1.7.5,2.6,2.2,2.6.7,0,1.4,0,2-.2.3,0,.3,0,.2.6,0,.2,0,.5-.2.7-.2,1.4-.5,2.8-.7,4.2,0,.5-.2.8-.8.9-.5,0-.9.2-1.3.4,0,.1-.2.2-.4.2-1.5.3-3,.4-4.5.2-2.9-.5-4.3-2.8-4.4-5.4,0-2,.3-3.9.6-5.9.8-5.1,1.7-10.2,2.5-15.4.2-1.2.4-2.3.6-3.5,0-.2,0-.5.2-.7.1-.6.2-1.1.3-1.7,0-.3.1-.4.4-.4,2.3,0,4.6,0,7,0,0,0,0,0,0,0Z"/>
      <path class="cls-40" d="M225.8,95.1c-1,2.9-1.5,6-2.1,9-.5,2.6-.8,5.2-1.2,7.8,0,.4-.3.4-.6.4-2.1,0-4.2,0-6.2,0-.2,0-.4,0-.6,0-.4-.2-.2-.5-.1-.8.4-2.1.7-4.2,1-6.4.9-5.7,1.8-11.4,2.6-17.1,0-.6,0-1.2.3-1.7,0-.6.2-1.2.2-1.8,0-.3.1-.5.5-.5,2,0,4,0,6,0,.4,0,.4.1.4.5,0,1.1-.2,2.1-.4,3.2,0,.1,0,.2,0,.5.6-.7,1.1-1.4,1.6-2.1.3-.4.8-.8,1.2-1.2,1.1-.9,2.4-1.3,3.8-1.1.4,0,.4.1.2.5-1.2,2.3-1.9,4.7-2.5,7.2,0,.1,0,.2,0,.3,0,.3-.2.3-.3.3-1.8-.1-2.8.8-3.5,2.4,0,0,0,.1-.1.2,0,0-.1.2-.2.2Z"/>
      <path class="cls-40" d="M164.8,88.1c.6-.8,1.2-1.6,1.9-2.4,1.3-1.3,2.8-2,4.7-1.6,0,0,0,0,.1.1,0,.2,0,.3,0,.5-1.1,2.2-1.8,4.5-2.4,6.9-.2.7-.2.8-.9.8-1.3,0-2.3.6-2.8,1.8-.1.3-.3.6-.4.8,0,.1-.2.2-.2.4,0,.2-.2.4-.3.6-.6,1.7-.9,3.5-1.2,5.2,0,0,0,0,0,0,0,0,0,0,0,0,0,.2-.1.4-.1.6h0c-.4,1.7-.6,3.3-.9,5-.1.7-.2,1.5-.3,2.2,0,0,0,.1,0,.2,0,.2-.1.4-.1.6,0,0,0,0,0,0,0,0,0,0,0,0,0,.2-.1.5-.1.7,0,0,0,0,0,0,0,0,0,0,0,0,0,.2-.1.5-.1.7h0q-.3,1-1.3,1c-.2,0-.4,0-.5,0,0,0,0,0,0,0,0,0,0,0-.1,0-1.6,0-3.1,0-4.7,0-.3,0-.5,0-.8,0-.2-.2-.2-.5-.1-.7,1.1-6.8,2.2-13.6,3.2-20.5.2-1.3.4-2.7.5-4,0-.3,0-.6.2-.9,0-.6.2-1.1.2-1.7,0-.3,0-.4.4-.4,2,0,4.1,0,6.1,0,.4,0,.4.2.4.5,0,.9-.2,1.8-.3,2.8,0,.2-.2.5.1.6Z"/>
      <path class="cls-20" d="M164.8,95.1c.1-.5.4-.9.7-1.3.6-1,1.6-1.6,2.8-1.5.5,0,.6-.2.7-.6.5-2.6,1.4-5.1,2.6-7.5.2,0,.3,0,.5,0,.6.3.9,0,1.2-.4,1.1-1.4,2.4-2.7,3.9-3.6.2,0,.2,0,.2.1-4.9,4.2-6.7,9.8-7.1,16-.2,2.9,0,5.7,1,8.5,1.8,5.1,6.2,8.1,11.6,8.1,1.6,0,3.1-.1,4.6-.5,0,0,.1,0,.2,0,.2.3,0,1.5-.4,1.6-3.6,1-7.1,1.4-10.7.3-2.4-.8-4.3-2.2-5.8-4.3,0,0-.1-.2-.2-.2,0,0,0,0,0,0-.2-.2-.3-.4-.5-.7-.2-.3-.3-.6-.5-.9-.3-.5-.4-1-.7-1.6-.1,0,0-.2,0-.3-.1-.2-.1-.5-.2-.8-.2-.7-.3-1.3-.4-2-.3-1.6-.3-3.2-.3-4.8,0-.9,0-1.8.3-2.7,0-.3,0-.5.1-.8.1-.2,0-.4.1-.6,0-.1,0-.3-.1-.3-.6.1-1.1,0-1.7.1-.5.1-1.1.3-1.6.5-.1,0-.2.2-.3.2-.1,0-.1,0-.1-.1Z"/>
      <path class="cls-20" d="M225.9,94.9c.2-.6.5-1.1.9-1.6.7-.8,1.6-1,2.5-1,.2,0,.4.1.5-.2.8-1.2,1.5-2.4,2.5-3.5.6-.6,1.2-1.2,1.9-1.7.1,0,.2,0,.1.2-3.5,3.7-5,8.3-5.2,13.3-.1,2.5.2,4.9,1.2,7.2,2.8,6.4,10.2,6.7,14.1,2.7.1-.1.3-.3.5-.4,0,.7-.2,1.3-.3,2,0,.2-.1.3,0,.5,1.5.1,2.9,0,4.4,0,.7,0,.7,0,.6.7q-.2,1.3-1.6,1.3c-1.7,0-3.4,0-5.1,0-.4,0-.5-.1-.5-.5.1-.6.2-1.3.3-2-.5.4-.8.7-1.1,1-3.7,3.2-10.8,3.1-13.5-3.5-1.2-2.8-1.3-5.7-1-8.7.2-2.2.7-4.3,1.5-6.4,0,0,0-.1,0-.2-1.1-.1-2,.3-2.9.9-.2,0-.2,0-.1-.2Z"/>
      <path class="cls-20" d="M218.9,86.5c-.6,5.2-1.4,10.4-2.3,15.6-.5,3.3-1,6.7-1.6,10,0,0,0,.1,0,.2.2.1.4,0,.5,0,1.4,0,2.9,0,4.3,0,.5,0,.7,0,.5.6,0,.2-.1.5-.1.7,0,.6-.2.8-.8.7-2,0-4.1,0-6.1,0-.5,0-.5,0-.5-.6,1-6.4,2-12.7,3-19.1.4-2.6.7-5.3,1-8,0-.5.2-.7.7-.6.3,0,.6,0,.9,0,.2,0,.3,0,.4.2Z"/>
      <path class="cls-20" d="M190.2,109.5c.3-1.8.6-3.6.9-5.5-.4.1-.7.2-1,.4.5-2.2,1.6-3.9,3.3-5.3,0,0,.1,0,.1.1-1.8,3.1-2.2,6.3-.9,9.7,1,2.5,3.3,4,6,4,.9,0,1.8-.1,2.8-.2.6,0,1.2-.3,1.8-.5.2,0,.4-.2.5,0-1.3,1.4-3,2.2-4.8,2.5-1.7.3-3.3.4-4.9-.3-1.9-.8-3.1-2.3-3.7-4.3,0-.2,0-.4,0-.7Z"/>
      <path class="cls-20" d="M196.4,87.1c-.2,1.3-.4,2.6-.6,3.9,0,.5,0,.5.4.3,2.6-.8,5.2-1.2,7.8-1.1.7,0,1.5,0,2.2.2,1.6.4,2.2,1.2,2,2.7,0,1.4-.2,1.4-1.5,1.3-.2,0-.4,0-.7,0,0-.8-.5-1.3-1.2-1.6-.9-.4-1.9-.5-2.8-.5-2.7,0-5.4.3-8,1.1-.4.1-.5.1-.5-.4.3-1.8.6-3.5.9-5.3,0-.3.2-.5.5-.6.3,0,.7-.1,1-.3.3-.1.4,0,.4.3Z"/>
      <path class="cls-20" d="M181,87.5c1.2-1.6,2.9-2.6,4.9-3,2.2-.4,4.3,0,6.4,1-.1.9-.3,1.8-.5,2.8-1.1-.6-2.2-1-3.4-1.4-2.5-.7-4.9-.7-7.2.5,0,0-.2,0-.3,0Z"/>
      <path class="cls-20" d="M203.7,112.2c-.2-.2-.4,0-.6,0-.6.1-1.1.5-1.7.4,1.6-.4,3-1.1,4.2-2.2.3-.3.5-.5.8-.7,0,.7,0,1.4,0,2.1,0,.2,0,.4,0,.6,1.2.1,2.4,0,3.5,0,.5,0,.6.1.5.6-.2,1.5-.2,1.5-1.6,1.5-1.4,0-2.7,0-4.1,0-.5,0-.7,0-.6-.6,0-.7,0-1.4,0-2.1-.2,0-.3.4-.5.5Z"/>
      <path class="cls-31" d="M249.7,80.1c-.4,2.5-.8,5.1-1.3,7.7-.6-.6-1.1-1.1-1.6-1.7.3-1.9.7-3.8,1-5.7,0-.4.2-.6.6-.5.3,0,.6,0,.9,0,.2,0,.3,0,.3.2Z"/>
      <path class="cls-25" d="M259.4,110.2c0,1.2-1,2.2-2.2,2.2-1.2,0-2.2-1-2.2-2.2,0-1.2,1-2.2,2.2-2.2,1.2,0,2.2,1,2.2,2.2Z"/>
      <path class="cls-13" d="M177.4,80.3c0-.1-.1-.1-.2-.1.2-.2.5-.3.7-.5.1,0,.2,0,.1.1-.2.2-.4.4-.7.5Z"/>
      <path class="cls-10" d="M234.5,87.1c0,0,0-.1-.1-.2.1-.2.3-.2.5-.3.1,0,.1,0,.1.1-.1.1-.3.2-.4.4Z"/>
      <path class="cls-2" d="M193.6,99.2s0,0-.1-.1c0-.2.2-.2.4-.2,0,.1-.1.3-.3.3Z"/>
      <path class="cls-3" d="M178.1,79.8s0,0-.1-.1c.1,0,.2-.1.4-.2.1,0,.1,0,.1.1-.1,0-.2.2-.3.2Z"/>
      <path class="cls-42" d="M179.2,79c-.1.1-.3.3-.5.3,0,0,0,0,0,0,0,0,0,0,0,0,.1-.1.3-.2.5-.2Z"/>
      <path class="cls-12" d="M178.7,79.2s0,0,0,.1c-.1,0-.2.2-.3.2,0,0,0,0-.1-.1.1-.1.3-.2.4-.2Z"/>
      <path class="cls-19" d="M225.9,94.9c0,0,0,.2.1.2,0,0-.1.3-.3,0,0,0,.1-.2.2-.3Z"/>
      <path class="cls-44" d="M235,86.7s0,0-.1-.1c0-.1.2-.2.4-.2,0,.2,0,.3-.2.3Z"/>
      <path class="cls-4" d="M255,132.5c0-1.2,1-2.2,2.2-2.2,1.2,0,2.2,1,2.2,2.2,0,1.2-1,2.2-2.2,2.2-1.2,0-2.2-1-2.2-2.2Z"/>
      <path class="cls-40" d="M115.2,109c-.6.9-1.5,1.6-2.3,2.3-.2,0-.3.3-.5.4-1.4.7-2.9,1.1-4.4,1.2-3.3.3-6.5.1-9.7-.5-.1,0-.3,0-.4,0-.4,0-.6-.3-.5-.7.2-1,.3-2.1.5-3.1,0-.7.2-1.5.3-2.2.1-.7.3-.8,1-.6,2.1.6,4.2.9,6.3.9.6,0,1.1,0,1.7-.2,1.3-.3,1.9-.8,2.1-1.9,0-.7-.1-1.3-.6-1.7-.3-.3-.7-.5-1-.7-1.1-.6-2.2-1.1-3.3-1.7-2.1-1.3-3.6-3-4-5.4-.4-2.4,0-4.7,1.1-6.9.1-.2.2-.3.4-.4.3-.3.5-.6.8-.9,1.5-1.7,3.5-2.4,5.6-2.8.2,0,.5,0,.7-.1,2.3-.2,4.6-.1,6.9.1.6,0,1.2.2,1.8.2.3,0,.3.1.3.4-.3,2-.6,3.9-.9,5.9,0,.3-.2.3-.4.3-.5,0-.9-.2-1.4-.1-.6.1-1.3,0-1.9,0-1,0-2-.1-2.9,0-1,.2-1.8.6-2.1,1.7,0,0,0,.1-.1.2-.1.9.2,1.5.9,2,1,.6,2,1,3,1.5,2.1,1,3.7,2.4,4.4,4.8,0,.3.2.7.2,1,.3.3.3.8.3,1.2,0,2-.1,3.9-1.1,5.7,0,.2-.2.3-.4.4Z"/>
      <path class="cls-20" d="M115.3,108.7c1.1-2.2,1.3-4.6,1-7,0-1.6.5-3.2.7-4.8.8-4.8,1.6-9.5,2.4-14.3,0-.4.2-.6.6-.5.4,0,.8,0,1.2,0-.4,2.1-.7,4.3-1.1,6.4-.9,5.5-1.9,11-2.7,16.5-.2,1.2-.2,2.5.1,3.7.6,2.6,2.5,4.1,5.2,4.1,1.3,0,2.6-.1,3.8-.4,0,0,0,.1,0,.2-.1.2,0,.5-.1.7h0c-.2.2.1.5-.2.7-.5.2-1.1.3-1.6.5-2.1.5-4.2.7-6.2,0-.7-.3-1.3-.7-1.8-1.2-.1-.2-.2-.3-.3-.4-.2-.2-.3-.3-.3-.6-.7-1.1-.8-2.4-.7-3.6Z"/>
      <path class="cls-20" d="M107.8,92.5c0-.8.4-1.3,1-1.7.6-.3,1.2-.4,1.8-.5,1.4,0,2.9,0,4.3.2,0,.5-.1.9-.2,1.4-.2.9,0,.9-1,.8-1.7-.2-3.4-.4-5.1-.3-.3,0-.5,0-.8,0Z"/>
      <path class="cls-40" d="M51.3,101c-.1.1-.1.3,0,.5,0,0,0,0,0,0,0,0,0,0,0,0-.3,1.9-.7,3.8-1,5.6-.1.7-.2,1.5-.3,2.2,0,0,0,0,0,0,0,0,0,0,0,0,0,.2-.1.4-.1.6,0,.2,0,.5-.1.7,0,.5-.2.9-.3,1.4,0,.3-.2.4-.5.4-.4,0-.8,0-1.3,0,0,0-.1,0-.2.1-1.5.1-3.1,0-4.6,0-.5,0-.6-.3-.5-.9.4-2.2.7-4.4,1.1-6.5,1.2-7,2.3-14.1,3.5-21.1.2-1.2.4-2.5.6-3.7,0-.2,0-.4.2-.6.1-.1.1-.2.1-.4,0,0,0-.1,0-.2.1-.2.1-.4.1-.6,0,0,0,0,0,0,0,0,0,0,0,0,0-.1,0-.2,0-.4,0-.4.2-.4.5-.4,3.2,0,6.5,0,9.7,0,.4,0,.5,0,.5.5,0,2.8,0,5.6.1,8.5,0,2.3,0,4.6,0,6.8,0,.2,0,.3,0,.5.2.6,0,1.3.1,1.9.1.9,0,1.9,0,2.5,1.9-6,4.1-12.2,6.2-18.5,0-.2.1-.3.3-.4.2-.5.3-.9.5-1.4,0-.3.2-.3.5-.3,3.6,0,7.2,0,10.7,0,.3,0,.4,0,.4.4-.1.6-.2,1.1-.2,1.7,0,0,0,0,0,0,0,0,0,0,0,0,0,.2-.1.4-.1.6,0,0,0,0,0,0,0,0,0,0,0,0,0,.2-.1.4-.1.7h0c-.4,1.7-.6,3.4-.9,5.1-.1.7-.2,1.5-.3,2.2,0,0,0,.1,0,.2-.1.4-.2.8-.2,1.3h0c-.4,1.7-.6,3.4-.9,5.1-.1.7-.2,1.5-.3,2.2,0,0,0,0,0,0,0,0,0,0,0,0,0,.2-.1.4-.1.6,0,0,0,0,0,0,0,0,0,0,0,0,0,.2-.1.4-.1.7h0c-.3,1.3-.5,2.7-.7,4,0,.2,0,.4,0,.6-.2,1.1-.3,2.2-.6,3.4-.1.2,0,.5-.2.7-.3,1.5-.5,2.9-.8,4.4,0,.4-.2.5-.5.5-.4,0-.8,0-1.3,0-.6.1-1.3,0-1.9,0-1,0-2.1,0-3.1,0-.2,0-.4,0-.6,0-.3-.2-.1-.5-.1-.8.3-2.1.7-4.2,1-6.3.9-5.6,1.8-11.2,2.7-16.8,0-.3,0-.5.2-.8.1-.4.2-.8.3-1.2,0,0,0,0,0,0,0,0,0,0,0-.1,0,0,0,0,0,0,0,0,0,0,0,.1-.2.2-.1.4-.3.6-.7,2.3-1.6,4.6-2.4,6.8-.1.4-.3.9-.5,1.3-.1.2-.1.5-.4.7-.5,1.1-.9,2.3-1.2,3.5,0,.1,0,.2-.1.3-.7,1.8-1.3,3.6-2,5.4-.8,2.2-1.6,4.5-2.4,6.7-.2.5-.4.7-.9.6-.2,0-.4,0-.7,0-1.1.1-2.3,0-3.4,0-.1,0-.2,0-.3-.1-.2-.6-.3-1.3-.3-1.9,0-2.6,0-5.1-.1-7.7,0-3.1-.2-6.1-.2-9.2,0-1.8.1-3.6,0-5.4,0-.5,0-1,0-1.4,0,0,0,0,0,0,0,0,0,0,0,0-.1.3,0,.5,0,.8-.5,3.3-1.1,6.7-1.7,10-.1.2,0,.5-.2.7-.2.6-.2,1.2-.3,1.8,0,.1,0,.2,0,.3-.1.1-.1.3,0,.5,0,0,0,.1,0,.2Z"/>
      <path class="cls-40" d="M76.9,98.9c.4-.1.5-.5.7-.8,1.2-1.2,2.6-2.1,4.2-2.7.2,0,.3-.1.5-.2,0-.1.2-.1.3-.1,2.2-.6,4.4-.8,6.6-.7,0,0,.1,0,.2,0,.4,0,.8,0,1.3,0,.3,0,.5-.1.5-.4.1-.6.1-1.3,0-1.9-.1-.6-.6-1-1.1-1.2-1-.4-2.1-.5-3.1-.5-2.4,0-4.7.3-7,1-1.1.3-1.2.2-1-.9.2-1.1.3-2.1.5-3.2,0-.2,0-.4.2-.6,0,0,0-.2,0-.3,0-1.1.5-1.5,1.5-1.7,2.9-.7,5.9-1.2,8.9-1.1,1.5,0,3,.4,4.4,1.1,2.4,1.2,3.7,3.2,4,5.9,0,.3,0,.5,0,.8.2.2.2.6.2.8-.1,1.4-.2,2.8-.5,4.2-.4,2.8-.9,5.6-1.3,8.3-.1,1-.3,2-.4,3-.2,1.4-.4,2.8-.6,4.2,0,.3-.2.5-.5.6-1.9,0-3.7,0-5.6,0-.4,0-.4-.4-.4-.7.1-.6,0-1.2,0-1.9-1.3,1.6-3,2.4-4.8,2.9-1.2.3-2.5.4-3.8.2-2.9-.5-4.8-2.3-5.5-5.1-.8-2.9-.4-5.7,1.1-8.4.2-.2.3-.5.5-.7Z"/>
      <path class="cls-40" d="M151.4,111.1c0,.6-.4.8-.9.9-.4,0-.7.2-1.1.3,0,0-.2.1-.3.2-3.9.8-7.8,1-11.6-.5-3-1.2-4.9-3.4-5.8-6.5-.6-2.2-.8-4.4-.6-6.7.2-2.7.8-5.3,2-7.8.3-.7.7-1.4,1.2-2.1.3-.1.4-.4.6-.6,1.3-1.6,2.7-2.9,4.6-3.7,3.8-1.6,7.6-1.5,11,1,2.1,1.6,3.1,3.9,3.4,6.4.3,2.8-.1,5.5-.7,8.3,0,.3-.2.4-.4.4-.5,0-.9,0-1.4,0-.3.2-.6.1-.9.1-3.5,0-6.9,0-10.4,0-.2,0-.3,0-.5,0-1,0-1,0-1,1,0,.3,0,.6,0,.9.3,1.6,1.3,2.6,2.7,3.2,1.9.7,3.9.7,5.8.4,1.7-.2,3.4-.7,5-1.4.1,0,.2,0,.4-.1-.3,1.7-.5,3.3-.8,5,0,0,0,0,0,0,0,0,0,0,0,0,0,.2-.1.4-.1.6,0,0,0,0,0,0,0,0,0,0,0,0,0,.2-.1.4-.1.6h0Z"/>
      <path class="cls-20" d="M134.4,88.9c-2.1,3.3-3.1,6.9-3.2,10.8,0,1.9.1,3.9.7,5.7,1.2,3.9,3.9,6.1,7.8,7,3,.7,6,.5,9,0,.2,0,.4,0,.7-.1.2.5,0,1-.1,1.5h0c-.1.2-.4.1-.6.2-.7.3-1.5.4-2.3.6-2,.4-3.9.5-5.9.4-1,0-1.9-.1-2.9-.4-.7,0-1.3-.3-1.9-.6-.3-.1-.5-.2-.8-.4h0c-.3,0-.5-.2-.8-.4-.4-.2-.7-.4-1-.7-.2-.1-.3-.3-.5-.4-.3-.3-.5-.5-.8-.8-.1-.1-.2-.3-.3-.4-.3-.5-.7-.9-.9-1.5-.2-.3-.3-.6-.4-.9h0c-.2-.4-.3-.9-.5-1.3,0,0,0,0,0,0-.1-.2,0-.4,0-.5,0-.3.2-.5,0-.8-.1,0-.2-.2-.2-.3-.7-5.5.1-10.7,3.6-15.2.5-.6.9-1.2,1.6-1.6,0,0,0,.2,0,.3Z"/>
      <path class="cls-20" d="M47.7,79.9c0,.9-.2,1.8-.4,2.7-1,5.9-2,11.9-3,17.8-.6,3.8-1.3,7.6-1.9,11.5,0,.4,0,.5.5.5,1.5,0,3.1,0,4.6,0,0,.7-.1,1.4-.3,2h0c-.1,0-.2,0-.4,0-2,0-4.1,0-6.1,0-.5,0-.6-.2-.5-.6,0-.3,0-.6.2-.9.1-.7.2-1.3.3-2,.1-.2,0-.4.1-.6,0,0,0,0,0,0,.1-.2,0-.4.1-.6h0c.3-1.9.6-3.9,1-5.8,0,0,0-.1,0-.2.1-.2,0-.4.1-.6,0-.2,0-.5.1-.7.1-.2,0-.4.1-.6,0,0,0,0,0,0,.1-.2,0-.4.1-.6h0c.3-1.7.5-3.4.8-5.2,0-.3.1-.5.2-.7,0-.5.2-1,.2-1.5.1-.2,0-.4.1-.6,0,0,0,0,0,0,.1-.2,0-.4.1-.6h0c.3-1.8.6-3.5.8-5.3,0-.2.1-.4.2-.6,0-.5.2-1,.2-1.5.1-.2,0-.4.1-.6,0,0,0,0,0,0,.1-.2,0-.4.1-.6h0c.2-1.2.4-2.5.6-3.8,0-.3.2-.4.4-.4.5,0,1,0,1.4,0h0Z"/>
      <path class="cls-20" d="M157.9,86.3c0,1.7-.4,3.4-.6,5-1,6.7-2.1,13.4-3.1,20.2,0,.3-.3.6,0,.9,1.7,0,3.5,0,5.2,0,0,0,.2,0,.3,0h0c0,.6-.2,1.2-.2,1.8,0,.2-.2.3-.4.3-2.3,0-4.5,0-6.8,0-.3,0-.4-.2-.3-.4.2-1.1.3-2.3.6-3.4.1-.3,0-.7.1-1,.1-.2,0-.4.1-.6,0,0,0-.1,0-.2.1-.2,0-.4.1-.6,0,0,0,0,0,0,.1-.2,0-.5.1-.7h0c.3-1.8.6-3.7.8-5.5,0-.2,0-.4.2-.6.3-2.1.7-4.2,1-6.3.4-2.8.8-5.7,1.1-8.5,0-.3.2-.4.5-.4.5,0,1,0,1.4,0Z"/>
      <path class="cls-20" d="M53.9,93.5c0,2.1,0,4.1.1,6.2,0,3.2.2,6.4.2,9.7,0,.9,0,1.8,0,2.7,0,.1,0,.3.2.3,1.1,0,2.1,0,3.2,0,.3,0,.4,0,.3.3-.2.5-.3,1-.6,1.5,0,0,0,.1,0,.2-.1.2-.3,0-.4,0-1.4,0-2.8,0-4.2,0-.2,0-.4,0-.5-.2,0-.4,0-.8,0-1.2-.1-.7,0-1.4,0-2,0-.2,0-.4,0-.7,0-.8,0-1.6,0-2.4,0-.9-.1-1.8-.1-2.8,0-2.5-.2-5-.1-7.5,0,0,0-.1,0-.2.4-2.2.7-4.3,1.1-6.5.2-1.2.4-2.4.6-3.7,0-.1,0-.3,0-.4,0-.1.1-.2.2,0,0,2.1.2,4.2.1,6.3,0,0,0,.1,0,.2Z"/>
      <path class="cls-20" d="M65.5,95.3c.9-2.5,1.7-5,2.6-7.5,0-.3.2-.5.3-.8.4.2.1.5.1.7-.7,4.4-1.4,8.7-2.1,13.1-.6,3.8-1.2,7.5-1.8,11.3,0,.1,0,.3,0,.3,1.7,0,3.4,0,5.1,0,.3,0,.5,0,.4.4-.1.3-.2.6-.1.9-.1.2,0,.4-.1.6h0c0,.2-.2.3-.4.3-2.2,0-4.4,0-6.7,0-.4,0-.5-.2-.3-.5,0,0,0,0,0,0,.1-.2,0-.5.1-.7h0c.1-.2,0-.5.1-.7h0c.3-1.8.5-3.7.9-5.5,0-.3,0-.6.1-.9.1-.2,0-.4.1-.6,0-.3,0-.6.1-.9.1-.2,0-.4.1-.6,0,0,0,0,0,0,0-.5.1-.9.2-1.4h0c.3-1.6.4-3.1.8-4.7,0-.5.2-1.1.2-1.6,0-.4,0-.8.2-1.1Z"/>
      <path class="cls-20" d="M98.1,96.6c.2-1.7.4-3.4.5-5.2,0-.2.2-.3.1-.5h0c.2-.1.2-.3.3-.5.2-.2.2-.4.3-.5h0c.1-.2.3-.5.4-.7l.4-.5c.2-.2.4-.5.7-.6l.2-.2c0,0,.1,0,.2,0,0,0,0,.1,0,.2-.7,1.4-1.1,2.9-1.2,4.5-.2,3.6,1.4,6.2,4.4,7.9.9.5,1.9,1,2.8,1.4.2.1.4.2.6.3,1.1.7,1.4,1.4,1.2,2.5-.2,1-.9,1.6-2.1,1.8,0,0,0,0,0,0,0-1.3-1-1.9-2-2.4-1.1-.6-2.3-1.1-3.4-1.8-1.5-1-2.7-2.2-3.4-4-.2-.5-.3-1.1-.3-1.6Z"/>
      <path class="cls-20" d="M76.6,99.5c-1.5,2.7-1.9,5.6-1,8.6.9,3.1,3.3,4.8,6.5,4.8.9,0,1.7-.1,2.6-.2.6,0,1.2-.3,1.7-.5.2,0,.3-.2.5,0,0,.2,0,.3-.2.4h0c-.1.1-.3.2-.5.3,0,0-.1.1-.2.2-.3.4-.8.6-1.3.8-.6.3-1.2.5-1.7.7-1.8.5-3.6.6-5.5.1-.6-.2-1.1-.4-1.6-.8-.2-.1-.3-.2-.4-.4h0c-.4-.2-.7-.5-.9-.9h0c-.1-.1-.3-.3-.4-.4-.2-.3-.5-.6-.6-1-.6-1.4-.9-2.8-.8-4.3.2-1.2.3-2.3.6-3.5,0-.2,0-.4.2-.5,0-.2,0-.4.2-.6,0,0,0-.2.1-.2,0-.2.2-.3.2-.5.2-.3.4-.7.7-1h0c.1-.3.4-.4.6-.7,0,0,.1-.1.2-.2.3-.1.4-.5.7-.5.1,0,.2.1,0,.3Z"/>
      <path class="cls-20" d="M79.6,86.7c-.2,1.4-.4,2.8-.6,4.2,0,.6,0,.6.5.4,2.9-.9,5.9-1.3,9-1,.2,0,.4,0,.7,0,2.2.4,2.7,1.7,2.1,4,0,.2-.2.2-.3.2-.5,0-1.1-.1-1.6-.2,0-.2,0-.4-.2-.6,0-.1-.1-.2-.2-.3,0-.1-.2-.3-.3-.3-.6-.4-1.4-.6-2.1-.7-1.4,0-2.7,0-4.1,0,0,0-.1,0-.2,0-.3.1-.6,0-.8.1-.6.1-1.3.1-1.9.3-.8.2-1.6.3-2.3.6-.4.1-.5,0-.4-.4.1-.3,0-.7.1-1,.1-.2,0-.4.1-.6,0,0,0,0,0,0,.1-.2,0-.4.1-.6,0,0,0,0,0,0,.1-.2,0-.5.1-.7h0c.1-.8.3-1.7.4-2.5,0-.2,0-.3.2-.4.6-.2,1.1-.4,1.7-.4h0Z"/>
      <path class="cls-20" d="M95.5,112.5c.4,0,.3-.4.3-.6.2-1.4.3-2.8.6-4.1.5-.2,1,.1,1.4.3.1,0,.1.2.1.3-.2,1.1-.3,2.2-.5,3.4,0,.2-.1.4.2.5,4.1.8,8.2,1.2,12.4.2.8-.2,1.6-.5,2.3-.8.2,0,.2,0,.1.2-.1.2-.3.4-.4.5-.2.2-.3.4-.6.5-.2.1-.4.3-.5.4-.4.4-.9.5-1.4.7-.7.4-1.5.5-2.2.7-1.7.5-3.4.5-5.2.4-1.3,0-2.7,0-4-.3-.3,0-.5,0-.8-.2-.7,0-1.3-.1-2-.4-.2,0-.4-.1-.3-.4.1-.5,0-1,.3-1.4Z"/>
      <path class="cls-20" d="M65.6,79.9c-.9,2.8-1.8,5.5-2.7,8.3-1.2,3.5-2.3,6.9-3.5,10.4,0,.1,0,.3-.3.4v-3c0-.6,0-1.2,0-1.9.1-.8.4-1.6.7-2.4.4-.9.5-1.8.9-2.7.2-.6.4-1.1.6-1.7.4-.9.6-1.8.9-2.7l.5-1.6c.3-1,.6-1.9,1-2.9,0,0,0,0,0-.1,0-.3.2-.4.6-.4.4,0,.9-.1,1.3.1Z"/>
      <path class="cls-31" d="M138.5,102.8c-.1-.5-.1-1-.1-1.5,0-.4.2-.5.6-.5,2.7,0,5.3,0,8,0,1.5,0,2.9,0,4.4,0-.1.6-.2,1.1-.3,1.7,0,.3-.2.4-.5.4-4,0-8,0-12.1,0Z"/>
      <path class="cls-20" d="M86.9,112.3c-.3-.3-.5,0-.7,0-.5.2-1,.4-1.5.3,1.6-.5,3-1.1,4.2-2.3.2-.2.5-.5.7-.7,0,.7,0,1.4,0,2.1,0,.2-.2.5.2.6,1.2,0,2.4,0,3.7,0,.3,0,.4.1.4.4,0,.4-.1.7-.2,1.1,0,.1,0,.3,0,.4,0,.3-.3.2-.5.2-1.8,0-3.5,0-5.3,0-.5,0-.5,0-.4-.6h0c.1-.7,0-1.4,0-2.1-.1.2-.3.4-.6.5Z"/>
      <path class="cls-24" d="M126.9,93.1c0-.6.2-1.1.2-1.7,0-.2.1-.3.4-.3.8,0,1.5,0,2.3,0,0,.5-.2,1.1-.2,1.6,0,.3-.2.4-.5.4-.7,0-1.5,0-2.2,0Z"/>
      <path class="cls-18" d="M152.4,110.7c-.2,1.1-.3,2.2-.5,3.2,0,.4,0,.6.4.6,2.1,0,4.3,0,6.4,0,.4,0,.5-.2.6-.5,0-.5.2-1,.2-1.5,0,0,0,0,.1,0,.5.3,1.1,0,1.6.2-.4,0-.8,0-1.1,0-.4,0-.5.2-.5.5q-.2,1.4-1.6,1.4c-1.9,0-3.8,0-5.7,0-.4,0-.6,0-.5-.5.2-1,.3-2,.5-3,0-.1,0-.3.2-.4Z"/>
      <path class="cls-18" d="M97.4,114.6c1.7.2,3.3.3,5,.3,1.7,0,3.3,0,4.9-.4-.6.4-1.3.4-2,.4-.8,0-1.6.2-2.4.1-1.7-.1-3.5-.1-5.2-.3-.2,0-.3,0-.4-.2Z"/>
      <path class="cls-18" d="M51.8,97.6c0,2.4.1,4.7.2,7.1,0,1.1,0,2.3,0,3.4-.2-.6-.2-1.3-.2-1.9,0-2.6-.2-5.3-.1-7.9,0-.2,0-.4,0-.6Z"/>
      <path class="cls-18" d="M137.5,114.6c1.9.4,3.7.4,5.6.3,1.1,0,2.1-.3,3.2-.3-.7.4-1.4.4-2.1.4-2.1.2-4.3.1-6.4-.2-.1,0-.2,0-.3-.2Z"/>
      <path class="cls-18" d="M66.5,77.6h11.2s0,0,0,0h-11.2,0Z"/>
      <path class="cls-18" d="M93.7,113.9c0-.3,0-.7.1-1,0-.4,0-.5-.4-.5-1.2,0-2.4,0-3.5,0,1.9,0,3.8,0,5.7,0,0,.4,0,.9-.2,1.3,0,.2,0,.4.2.5-.2,0-.4,0-.4-.3,0-.1,0-.2,0-.3.1-1,.1-1-.8-.9-.3,0-.5.1-.4.4,0,.3,0,.5-.2.8Z"/>
      <path class="cls-18" d="M48.3,77.6h10.5s0,0,0,0h-10.4s0,0,0,0Z"/>
      <path class="cls-18" d="M168.4,96c0,1.2-.2,2.4-.2,3.5,0,1.4.1,2.7.2,4-.4-.7-.3-1.4-.3-2.1,0-1.5,0-3,0-4.5,0-.3,0-.7.2-1Z"/>
      <path class="cls-18" d="M118.5,114.6c1.3.4,2.6.4,3.9.3.8,0,1.5-.2,2.3-.3-.4.4-1,.3-1.5.4-1.4.2-2.8.3-4.2,0-.2,0-.4,0-.6-.3Z"/>
      <path class="cls-18" d="M40.4,113.1c0,.3,0,.6-.1.9,0,.3,0,.5.4.5,2.2,0,4.3,0,6.5,0-.2.2-.4.1-.6.1-2,0-3.9,0-5.9,0-.7,0-.7,0-.6-.7,0-.3,0-.6.2-.8Z"/>
      <path class="cls-18" d="M62.5,114c0,.3,0,.5.4.5,2.2,0,4.4,0,6.5,0,.2,0,.4,0,.5-.2,0,.3-.1.3-.4.3-2.3,0-4.6,0-6.8,0-.5,0-.5-.2-.3-.6Z"/>
      <path class="cls-18" d="M153.9,101.4c-.3,2.1-.6,4.1-1,6.1,0-1.2.3-2.4.5-3.6,0-.7.2-1.3.3-2,0-.2,0-.4.2-.5Z"/>
      <path class="cls-18" d="M77.6,114.7c.9.1,1.8.3,2.7.3.9,0,1.9-.2,2.8-.4-.4.3-.8.3-1.2.4-1.3.2-2.7.3-4-.2,0,0-.1,0-.2-.1Z"/>
      <path class="cls-18" d="M70.2,112.8c0-.4-.2-.3-.5-.3-1.5,0-3,0-4.4,0-.2,0-.4,0-.5,0,1.9,0,3.7,0,5.6,0,.5.3,1,0,1.6.2-.6.2-1.2,0-1.7.2Z"/>
      <path class="cls-18" d="M43.4,95.4c-.3,2-.6,4-1,5.9,0-.9.2-1.7.3-2.6.1-.9.3-1.9.4-2.8,0-.2,0-.4.2-.6Z"/>
      <path class="cls-18" d="M44.8,86.7c-.3,2-.6,4-1,5.9,0-.9.2-1.7.3-2.6.1-.9.3-1.9.5-2.8,0-.2,0-.4.2-.5Z"/>
      <path class="cls-18" d="M41.9,104.1c-.3,1.9-.6,3.9-1,5.8,0-1.2.3-2.4.5-3.6.1-.8.1-1.5.5-2.3Z"/>
      <path class="cls-18" d="M87.4,113.9c0,.4.1.6.6.6,1.7,0,3.4,0,5.1,0,.2,0,.4,0,.6-.2,0,.3-.2.3-.4.3-1.9,0-3.7,0-5.6,0-.6,0-.4-.3-.3-.7Z"/>
      <path class="cls-18" d="M63.6,107.1c-.2,1.8-.5,3.7-.9,5.5,0-1.3.3-2.5.5-3.8,0-.6,0-1.1.4-1.6Z"/>
      <path class="cls-18" d="M47.7,79.8c-.4,0-.8,0-1.3,0-.3,0-.5.1-.5.5-.2,1.2-.3,2.4-.6,3.6,0-1.3.4-2.6.6-4,0-.1.1-.3.3-.3.5,0,1.1-.2,1.6,0Z"/>
      <path class="cls-18" d="M57.4,114.2c.2-.5.3-.9.5-1.4.1-.3,0-.4-.3-.4-1,0-2.1,0-3.1,0,1.2,0,2.4,0,3.6,0-.2.6-.2,1.3-.7,1.8Z"/>
      <path class="cls-18" d="M65.1,98.1c-.2,1.6-.4,3.1-.8,4.7,0-1.3.3-2.5.5-3.8,0-.3,0-.6.3-.9Z"/>
      <path class="cls-18" d="M79.6,86.7c-1.4,0-2.1.7-2.1,2.2,0,.4,0,.8-.2,1.2,0-.9.3-1.8.3-2.8,0,0,0-.2.1-.2.6-.2,1.2-.6,1.9-.4Z"/>
      <path class="cls-18" d="M73,106.9c0,1.5.3,2.9.8,4.3-.5-.7-.6-1.6-.8-2.4,0-.2,0-.4-.1-.5,0-.3,0-.5,0-.8,0-.2,0-.4.1-.6Z"/>
      <path class="cls-18" d="M52.2,114.3c0,0,.2.1.4.1,1.6,0,3.2,0,4.8,0,0,.2-.3.1-.4.1-1.4,0-2.8,0-4.2,0-.2,0-.4,0-.5-.2Z"/>
      <path class="cls-18" d="M115.3,108.7c0,1.3.2,2.5.7,3.6-.6-.6-.6-1.4-.8-2.2,0-.4,0-.8-.1-1.1,0-.1,0-.2.2-.3Z"/>
      <path class="cls-18" d="M90.7,83.6h-4.2s0,0,0,0h4.2s0,0,0,0Z"/>
      <path class="cls-18" d="M47.1,114.5c.1-.7.2-1.3.3-2,0,0,0,0,.1,0,.5.3,1,0,1.6.2-.3,0-.6,0-.9,0-.6,0-.8.2-.8.7,0,.4,0,.8-.3,1.1Z"/>
      <path class="cls-18" d="M76.8,93.1c0,.3,0,.4.4.3.8-.2,1.5-.5,2.3-.5-.8.4-1.7.5-2.6.7-.3,0-.3-.3-.1-.5Z"/>
      <path class="cls-18" d="M165.2,95c1-.7,2.1-.7,3.3-.7-.4.2-.9,0-1.4.1-.7.1-1.3.3-1.9.5Z"/>
      <path class="cls-18" d="M82.4,92.4c1.4-.2,2.7-.2,4.1,0-1.4,0-2.7,0-4.1,0Z"/>
      <path class="cls-18" d="M63.6,80.3c-.3,1-.6,1.9-1,2.9.2-1,.5-2,1-2.9Z"/>
      <path class="cls-18" d="M60.7,89.1c-.2.9-.5,1.8-.9,2.7.3-.9.4-1.8.9-2.7Z"/>
      <path class="cls-18" d="M62.1,84.7c-.2.9-.5,1.8-.9,2.7.2-.9.5-1.8.9-2.7Z"/>
      <path class="cls-18" d="M86.9,112.3c.2-.2.4-.4.7-.6,0,.8,0,1.6-.1,2.3,0-.6,0-1.2,0-1.8-.3,0-.4.4-.7.5,0,0,.1-.2.2-.3Z"/>
      <path class="cls-18" d="M65.6,79.9c-.5,0-.9,0-1.4,0-.3,0-.4.1-.5.3,0-.3.1-.5.5-.5.3,0,.5,0,.8,0,.3,0,.5,0,.7-.3,0-.2,0,0,.1,0,0,.1,0,.3-.1.4Z"/>
      <path class="cls-18" d="M52.1,110.4c.2.9,0,1.8,0,2.7-.2-.5,0-1.1-.1-1.7,0-.3,0-.7,0-1Z"/>
      <path class="cls-18" d="M149.2,113.8c0-.5.2-1,.1-1.5,0,0,0,0,.1,0,.3.2,0,.4,0,.7,0,.3,0,.6-.2.8Z"/>
      <path class="cls-18" d="M129.6,107.2c.2.5.3.9.5,1.4-.3-.1-.2-.5-.4-.6-.4-.2,0-.5-.1-.7Z"/>
      <path class="cls-18" d="M169.1,106.7c.3.5.5,1,.7,1.6-.4-.4-.5-1-.7-1.6Z"/>
      <path class="cls-18" d="M59.1,94.1c0,.6,0,1.2,0,1.9,0-.6,0-1.2,0-1.9,0,0,0,0,0,0Z"/>
      <path class="cls-18" d="M84.8,113.9c.4-.3.8-.5,1.3-.8-.2.5-.7.7-1.3.8Z"/>
      <path class="cls-18" d="M49.6,110.7c0-.2,0-.4.1-.7.3.4-.1.8-.1,1.2v-.6Z"/>
      <path class="cls-18" d="M109.6,113.9c.5-.2.9-.5,1.4-.7-.3.5-.8.6-1.4.7Z"/>
      <path class="cls-18" d="M74.7,112.7c.3.3.6.6.9.9-.5-.1-.8-.4-.9-.9Z"/>
      <path class="cls-18" d="M75.1,100.7c-.2.4-.4.7-.7,1,.1-.4.3-.8.7-1Z"/>
      <path class="cls-18" d="M64.3,102.8c0,.5,0,.9-.2,1.4,0-.5,0-.9.2-1.4Z"/>
      <path class="cls-15" d="M164.8,88.1c0,.1,0,.2-.3.3,0-.3,0-.6.1-.9,0,.2,0,.4.1.6Z"/>
      <path class="cls-41" d="M76.6,99.5c0,0,0-.2-.1-.2,0,0,0,0,0,0,0,0,0,0,0,0,.1-.2.3-.2.5-.3,0,.3-.2.5-.3.7Z"/>
      <path class="cls-18" d="M100.9,88.1c-.2.2-.5.4-.7.6.1-.3.3-.6.7-.6Z"/>
      <path class="cls-18" d="M164.5,96c0-.2,0-.4.2-.5,0,0,0,0,.1,0,0,.2-.1.4-.2.6,0,0,0,.2,0,0,0,0,0-.1,0-.2Z"/>
      <path class="cls-18" d="M65.5,95.3c0,.4,0,.8-.2,1.1,0-.2,0-.3,0-.5,0-.2,0-.4.2-.6Z"/>
      <path class="cls-18" d="M130,108.6c.2.3.3.6.4.9-.3-.2-.4-.5-.4-.9Z"/>
      <path class="cls-8" d="M134.4,88.9c0,0,0-.2,0-.3.1-.1.2-.3.5-.3-.1.2-.2.5-.5.6Z"/>
      <path class="cls-18" d="M76.4,99.2s0,0,0,0c-.2.1-.4.4-.7.5.2-.2.3-.5.6-.6Z"/>
      <path class="cls-18" d="M75.6,100c0,.3-.3.5-.6.7,0-.4.3-.5.6-.7Z"/>
      <path class="cls-18" d="M59.3,112.7h-.9c.3,0,.6,0,.9,0,0,0,0,0,0,0Z"/>
      <path class="cls-18" d="M134,113.3c.3,0,.6.2.8.4-.4,0-.6-.1-.8-.4Z"/>
      <path class="cls-18" d="M134.8,113.7c.3,0,.6.1.8.4-.3,0-.6-.1-.8-.4Z"/>
      <path class="cls-18" d="M64,99.7c0-.1,0-.2.1-.3.3.2,0,.4,0,.6,0,0,0-.2,0-.3Z"/>
      <path class="cls-18" d="M99.8,89.2c0,.3-.2.5-.4.7,0-.3.2-.5.4-.7Z"/>
      <path class="cls-18" d="M170.3,109.1c.2.2.3.4.5.7-.3-.1-.4-.4-.5-.7Z"/>
      <path class="cls-18" d="M82.6,95.1c0,0-.2.1-.3.1,0,0-.1,0-.2,0,.2,0,.3-.3.5,0Z"/>
      <path class="cls-18" d="M132.5,112.1c.3,0,.4.2.5.4-.3,0-.4-.2-.5-.4Z"/>
      <path class="cls-36" d="M101.3,88c0-.1,0-.2-.2-.2,0-.2.3-.2.4-.3,0,.2,0,.3-.2.4Z"/>
      <path class="cls-17" d="M112.5,111.8c0,0,0-.2-.1-.2.1-.1.3-.2.5-.2-.1.1-.2.3-.4.4Z"/>
      <path class="cls-18" d="M111.5,112.8c.2-.2.4-.3.6-.5,0,.3-.3.5-.6.5Z"/>
      <path class="cls-18" d="M168.8,105.6c.2.2.2.5.2.8-.2-.2-.2-.5-.2-.8Z"/>
      <path class="cls-18" d="M99.4,89.9c0,.2-.1.4-.3.5,0-.2.1-.4.3-.5Z"/>
      <path class="cls-18" d="M85.6,83.7c.2,0,.4,0,.6,0-.2.1-.4,0-.6,0Z"/>
      <path class="cls-18" d="M73.8,102.9c0,.2,0,.4-.2.5,0-.2,0-.4,0-.5,0,0,0,0,.1,0Z"/>
      <path class="cls-18" d="M126.4,114.1c.2-.2.1-.5.2-.7,0,.2.2.6-.2.7Z"/>
      <path class="cls-18" d="M89.1,93.8c.2.2.2.4.2.6,0,0,0,0-.1,0,0-.2,0-.4-.1-.6Z"/>
      <path class="cls-18" d="M81.4,92.5c.3-.1.5-.1.8-.1-.2.2-.5,0-.8.1Z"/>
      <path class="cls-18" d="M129.5,106.6c0,.2,0,.4,0,.5,0,0,0,0,0,0,0-.2,0-.4,0-.5Z"/>
      <path class="cls-18" d="M75.8,90.1c.2.2,0,.4,0,.6,0-.2,0-.4,0-.6,0,0,0,0,0,0Z"/>
      <path class="cls-18" d="M77.3,90.1c0,.2,0,.5-.1.7,0-.2-.1-.5.1-.7Z"/>
      <path class="cls-18" d="M148.6,114c.2,0,.4-.2.6-.2,0,.3-.4.2-.6.2Z"/>
      <path class="cls-18" d="M75.6,113.6c.2,0,.3.2.4.4-.2,0-.4-.1-.4-.4Z"/>
      <path class="cls-18" d="M152.9,107.6c0,.2,0,.5-.1.7,0-.2-.1-.5.1-.7Z"/>
      <path class="cls-18" d="M62.7,113.3c0,.2,0,.5-.1.7,0-.2-.1-.5.1-.7Z"/>
      <path class="cls-18" d="M77.2,82.2c0,.1,0,.3,0,.4-.2-.1,0-.3,0-.4Z"/>
      <path class="cls-18" d="M116.4,112.9c.2.1.3.2.3.4-.2,0-.3-.2-.3-.4Z"/>
      <path class="cls-18" d="M126.6,113.5c0-.2,0-.5.1-.7,0,.2.1.5-.1.7Z"/>
      <path class="cls-18" d="M51,102.9c0,.2,0,.4,0,.5-.1-.1,0-.3,0-.5Z"/>
      <path class="cls-18" d="M86.3,112.9c.1-.1.2-.3.5-.4,0,.2-.2.4-.5.4Z"/>
      <path class="cls-18" d="M62.8,112.6c0,.2,0,.5-.1.7,0-.2-.1-.5.1-.7Z"/>
      <path class="cls-18" d="M72.7,109.6c0-.2,0-.3,0-.5,0,.2,0,.3,0,.5Z"/>
      <path class="cls-18" d="M77.4,80.7s0,0,0,0c.2.2.1.3,0,.6-.1-.2,0-.3,0-.5Z"/>
      <path class="cls-18" d="M161.9,109.3c0,0,0-.1,0-.2.2.2,0,.4,0,.6,0-.1,0-.2,0-.4Z"/>
      <path class="cls-18" d="M74.5,98.2s0,0,0,0c.2.2,0,.4.1.6-.2-.2-.1-.4-.1-.6Z"/>
      <path class="cls-18" d="M74.3,100.2c0-.2,0-.4,0-.5.1.1,0,.3,0,.5Z"/>
      <path class="cls-18" d="M74.4,112.2c.2,0,.3.2.4.4-.2,0-.3-.2-.4-.4Z"/>
      <path class="cls-18" d="M161.5,111.5c.2.2.1.4,0,.6,0-.2,0-.4,0-.6,0,0,0,0,0,0Z"/>
      <path class="cls-18" d="M74.1,102.1c0,0,0,.2-.1.2,0-.1-.1-.3,0-.5,0,0,.1.2.2.3Z"/>
      <path class="cls-18" d="M131.3,110.9c.2,0,.3.2.3.4-.2,0-.3-.2-.3-.4Z"/>
      <path class="cls-18" d="M161.7,110.8s0,0,0,0c.2.2.1.3,0,.5,0-.2,0-.3,0-.5Z"/>
      <path class="cls-18" d="M161.8,110s0,0,0,0c.2.2,0,.4.1.6-.2-.2-.1-.4-.1-.6Z"/>
      <path class="cls-18" d="M51.1,101.5s0,0,0,0c.2.2,0,.4.1.6-.2-.2,0-.4-.1-.6Z"/>
      <path class="cls-18" d="M42.4,101.3c0,.2,0,.4-.1.6,0-.2,0-.4.1-.6Z"/>
      <path class="cls-18" d="M163.2,101.3s0,0,0,0c.2.1.1.3,0,.4-.2,0,0-.2,0-.4Z"/>
      <path class="cls-18" d="M151.5,110.5s0,0,0,0c.2.1.1.3,0,.4-.1,0,0-.3,0-.4Z"/>
      <path class="cls-18" d="M40.9,109.9c0,.2,0,.4-.1.6,0-.2-.1-.4.1-.6Z"/>
      <path class="cls-18" d="M40.8,110.6c0,.2,0,.4-.1.6,0-.2,0-.4.1-.6Z"/>
      <path class="cls-18" d="M151.6,109.9s0,0,0,0c.2.1.1.3,0,.4-.2,0,0-.2,0-.4Z"/>
      <path class="cls-18" d="M72.6,110.4v-.5c.1.2,0,.3,0,.5Z"/>
      <path class="cls-18" d="M151.4,111.1c.2.1.2.3,0,.5,0-.2,0-.4,0-.5,0,0,0,0,0,0Z"/>
      <path class="cls-18" d="M51.3,101c0,0,0-.1,0-.2.2.1.1.3,0,.4-.1,0,0-.2,0-.3Z"/>
      <path class="cls-18" d="M74.2,100.9v-.5c.1.2,0,.3,0,.5Z"/>
      <path class="cls-18" d="M51.4,100.3c0,0,0-.2,0-.3.1,0,.1.2,0,.3,0,0,0,.1,0,0,0,0,0,0,0-.1Z"/>
      <path class="cls-18" d="M47.9,78.6s0,0,0,0c-.2-.1-.1-.3,0-.4.1,0,0,.2,0,.4Z"/>
      <path class="cls-18" d="M163.1,101.9c.2.1.2.3,0,.5,0-.2,0-.4,0-.5,0,0,0,0,0,0Z"/>
      <path class="cls-18" d="M49.8,109.4s0,0,0,0c.2.1.1.3,0,.4-.1,0,0-.2,0-.4Z"/>
      <path class="cls-18" d="M74.3,98.9c.2.1.2.3,0,.5,0-.2,0-.4,0-.5,0,0,0,0,0,0Z"/>
      <path class="cls-18" d="M42.3,102c0,.2,0,.4-.1.6,0-.2,0-.4.1-.6Z"/>
      <path class="cls-18" d="M74.6,97.5s0,0,0,0c.2.1.1.3,0,.4-.1,0,0-.2,0-.3Z"/>
      <path class="cls-18" d="M77.5,80s0,0,0,0c.2.1.1.3,0,.4-.1,0,0-.2,0-.3Z"/>
      <path class="cls-14" d="M164.8,95.5s0,0-.1,0c0-.1,0-.3.1-.3,0,0,0,0,.1.1,0,.1,0,.2-.1.3Z"/>
      <path class="cls-18" d="M168.6,94.6c0,.2,0,.4-.1.6,0-.2,0-.4.1-.6Z"/>
      <path class="cls-18" d="M152.6,109.1c0,.2,0,.4-.1.6,0-.2,0-.4.1-.6Z"/>
      <path class="cls-18" d="M43.7,93.3c0,.2,0,.4-.1.6,0-.2,0-.4.1-.6Z"/>
      <path class="cls-18" d="M88.5,93.1c.2,0,.3.1.3.3-.2,0-.3-.2-.3-.3Z"/>
      <path class="cls-18" d="M129.3,109c0,.1,0,.2,0,.4,0-.1,0-.3,0-.4Z"/>
      <path class="cls-18" d="M51.1,102.3c0,.2,0,.3,0,.4,0-.1,0-.3,0-.4Z"/>
      <path class="cls-18" d="M77.2,81.4c.2.1.2.3,0,.5,0-.2,0-.4,0-.5,0,0,0,0,0,0Z"/>
      <path class="cls-18" d="M43.8,92.6c0,.2,0,.4-.1.6,0-.2,0-.4.1-.6Z"/>
      <path class="cls-18" d="M152.8,108.3c0,.2,0,.4-.1.6,0-.2,0-.4.1-.6Z"/>
      <path class="cls-18" d="M72.9,108.4v.4s0,0,0,0c0-.2,0-.3,0-.4Z"/>
      <path class="cls-18" d="M75.5,92.4c0,.1,0,.2,0,.4,0-.1,0-.3,0-.4Z"/>
      <path class="cls-18" d="M129.4,108.7c-.1-.1,0-.3,0-.5.2.2.1.3,0,.5Z"/>
      <path class="cls-18" d="M163,103.7c0-.1,0-.2,0-.4,0,.1,0,.3,0,.4Z"/>
      <path class="cls-18" d="M77,91.5c0,.2,0,.4-.1.6,0-.2,0-.4.1-.6Z"/>
      <path class="cls-18" d="M75.6,91.6c0,.1,0,.2,0,.4,0-.1,0-.3,0-.4Z"/>
      <path class="cls-18" d="M77.1,82.9c0,.1,0,.2,0,.4,0-.1,0-.3,0-.4Z"/>
      <path class="cls-18" d="M63.9,105.7c0,.2,0,.4-.1.6,0-.2,0-.4.1-.6Z"/>
      <path class="cls-18" d="M70,114.3c0-.2,0-.4.1-.6,0,.2,0,.4-.1.6Z"/>
      <path class="cls-18" d="M77.2,90.8c0,.2,0,.4-.1.6,0-.2,0-.4.1-.6Z"/>
      <path class="cls-18" d="M162.8,104.4c0-.2,0-.3,0-.4,0,.1,0,.3,0,.4Z"/>
      <path class="cls-18" d="M75.7,91.3c0,0,0-.3,0-.3.1,0,0,.1,0,.2,0,0,0,0,0,.1,0,0,0,0,0,0Z"/>
      <path class="cls-18" d="M98.7,90.9c-.2-.1-.1-.3,0-.5,0,.2,0,.3,0,.5,0,0,0,0,0,0Z"/>
      <path class="cls-18" d="M91.1,83.7c.1,0,.2,0,.4,0-.1,0-.3,0-.4,0Z"/>
      <path class="cls-18" d="M84.9,83.7c0,0,.3,0,.3,0,0,.1-.1,0-.2,0,0,0,0,0-.1,0,0,0,0,0,0,0Z"/>
      <path class="cls-18" d="M47.8,79.3c0,0,0,.1,0,.2-.2-.1,0-.3,0-.4,0,0,0,.2,0,.3Z"/>
      <path class="cls-18" d="M64.1,104.2c0,.2,0,.4-.1.6,0-.2,0-.4.1-.6Z"/>
      <path class="cls-18" d="M76,88.8c0,0,0-.1,0-.2.1.1.1.3,0,.4-.1,0,0-.2,0-.3Z"/>
      <path class="cls-18" d="M45.3,83.9c0,.2,0,.4-.1.6,0-.2-.1-.4.1-.6Z"/>
      <path class="cls-18" d="M45.2,84.6c0,.2,0,.4-.1.6,0-.2,0-.4.1-.6Z"/>
      <path class="cls-18" d="M42,103.3c0,.2,0,.4-.1.6,0-.2,0-.4.1-.6Z"/>
      <path class="cls-39" d="M243.1,105.3c-1.7,1-3.7.8-4.9-.4-.7-.7-1-1.7-1.1-2.6-.3-3.1,0-6,1.5-8.7,0,0,0-.1.1-.2,2.1-1.3,4.7-.1,5.5,2.3.4,1.2.5,2.5.4,3.8,0,1.3-.3,2.5-.6,3.7-.2.7-.5,1.5-1,2.1Z"/>
      <path class="cls-20" d="M243.1,105.3c-.1-.2,0-.3.1-.5,1.3-2.8,1.7-5.8,1-8.8-.6-2.6-2.6-3.6-5.1-2.8-.1,0-.2,0-.3,0,.7-1.1,1.6-1.9,2.8-2.2,2.2-.6,4.3.5,4.8,2.9.7,3.2.3,6.2-1.2,9.1-.5.9-1.2,1.7-2.1,2.2Z"/>
      <path class="cls-39" d="M204,106.2c0,.1,0,.2-.2.2-.6.3-1.2.4-1.9.5-1.3,0-2.4-.7-2.7-2-.2-.9-.1-1.7.2-2.5.7-.5,1.5-.5,2.3-.6.9,0,1.8,0,2.7,0,.4,0,.7.2.7.6,0,1.4-.2,2.8-1.1,3.9Z"/>
      <path class="cls-20" d="M204,106.2c.3-.9.7-1.7.8-2.6,0-.4,0-.8.2-1.2,0-.4,0-.5-.5-.5-1.6,0-3.2,0-4.8.5,0,0-.1,0-.2,0,.4-1.1,1.3-1.7,2.3-2,1.6-.6,3.3-.6,5-.5.2,0,.3,0,.3.3-.1,2-.7,3.9-2.2,5.5-.3.3-.6.5-1,.6Z"/>
      <path class="cls-18" d="M159.6,112.5c-1.8,0-3.6,0-5.5,0,1.8,0,3.6,0,5.3,0,0,0,0,0,.1,0Z"/>
      <path class="cls-30" d="M257.2,108.6c.9,0,1.7.8,1.6,1.7,0,.9-.8,1.7-1.7,1.6-.9,0-1.6-.8-1.6-1.7,0-.9.8-1.7,1.7-1.6Z"/>
      <path class="cls-50" d="M257.2,130.9c.9,0,1.7.7,1.7,1.7,0,.9-.8,1.7-1.7,1.7-.9,0-1.7-.8-1.6-1.7,0-.9.7-1.6,1.7-1.6Z"/>
      <path class="cls-29" d="M97.9,108.3c-.1-.4-.5-.3-.8-.4-.3,0-.5-.1-.8-.2.5-3.4,1-6.8,1.6-10.3,0-.3,0-.6.2-.9.5,3,2.4,4.9,4.9,6.2,1,.5,1.9.9,2.9,1.5.9.5,1.4,1.2,1.3,2.2-1,.3-2,.3-3,.2-1.8,0-3.6-.4-5.3-.9-.4-.1-.5,0-.6.3,0,.8-.2,1.5-.4,2.2Z"/>
      <path class="cls-47" d="M53.9,93.5c-.2-1.1,0-2.2-.1-3.3,0-1.1,0-2.2-.1-3.3,0-.1,0-.2,0-.4-.1-.2-.2-.4,0-.6.2,2.5.3,5,.2,7.5Z"/>
      <path class="cls-46" d="M68.6,87.7c-.1-.2.1-.5-.1-.7.1-.2,0-.6.4-.5h0c0,.4,0,.8-.2,1.2Z"/>
      <path class="cls-37" d="M53.7,86.6c0,.1,0,.2,0,.4,0,.1-.1.3-.2.4,0-.3,0-.6.2-.8Z"/>
      <path class="cls-45" d="M68.8,86.5c-.2-.2,0-.3,0-.6,0,.3.1.4,0,.5,0,0,0,0,0,0Z"/>
      <path class="cls-29" d="M87.1,106.4c-.8.4-1.6.6-2.4.5-1.1-.1-1.9-.8-2.2-1.9-.2-.9-.2-1.8.2-2.7.7-.5,1.6-.5,2.4-.6.8,0,1.6,0,2.4,0,.6,0,.8.2.7.8,0,1-.3,2-.7,3-.1.3-.3.6-.6.9Z"/>
      <path class="cls-20" d="M87.1,106.4c.6-1.2,1-2.5,1.1-3.9,0-.4,0-.6-.5-.6-1.6,0-3.2,0-4.7.4,0,0-.2,0-.3,0,.5-1.2,1.5-1.8,2.7-2.1,1.5-.4,3-.5,4.6-.3.2,0,.4,0,.4.4-.1,1.9-.6,3.7-1.9,5.1-.4.4-.8.8-1.4,1Z"/>
      <path class="cls-20" d="M140,92.3c.9-2.1,4-3,5.8-1.7,1.2.9,1.4,2.1,1.4,3.5,0,1,0,1-1,1-.4,0-.8,0-1.2,0-.2-.2-.2-.4-.3-.7-.3-1.1-1.1-1.7-2.2-2-.7-.2-1.3-.1-2,0-.2,0-.4.2-.5,0Z"/>
      <path class="cls-29" d="M140,92.3c.6,0,1.2-.3,1.8-.2,1.9.2,2.8,1,3.2,2.9-1.9,0-3.7,0-5.6,0-.3,0-.4,0-.3-.4.2-.8.5-1.6,1-2.3Z"/>
      <path class="cls-9" d="M256.5,110.2s0,0,0-.1c0-.8.3-1,1.1-.8.4.1.6.5.4.8-.2.3-.2.5,0,.8,0,0,.2.2,0,.3-.2,0-.3,0-.4-.1,0,0,0-.1,0-.2,0-.1,0-.4-.3-.4-.2,0-.1.3-.1.4,0,.2,0,.3-.3.3-.2,0-.2-.1-.2-.3,0-.2,0-.5,0-.7h0Z"/>
      <path class="cls-34" d="M256.4,132.5v-.2q0-.9.9-.8c.6,0,.9.4.5,1-.2.3,0,.4,0,.6,0,.1.2.3,0,.4-.2,0-.3,0-.4-.2,0-.2,0-.6-.4-.5-.3,0-.1.4-.2.6,0,.1-.1.2-.2.2-.1,0-.2,0-.2-.2,0-.3,0-.5,0-.8,0,0,0,0,0,0Z"/>
      <path class="cls-35" d="M257.3,110.1c-.3,0-.4,0-.4-.2,0-.2,0-.3.2-.3.2,0,.4,0,.4.2,0,.2-.1.3-.2.3Z"/>
      <path class="cls-5" d="M257.5,132.1c0,.2-.2.3-.4.3-.2,0-.3,0-.3-.2,0-.2,0-.3.3-.3.2,0,.3,0,.4.3Z"/>
    </g>
  </g>
</svg>