<?xml version="1.0" encoding="UTF-8"?>
<svg id="Layer_1" data-name="Layer 1" xmlns="http://www.w3.org/2000/svg" version="1.1" viewBox="0 0 300 189">
  <defs>
    <style>
      .cls-1 {
        fill: #0f5a85;
      }

      .cls-1, .cls-2, .cls-3, .cls-4, .cls-5, .cls-6, .cls-7, .cls-8, .cls-9 {
        stroke-width: 0px;
      }

      .cls-2 {
        fill: #f3a52c;
      }

      .cls-3 {
        fill: #fafbfc;
      }

      .cls-4 {
        fill: #0f5883;
      }

      .cls-5 {
        fill: #165f8a;
      }

      .cls-6 {
        fill: #1f6690;
      }

      .cls-7 {
        fill: #f9fafb;
      }

      .cls-8 {
        fill: #0f5882;
      }

      .cls-9 {
        fill: #fefefe;
      }
    </style>
  </defs>
  <path class="cls-1" d="M19,188.9h-1c-4.5-1.2-9.4-1.1-13-5-3.9-4.2-3.9-9.2-3.9-14.3,0-50.1,0-100.2,0-150.3C.6,12.9,2.6,7.6,7.8,3.7,11.7.8,16.4,1.5,20.7.6c1.4-.3,3,0,4.5,0,83.6,0,167.2,0,250.8,0,3.3,0,6.6.2,9.9.5,8.4.8,12.1,4.2,13.4,12.5.2,1.1-.2,2.3.6,3.4v4c-1.4,1.5-1,3.4-1,5.2,0,45.9,0,91.8,0,137.6,0,1.8-.4,3.7,1,5.2v4c0,.1-.3.3-.3.4-1.7,12.3-2,12.6-14,15-1.6-.8-3.6.8-5.1-.7-.2-.5-.3-1.1-.1-1.6.8-1.7,2-2.8,3.7-3.5,7-2.8,9.3-8.5,9.4-15.5.2-14.6,0-29.2,0-43.7,0-32,0-63.9,0-95.9,0-2.3,0-4.6-.1-7-.8-8.5-5.4-12.8-13.9-13.2-2.2,0-4.3,0-6.5,0-82.2,0-164.3,0-246.5,0-2.3,0-4.6,0-7,0-7.6.5-10.8,3.4-12.3,11.1-2.3,9.8-1.7,19.7-1.7,29.6,0,33.8,0,67.5,0,101.3,0,6.6,0,13.2,1.5,19.7,0,2.6.5,5.2,1.8,7.5.6,2.1,1.7,3.9,4,4.4,1.8.9,3.7,1.7,5.6,2.4,1.3.7,2.5,1.5,2.8,3.1,0,1.5-1.6,1.7-2.4,2.4Z"/>
  <path class="cls-8" d="M19,188.9c.7-.7,1.3-1.3,2-2,1.5-1.8,3.6-1.5,5.6-1.5,82.9,0,165.9,0,248.8,0,2,0,4-.3,5.6,1.5,0,.3,0,.7,0,1,.7.3.7.7,0,1H19Z"/>
  <path class="cls-8" d="M299.9,169.1c-3.7-.1-1.9-3-1.9-4.4-.1-25.6,0-51.2,0-76.8s0-41.6,0-62.4c0-1.4-1.8-4.3,1.9-4.4v148.1Z"/>
  <path class="cls-7" d="M284.9,187.9c8.4-1.5,12.9-7,14.9-14.9,0,4.6-.1,9.3,0,13.9,0,1.7-.3,2.1-2,2-4.6-.2-9.3,0-13.9,0-.3-.9,0-1.4,1-1Z"/>
  <path class="cls-5" d="M284.9,187.9c-.3.3-.7.7-1,1h-3c0-.3,0-.7,0-1,1.3,0,2.7-1.2,4,0Z"/>
  <path class="cls-9" d="M7.2,177.6c-1.6-1.9-2.1-4.2-2.3-6.6-.5-1.3-.3-2.6-.3-3.9,0-48.4,0-96.8,0-145.2,0-1.3-.2-2.7.4-3.9,1.6-9.3,5.5-11.8,12.8-12.8,3.1-.4,6.3-.5,9.4-.5,82.1,0,164.2,0,246.3,0,.3,0,.7,0,1,0,16.6,0,21.4,4.7,21.4,21.2,0,47,0,94,0,141,0,8.9-3,15.4-12,18.2-4,1.4-8.1,1.4-12.2,1.4-80.3,0-160.6,0-240.9,0-4.3,0-8.6,0-12.7-1.3-1.9-.9-4.1-.8-5.7-2.3-2.4-1.1-4.2-2.7-5.1-5.2Z"/>
  <path class="cls-5" d="M18,185.1c4.5.1,8.9.3,13.4.3,78.7,0,157.4,0,236.1,0,5.5,0,10.9-.3,16.4-.4-1,.6-2,1.2-3,1.8-86.7,0-173.3,0-260,0-1-.6-2-1.2-3-1.8Z"/>
  <path class="cls-6" d="M5,18c0,51,0,102,0,153.1-1.2-1.8-.9-3.8-.9-5.8,0-47,0-94,0-141,0-2.1-.4-4.3.9-6.3Z"/>
  <path class="cls-6" d="M2,171.4c-1-1.7-.7-3.5-.7-5.3,0-47.3,0-94.6,0-142,0-1.8-.3-3.7.7-5.3,0,36.3.1,72.7.1,109,0,14.5-.1,29.1-.2,43.6Z"/>
  <path class="cls-5" d="M7.2,177.6c1.7,1.7,3.4,3.5,5.1,5.2-3.1-.4-4.8-2.1-5.1-5.2Z"/>
  <path class="cls-4" d="M150,56.6c-43.6,0-87.3,0-130.9.1-4.7,0-5.8-1.4-5.6-5.8.3-8.8,0-17.6.1-26.3.1-9.5,2.2-11.7,11.8-11.7,35.3,0,70.7,0,106,0,47,0,93.9,0,140.9,0,2.3,0,4.7,0,6.9.3,5.2.9,8.2,4.4,8.4,10.2.3,10.1,0,20.2.1,30.3,0,2.2-.8,3-2.9,2.9-1.2,0-2.3,0-3.5,0-43.8,0-87.6,0-131.4,0Z"/>
  <path class="cls-2" d="M150.9,133.2c43.8,0,87.6,0,131.4,0,4.3,0,5.8,1,5.6,5.4-.4,8.6,0,17.2-.1,25.8-.1,8.9-3.9,12.8-12.8,12.8-82.9,0-165.9,0-248.8,0-8.8,0-12.4-3.4-12.6-12.3-.2-8.9.1-17.9-.1-26.8-.1-4,1.3-4.9,5.1-4.9,44.1.1,88.3,0,132.4,0Z"/>
  <path class="cls-4" d="M52.6,65.7c8.8,0,17.6.1,26.3,0,3.3,0,3.8,1.2,3.8,4,.2,12,.7,24,1.9,36.2,6.3-11.1,12.7-22.2,19-33.3,1.2-2,.2-4.2-.3-6.6h17.3c.5,1.7-.9,2.6-1.7,3.8-10.4,16.1-21,32.1-31.2,48.3-2.2,3.5-4.5,5-8.7,4.8-9.8-.3-9.9,0-10.6-9.6-.8-10.6-1.8-21.1-2-31.7-.1-6.9-3.2-10.8-9.3-12.9-1.6-.6-3.2-1.5-4.7-2.2,0-.3.2-.6.2-.9Z"/>
  <path class="cls-4" d="M232,65.7c2.6,19,3.5,37.8,7.3,57-5,0-10.6,0-16.3,0-.9,0-1.6-.4-1.1-1.5.1-.3.3-.6.3-.9.1-4.4,1.1-10.6-1.9-12.6-3.5-2.2-9.3-.8-14.1-.7-2.3,0-2.5,2.4-3.4,3.9-.9,1.6-2.2,3.2-2.3,4.9-.2,7.4-4.8,7.8-10.4,7.1-1.7-.2-3.5,0-5.6,0,9.5-17.2,19-33.8,27.7-50.8,2.6-5,5.2-7.4,10.9-6.4,3.1.5,6.3,0,8.9,0Z"/>
  <path class="cls-4" d="M140.7,107.6c4.9,2.2,9.4,4.3,14,6.2,3.1,1.2,6.3,2,9.7.8,6.6-2.3,7.9-7.9,2.7-12.4-3.5-3-7.5-5.4-11.3-8.1-10.5-7.4-10.2-19.9.7-26.8,10.4-6.7,21-5.5,31.8-.8,1.8.8,2.5,1.9,2.1,3.8-.6,2.5-1.1,5.1-1.8,8.1-3.2-1.5-6.1-2.9-9-4.2-2.8-1.2-5.6-2-8.7-1.6-2.7.3-4.7,1.4-5.8,4-1,2.5,0,4.5,1.6,6.4,2.6,3.1,6.1,5.1,9.3,7.4,2.4,1.8,4.9,3.3,6.8,5.7,5.2,6.4,5,13.7-.7,19.7-9,9.3-19.8,10.5-31.6,6.6-10-3.3-10.2-3.7-9.6-14.7Z"/>
  <path class="cls-4" d="M146.8,65.7c-3.5,3.2-4.4,6.2-5.3,9.2-3.8,12.5-7.7,24.9-11.6,37.3-.5,1.6-1.5,3.4-1,4.7,2,5.9-1.2,6.1-5.6,5.9-4.4-.2-8.9,0-13.6,0,6.2-15.6,10.2-31.3,15.3-46.8.6-1.7,1.7-3.7,1.3-5.2-1.4-5.4,1.5-5.4,5.4-5.2,4.6.2,9.2,0,15.2,0Z"/>
  <path class="cls-3" d="M218.8,81.5c.4,4.9.8,9.7,1.4,14.6.2,2-.5,2.7-2.4,2.6-2.6,0-5.3,0-8.9,0,3.2-6.2,6.1-11.8,9.1-17.4.3,0,.6.2.9.3Z"/>
</svg>