<?xml version="1.0" encoding="utf-8"?>
<!-- Generator: Adobe Illustrator 28.1.0, SVG Export Plug-In . SVG Version: 6.00 Build 0)  -->
<svg version="1.1" id="Layer_1" xmlns="http://www.w3.org/2000/svg" xmlns:xlink="http://www.w3.org/1999/xlink" x="0px" y="0px"
	 viewBox="0 0 1080 1080" style="enable-background:new 0 0 1080 1080;" xml:space="preserve">
<style type="text/css">
	.st0{fill:#FFFFFF;}
</style>
<g>
	<path class="st0" d="M540.8,47.3c35.3-2.1,67.2,8.3,97,26.2c19.5,11.7,33.3,28.4,40,50.5c0.3,0.9,0.5,1.7,1,2.5
		c18.6,33.9,16.6,69.2,7.2,104.9c-1.1,4-0.7,7.1,0.4,11.1c1.6,5.8,2.1,12.6,0.7,18.5c-3.4,13.8-6.1,28.3-12.7,40.5
		c-14.7,26.8-24.9,56.3-46,79.5c-1.5,1.7-1.4,4.9-1.8,7.5c-0.9,4.9-0.7,10.1-2.6,14.5c-14.9,34.4-37.2,62.2-71.6,79.2
		c-8.4,4.1-15.5,4.2-23.8,0c-36.3-18.1-59.1-47.8-73.8-84.7c-0.5-1.3-0.9-2.9-0.5-4.2c1.8-7.3-1.4-12.5-5.9-17.9
		c-12.6-15.4-22.1-32.8-29.6-51.2c-1.5-3.8-4.2-7-6-10.7c-4.4-9.4-9.1-18.8-12.5-28.5c-3.2-9.3-5.7-19-7.1-28.7
		c-0.7-5.1,1.6-10.7,2.3-16.1c0.3-2.1,0.5-4.5-0.1-6.5c-7.4-26-10.1-52.3-4.2-79c0.5-2.3,1-4.6,1.9-6.8
		c5.6-13.4,10.6-27.1,17.1-40.1c7.5-15,19.5-26.3,33.9-34.7c28.5-16.7,59-26.5,92.4-25.6C538,47.4,539.4,47.3,540.8,47.3z"/>
	<path class="st0" d="M621.2,570.7c8.7-49.3,17.3-97.9,25.8-145.8c33.7,32,78.1,44.5,121.2,59.7c17.1,6,32.5,14.6,45.6,27
		c3.2,3.1,6.2,6.6,8.6,10.3c28.3,43.3,46.4,90.5,53.8,141.7c1.7,11.8-0.3,23.4-4.9,34.3c-2.7,6.4-7.2,10.8-13.8,13.6
		c-41.1,17.4-84.1,28.3-127.8,37c-3.3,0.7-6.7,1.3-10.4,2c1-5.9,2.4-11.4,2.8-17c3.2-39.4-26.8-72.3-66.4-72.6
		c-21.8-0.2-43.6,0-65.4,0c-1.9,0-3.9,0-6.1,0c-1.7-13.3-2.8-26.2-4.9-38.9c-3.3-20.4-7.3-40.7-10.9-61.1c-0.3-1.8-0.5-3.9,0.2-5.6
		c4.3-10.7,8.8-21.2,13.2-31.8c0.3-0.6,0.7-1.2,1.9-3.5C596.3,537.1,608.3,553.3,621.2,570.7z"/>
	<path class="st0" d="M365.5,751.7c-16.9-3.6-33.3-6.9-49.5-10.7c-31.2-7.3-61.8-16.5-91.5-28.9c-8.4-3.5-13.3-9.4-16.2-17.5
		c-5.2-14.6-4.5-29.3-1.5-44.2c8.5-43.6,24.4-84.2,47.6-122c7.8-12.8,18.4-22.4,30.7-30.5c14.4-9.4,30.9-13.4,46.6-19.6
		c23.9-9.5,47.5-19.6,70.9-30.2c12.2-5.5,22.7-13.8,31.3-23.9c8.6,48.6,17.2,97.3,25.9,146.7c12.9-17.4,25-33.7,37.7-50.9
		c3.5,9.3,5.3,17.5,9.5,24.1c6.3,9.9,4.9,19.2,3,29.9c-5,27.2-8.5,54.7-12.5,82.1c-0.2,1.4-0.4,2.8-0.6,4.4c-3.4,0-6.6,0-9.5,0
		c-2.6-6.9-4.4-13.9-7.7-20.2c-11.5-22-30-34.6-54.6-36.1c-19-1.2-38.3-1.2-57.2,0.7c-30.5,3-54,28.5-57.4,59.9
		c-3.1,29.1,15.2,58.2,43,68.6C365,737.7,365,737.7,365.5,751.7z"/>
	<g>
		<path class="st0" d="M693,700.8c-8.7-12-23.2-18.9-39.7-19c-9.6,0-19.4,0-28.8,0c-4.1,0-8.3,0-12.4,0h-31.8
			c-36.5,0-74.1,0-111.4,0.1c-0.8-4.3-1.5-8.6-2.3-12.7l-0.7-3.9c-4.7-25.4-22.1-40.1-47.9-40.3c-13.2-0.1-26.3-0.1-38.8,0
			c-6.4,0.1-11.7,0.9-16.7,2.5c-20.8,6.9-33.7,27.9-30.6,49.9c3.2,22.6,21.5,38.8,44.6,39.5c1.7,0,3.4,0.1,5.1,0.1l2.4,13.9
			c7.2,42.1,14.6,85.7,21.9,128.6c4.6,27.4,22.4,42.4,50,42.4c16,0,32.1,0,48.1,0c28.4,0,56.9,0,85.3,0h22.2
			c24.5,0,40.6-11.7,48-34.9c12.7-39.5,26.1-81.4,39.4-122.9C703.8,728.5,701.6,712.7,693,700.8z"/>
		<path class="st0" d="M474.8,916.3L474.8,916.3c-24.7-0.5-46,19.7-46.6,44.3c-0.3,12.3,4.3,24.1,12.9,33.1
			c8.6,8.9,20.1,13.9,32.3,14.1c0.2,0,0.4,0,0.6,0c24.5,0,44.9-20.2,45.6-45.2c0.3-11.7-4.1-23-12.4-31.8
			C498.7,921.9,486.9,916.6,474.8,916.3z"/>
		<path class="st0" d="M593.4,916.3c-0.2,0-0.5,0-0.7,0c-24.7,0-45.1,19.9-45.6,44.6c-0.3,12.3,4.4,24,13.1,32.9
			c8.7,8.9,20.2,13.9,32.5,14c0.1,0,0.2,0,0.3,0c24.7,0,45.2-20.4,45.6-45.6c0.2-11.8-4.3-23-12.8-31.8
			C617.3,921.6,605.5,916.5,593.4,916.3z"/>
	</g>
</g>
</svg>
