<?xml version="1.0" encoding="utf-8"?>
<!-- Generator: Adobe Illustrator 28.2.0, SVG Export Plug-In . SVG Version: 6.00 Build 0)  -->
<svg version="1.1" id="Layer_1" xmlns="http://www.w3.org/2000/svg" xmlns:xlink="http://www.w3.org/1999/xlink" x="0px" y="0px"
	 viewBox="0 0 1012 1012" style="enable-background:new 0 0 1012 1012;" xml:space="preserve">
<style type="text/css">
	.st0{fill:#0085A3;}
</style>
<g>
	<path class="st0" d="M817.7,242.1c-2.8-0.3-5.6-0.3-8.2-1.1c-20-7.3-35.5-3.7-46.2,16.6c-1.7,3.1-11.5,5.9-14.1,3.9
		c-3.7-2.5-6.5-9.9-5.9-14.9c2-15.8,23.7-32.7,42.5-33.5c7.3-0.3,14.9,0.8,22.2,2.3c16.3,3.1,25.6-0.6,34.4-14.9
		c4.8-7.9,10.4-13,19.4-8.4c9.6,5.1,6.8,12.7,2.8,20.6C854.6,231.1,838,239.3,817.7,242.1z"/>
	<path class="st0" d="M781.4,342.3c-5.1-0.6-10.1-1.1-15.2-2c-15.8-3.1-26.2,0.8-34.4,14.6c-4.5,7.3-8.7,14.4-18.6,9
		c-9.3-5.1-6.8-13.5-3.1-20.8c7.6-14.9,19.4-25.3,36.9-26.8c9.3-0.8,18.9-0.6,27.9,1.1c14.6,2.3,25.9-1.7,32.9-14.9
		c4.2-7.9,9.6-14.4,18.6-9c9.6,5.4,6.8,14.6,2.3,22.2C818.2,333.9,802.8,343.5,781.4,342.3z"/>
	<path class="st0" d="M838,141.8c-1.7-0.3-5.9,0-9.9-1.1c-12.7-2.8-21.7,1.1-28.2,12.7c-3.4,6.2-9.3,13.5-16.3,7
		c-4.2-3.7-6.2-13.5-4.5-19.1c5.6-17.7,24.5-27.9,47-24.8c16.3,2.3,29.3,1.4,38.3-14.9c1.7-3.1,12.1-4.8,15.2-2.5
		c3.4,2.3,5.6,10.7,4.2,15.5C878.2,132.3,861.3,142.1,838,141.8z"/>
	<g>
		<g>
			<path class="st0" d="M425.7,1012.3c-13-2.5-25.3-5.9-36.6-13.5c-27.6-18.6-40.8-45.1-38-77.7c2.8-34.4,21.7-59.1,54.1-71.2
				c50.4-18.9,103.1,11.8,112.4,64.8c7.9,45.9-24.5,90.4-70.7,96.9c-1.1,0.3-2.3,0.6-3.4,0.8
				C437.5,1012.3,431.6,1012.3,425.7,1012.3z M434.7,898.8c-16.3,0-29.6,13.2-29.8,29c0,16.6,13.2,30.1,29.6,30.1
				s30.1-13.5,29.8-29.3C464.3,912,451.3,898.8,434.7,898.8z"/>
			<path class="st0" d="M705.3,1012.3c-9-2.8-18.3-4.5-26.8-8.4c-54.1-26.5-64.5-96.9-20.3-137.7c23.4-21.4,51.8-27.6,81.9-18
				c31.8,10.1,51.5,32.7,57.2,65.9c8.2,47.6-23.4,89.8-71,97.2c-0.8,0-1.7,0.6-2.3,0.8C718,1012.3,711.8,1012.3,705.3,1012.3z
				 M685.3,928.1c0,16.9,13,30.1,29.6,30.1c15.8,0,29.6-13.5,29.8-29c0.3-16.6-13-30.1-29.6-30.1
				C698.8,898.8,685.3,911.7,685.3,928.1z"/>
		</g>
	</g>
	<path class="st0" d="M926.4,97.3c2-30.7-6.8-58.9-29.8-80.5C880.8,2.2,862.5-4.9,839.9,3c-21.4,7.3-38.3,20.6-50.7,38.3
		c-16.3,23.4-30.4,48.4-44.5,72.9c-7.9,13.5-14.1,27.9-21.7,43.9c-3.4-4.8-5.4-6.8-6.2-9.3c-7-19.7-19.4-34.9-37.5-45.9
		c-4.2-2.5-7-8.4-9-13.5c-7-18-19.4-31.5-37.2-38.3c-9.9-3.7-14.6-9.6-19.1-18.6c-11-22.2-34.9-31-58.6-23.7
		c-5.4,1.7-11.8,1.7-17.2,0.3c-26.5-7.9-51,2.5-64.2,27c-3.1,5.9-9,11.5-14.9,14.9c-17.7,9.9-31,23.1-34.4,43.6
		c-2,11-7.3,16.6-17.2,21.1c-24.8,11.3-39.1,31.8-38.9,58.9c0.3,19.7,0.3,38-7.3,56.9c-3.4,8.4-0.6,19.7-0.6,32.7
		c-5.9-4.2-9.3-7.9-13.8-9.9c-12.7-5.4-25.6-10.7-38.9-14.4c-6.8-2-14.6,0.6-15.2,10.1c-0.8,9.3,5.4,11.5,13.2,12.7
		c14.4,2.3,26.5,8.2,37.2,22.8c-6.5,2.5-11,4.5-15.5,6.2c-13.2,5.1-25.1,11.3-34.6,19.4c-0.8-3.1-1.7-5.9-2.3-9
		c-5.6-20.8-16.6-29.6-38.3-29.6c-42.8,0-85.9,0-128.7,0c-3.4,0-7,0.3-10.4,0.6c-16.9,2.3-30.1,19.4-27.9,36.3
		c2.5,18,15.8,29.8,34.6,30.1c34.6,0.3,69.3,0.3,103.9,0c5.6,0,7.3,2,8.7,6.8c16.3,62.5,32.4,125.3,48.7,187.8
		c5.1,69.8,10.1,140,14.6,209.8c3.1,47.9,35.5,80.8,83.4,80.8c136,0.3,272.3,0,408.3,0c4.2,0,8.4-0.3,12.7-0.6
		c31.8-2.5,64.5-32.7,67.6-64.2c3.7-37.7,5.9-75.8,8.7-113.5c3.7-50.1,7-100,10.4-150.1c2.5-36.9,5.4-73.8,6.8-111
		c0.3-5.9-5.1-12.1-7.6-18.3c-2-5.1-5.9-11-4.5-15.2C907.5,269.7,920.7,184.1,926.4,97.3z M384.6,242.9c2-8.7,7.3-16.3,10.7-24.8
		c1.7-4.5,4.8-10.4,3.1-14.4c-15.5-39.1,1.1-67.3,42.5-71c2.8-0.3,5.4-0.8,9-1.4C443.7,99.8,448.5,82,469,75
		c15.8-5.4,24.5-11.3,28.4-28.4c3.7-15.5,23.4-19.1,37.5-10.4c3.9,2.5,7.6,5.4,11.3,8.2c24.8-22,49.3-16.3,48.4,25.6
		c4.5,0.3,9,0.6,13.8,0.8c20.3,1.1,35.5,13.8,40,35.2c2,8.4,5.1,13.2,13.8,17.2c33.8,15.2,45.1,58,22.2,83.6
		c-11.5-6.5-23.4-13-34.9-20.3c-8.2-5.1-3.1-11,0-16.9c10.7-20.8,0.8-47-20.3-51c-8.7-1.7-18.6,0.8-27.6,2.8
		c-22.8,4.8-45.6,10.7-68.4,15.2c-14.1,2.8-23.9,9.6-26.2,23.7c-2.3,13.8-0.3,28.4,12.7,36.3c12.7,7.9,11.8,14.1,3.4,24.2
		c-12.1,14.6-22,30.4-23.1,50.1c0,1.7-0.8,3.7-1.7,5.4c-0.3,0.8-1.4,1.1-3.7,3.1c-4.2-3.9-9-8.2-13.2-12.7
		c-15.2-15.8-32.7-27.3-55.5-25.3c-9.9,0.8-20,5.1-29.3,9C387.4,254.5,382.6,251.4,384.6,242.9z M619.4,159
		c-15.8,4.5-31.8,7.6-47.6,11.3c-9.6,2.3-19.1,3.9-31.3,6.5c-4.5,0-8.2-3.7-8.7-6.8c0-6.8,5.6-9.3,9.3-10.1
		c24.8-6.2,50.1-11.5,75.2-16.3c3.1-0.6,9.3,0,11,5.9C628.7,155.4,622.8,158.2,619.4,159z M361.5,595.5c31.5-0.3,62.8-0.3,94.3,0
		c10.7,0,19.7,3.4,20.3,16.3c0.3,11-7,17.2-20.8,17.5c-15.5,0.3-31,0-46.5,0s-31,0.3-46.5,0c-13.2-0.3-21.7-7-21.1-17.5
		C341.8,599.2,350.5,595.5,361.5,595.5z M340.9,669.8c1.1-12.4,9.6-16.3,20.6-16.3c20.6,0,41.1,0,62,0c20.3,0,40.3-0.3,60.5,0
		c14.1,0.3,21.7,6.2,21.1,16.9c-0.6,13.2-9.3,17.2-21.1,17.2c-40.8,0-81.7,0.3-122.2,0C348.3,687.6,340.1,680.5,340.9,669.8z
		 M309.4,330.5c9.9-7.6,22.2-11.8,33.2-17.7c14.4-7.6,30.1-13.5,42.2-23.7c39.1-33.2,62.2-31,92.4,11.3c14.1,19.7,25.6,40.6,27,66.2
		c-2.3,9.3-4.5,18.6-6.5,27.6c-8.4-2.8-17.7-4.5-25.6-8.7c-27.3-15.5-54.6-16.3-81.4-0.6c-24.2,14.1-47,13.5-69.8-2
		c-2.3-1.7-4.8-2.8-7.3-4.2c-1.4-0.8-2.5-1.7-3.9-2.5c-3.1-11.8-6.2-23.4-9.3-35.2C302.4,337.3,305.5,333.6,309.4,330.5z
		 M512.4,745.3c-25.3,0-50.4,0-75.7,0c-24.8,0-49.6,0-74.3,0c-14.1,0-22-6.2-21.1-16.6c1.1-13,9.9-16.6,21.7-16.3
		c50.1,0.3,100.2,0.3,150.1,0c11.5,0,20.6,3.1,21.7,16.3C535.5,739.4,527.4,745.3,512.4,745.3z M605.4,745.3c-4.8,0.3-9.3,0-14.1,0
		l0,0c-5.1,0-10.4,0.3-15.5,0c-9.6-0.8-17.2-7.3-15.2-16.1c1.4-6.5,9-14.1,15.5-16.1c9-2.8,19.4-0.8,29-0.6
		c10.4,0.3,16.9,5.9,16.9,16.3C622.2,739.7,615.8,745,605.4,745.3z M628.7,383.2c-0.6,1.7-8.7,3.4-11.3,1.7
		c-20.3-12.1-41.7-13.5-63.6-7.9c-12.1,3.1-11.8-3.7-13-14.4c40.5,5.4,71-15.5,101.9-36c0.8,1.4,1.7,2.5,2.8,3.9
		C640,348.3,634.9,366,628.7,383.2z M604.5,321.5c-16.1,7.6-32.9,13.8-49.6,20.6c-0.6-1.4-0.8-2.8-1.4-4.2
		c-14.6,1.4-23.4-3.7-23.9-19.7c-0.3-6.8-2.8-13.8-4.8-20.6c-6.5-20.8,0.3-38.6,12.1-55.5c8.2-11.5,19.7-21.7,19.1-38
		c0-2.5,5.1-6.2,8.4-7.3c9.3-2.8,19.1-3.9,28.7-6.5c13.8-3.7,26.8-7.9,34.6,10.1c2,4.2,8.7,6.5,13.5,9.6c7,4.5,14.6,8.4,21.4,13.5
		c18.3,14.1,18.9,16.9,9.9,38.6c-2.3,5.6-5.1,11-6.8,16.9c-3.1,10.4-9.9,15.5-19.7,19.7C631.8,305.2,618.9,314.7,604.5,321.5z
		 M877.1,271.7c-7.6,31.8-17.2,63.1-25.9,94.6c-1.1,3.7-2.3,7.3-4.8,10.1c-16.3,18.6-55.5,25.3-76.6,12.4
		c-32.1-19.4-63.4-19.4-95.2,0.3c-5.6,3.7-13,4.8-19.4,7c-1.1-1.1-2.3-2.5-3.1-3.7c6.8-20.8,12.7-41.7,20.3-62
		c32.1-86.7,74.3-168.7,119.1-249.2C801.4,63.7,816,48,831.8,35c21.7-17.7,44.2-12.4,57.4,12.1c6.2,11.5,11.3,25.3,11.3,38.3
		C901.3,148.6,891.5,210.5,877.1,271.7z"/>
</g>
</svg>
