<?xml version="1.0" encoding="utf-8"?>
<!-- Generator: Adobe Illustrator 28.1.0, SVG Export Plug-In . SVG Version: 6.00 Build 0)  -->
<svg version="1.1" id="Layer_1" xmlns="http://www.w3.org/2000/svg" xmlns:xlink="http://www.w3.org/1999/xlink" x="0px" y="0px"
	 viewBox="0 0 1012 1012" style="enable-background:new 0 0 1012 1012;" xml:space="preserve">
<style type="text/css">
	.st0{fill:#0185A3;}
	.st1{fill:#0085A3;}
	.st2{fill:#C0E24E;}
	.st3{fill:#0391AC;}
	.st4{fill:#C7E665;}
	.st5{fill:#0187A4;}
</style>
<g>
	<path class="st0" d="M815.1,766.5c4.2-3.3,8.1-7.4,13.8-8.1c2.9-0.3,5.7-1,4.2,4.3c-2,6.8-2.8,12.9-12.2,14.1
		c-7.1,0.9-10.8,7.8-13,14.5c-2,5.9-3.4,12-5.1,18c-1.3,4.5-12.4,8-16,5c-1.7-1.4-0.4-2.9-0.1-4.2c4.1-15.6,8.2-31.2,12.6-46.8
		c2.2-7.6,8.7-3.3,13.2-3.7C818.4,759.2,813,764.2,815.1,766.5z"/>
	<path class="st1" d="M469,766.9c4-3.6,7.9-7.6,13.5-8.5c3.6-0.6,5.7,0.2,4.4,4.5c-1.8,6.3-2.2,12.8-11.7,13.7
		c-7,0.7-11.1,7.4-13.2,14.2c-2,6.4-3.7,13-5.5,19.5c-0.7,2.7-1.7,4.4-5.1,4.6c-12.1,0.9-12.5,0.6-9.3-11.1
		c3.5-13.1,7-26.1,10.5-39.2c1.1-4.2,13.6-7.7,16.4-4.6C470.9,762,467.4,764.3,469,766.9z"/>
	<path class="st2" d="M507.9,807.7c1.2,0.1,3.5-1.9,4,1.1c0.4,2.4-0.7,5-3.3,5.6c-5.1,1.1-10.4,1.5-15.1-1.7c-4.5-3-4.3-7.7-3.4-12
		c2-9.2,4.5-18.2,7-27.3c0.8-2.9,1.5-5.2-2.7-5.3c-1.4,0-2.6-0.7-2.4-2.3c0.2-1.6,0.6-3.8,2.2-3.7c8.3,0.5,7.4-6.3,9.1-11
		c0.4-1.2,0.7-2.6,1.3-3.7c1.3-2.4,3.6-1.7,5.6-1.4c2.9,0.5,1.7,2.6,1.4,4.3c-0.3,1.5-0.6,3.1-1.2,4.5c-2.6,5.8-0.2,7.1,5.4,7
		c2.9-0.1,8.1-2.6,8.5,2.1c0.4,6-5.4,4.6-8.9,4.2c-6.9-0.8-9.8,2.2-11,8.6c-1.4,7.1-3.8,14.1-5.5,21.2
		C496.8,805.5,499.4,808.3,507.9,807.7z"/>
	<path class="st3" d="M212.9,773.9c-6.2,0-12.5-0.1-18.7,0c-3.2,0.1-6.4-0.5-6.5-3.9c-0.2-4.3,3.8-2.2,5.8-2.2
		c11.9-0.2,23.9-0.1,35.8-0.1c1.8,0,3.8,0,5.2,0.8c1.1,0.6,2.2,2.5,2.2,3.8c0,2.3-2.2,1.5-3.6,1.6
		C226.4,773.9,219.6,773.9,212.9,773.9z"/>
	<path class="st4" d="M203.9,795.8c-6.5,0-13-0.1-19.5,0c-2.9,0-5.8-0.6-5.8-3.7c-0.1-3.7,3.4-2.1,5.3-2.2c12-0.2,23.9-0.1,35.9-0.1
		c1.5,0,3.2,0,4.6,0.4c1.8,0.6,3.3,2.1,2.9,4.1c-0.4,2.1-2.5,1.4-3.9,1.4C216.9,795.8,210.4,795.8,203.9,795.8z"/>
	<path class="st5" d="M238.1,816.7c-14.8,0-29.6,0-44.4,0c-2.3,0-4.6-0.9-4.6-3.2c0-3.5,3.1-1.9,4.7-1.9c12.5-0.2,25-0.1,37.5-0.1
		C234.7,811.5,237.9,811.4,238.1,816.7z"/>
	<path class="st1" d="M654.2,739.4c-7.1-1.4-10.4,1.6-11.5,8.6c-0.9,5.8-2.9,11.5-4.7,18.5c-5.4-5.8-10.7-8.5-17.5-8.4
		c-14.1,0.3-27.3,11.9-29.7,26.6c-3.8,22.4,10.1,35,30.7,27.8c2-0.7,2.6-0.2,4.4,1c4.7,3.3,15.1,1.2,16.2-2.6
		c6.4-23.6,12.6-47.2,19-71.1C658.3,739.7,656.2,739.8,654.2,739.4z M617.9,801.9c-6.5,0-11.3-4.8-11.4-11.4
		c-0.2-9.4,7.3-18.1,15.7-18.4c7.3-0.2,12.1,4.1,12.2,11.2C634.7,792.6,626.4,801.9,617.9,801.9z"/>
	<path class="st1" d="M313.7,739.9c-3.3-3-14.9,0.4-16.1,4.8c-1.9,6.9-3.7,13.9-5.7,21.7c-6.2-6.9-13.4-9.3-21.6-7.8
		c-16.7,2.9-29.1,21.2-25.9,38.1c3.2,16.5,16.5,23,31.6,15.6c1.2-0.6,2.3-3.3,4.1,0.8c2.2,4.6,14.6,1.8,16-3.3
		c6-21.8,11.8-43.6,17.7-65.5C314.3,742.8,315.1,741.2,313.7,739.9z M271.4,801.9c-6.8-0.2-10.6-4.5-10.5-11.8
		c0.1-10,7-17.9,15.7-18c7.3-0.1,11.6,4.3,11.5,11.7C288,793.6,280.1,802.2,271.4,801.9z"/>
	<path class="st1" d="M691.6,758.3c-17.7-0.4-33.1,14.2-33.4,31.5c-0.2,14.9,10.7,25.6,26.4,25.9c16.9,0.3,32.2-14.6,32.5-31.6
		C717.4,769.3,706.8,758.6,691.6,758.3z M686,802.1c-6.7,0.1-11.7-4.8-11.9-11.7c-0.3-9.2,7.3-18.1,15.5-18.2
		c7-0.1,11.6,4.3,11.9,11.5C701.8,792.7,694,801.9,686,802.1z"/>
	<path class="st1" d="M757,758.3c-17.7-0.2-32.9,14.6-32.9,31.9c0,14.7,10.5,25,25.9,25.5c17.1,0.5,32.3-14,32.7-31.2
		C783.1,769.1,772.7,758.5,757,758.3z M751.2,802.1c-6.6-0.2-11.3-5.3-11.3-12.3c0-9.4,7.7-17.8,16.1-17.6
		c6.9,0.1,11.4,4.9,11.3,12.1C767.2,793.5,759.3,802.3,751.2,802.1z"/>
	<path class="st1" d="M410.4,758.3c-17.5,0-31.9,14.2-32,31.7c-0.1,15.5,10.3,25.7,26.1,25.7c17.1,0,32.1-14.7,32.3-31.8
		C437,768.8,426.1,758.3,410.4,758.3z M405.2,802.1c-6.9-0.1-11.2-4.8-11.2-12.3c0-9.9,7.2-17.9,15.8-17.7c7.1,0.1,11.3,4.6,11.3,12
		C421.1,793.6,413.4,802.3,405.2,802.1z"/>
	<path class="st1" d="M344,758.3c-17.3,0.2-31.6,14.9-31.5,32.3c0.1,15.2,11.1,25.5,26.8,25.1c17.3-0.4,31.8-15.1,31.6-32.3
		C370.9,768.3,359.9,758.1,344,758.3z M339.1,802.1c-6.9-0.3-10.9-5-10.8-12.6c0.2-10,7.3-17.7,16.1-17.4c7.1,0.3,11,4.7,10.9,12.3
		C355.1,794,347.3,802.5,339.1,802.1z"/>
	<path class="st2" d="M558,760.1c-16.3-0.1-31.5,15.5-31.4,31.9c0.1,13.6,10,23.1,24.2,23.2c17.1,0.1,31.8-14.3,31.8-31.1
		C582.6,770.4,572.1,760.2,558,760.1z M551.3,808.3c-9.5-0.1-16.1-6.6-16.3-16.3c-0.2-12.7,10.5-24.4,22.4-24.5
		c10.2-0.1,16.4,6.1,16.4,16.5C573.9,797,563.3,808.4,551.3,808.3z"/>
</g>
<g>
	<g>
		<path class="st1" d="M455.7,225.8c-6-8.4-13-11.8-21.1-13c-4.5-0.7-7.9-1.9-7.5-7.2c0.5-5.4,4.8-6.8,8.7-5.7
			c7.5,2.1,14.8,5.1,22,8.1c2.5,1,4.5,3.2,7.8,5.6c0-7.3-1.6-13.7,0.3-18.6c4.3-10.6,4.3-21.1,4.1-32.3c-0.2-15.3,7.9-26.9,22-33.4
			c5.6-2.6,8.7-5.7,9.7-12c1.9-11.6,9.5-19.2,19.6-24.7c3.4-1.9,6.7-5.1,8.5-8.5c7.4-13.9,21.4-19.9,36.4-15.4
			c3,0.9,6.7,0.8,9.8-0.1c13.5-4.1,27,0.9,33.3,13.5c2.5,5,5.3,8.4,10.9,10.5c10.1,3.8,17.1,11.5,21.1,21.7c1.1,2.8,2.8,6.1,5.2,7.6
			c10.2,6.3,17.3,14.9,21.3,26.1c0.5,1.4,1.7,2.6,3.6,5.3c4.4-9,7.9-17.2,12.4-24.9c8.1-14.1,16.1-28.2,25.3-41.5
			c7-10.1,16.6-17.6,28.9-21.8c12.9-4.4,23.3-0.5,32.2,7.9c13,12.2,18,28.3,16.9,45.7c-3.2,49.3-10.6,97.9-25.4,145.2
			c-0.7,2.4,1.5,5.8,2.6,8.7c1.4,3.5,4.5,7,4.3,10.4c-0.9,21-2.4,42-3.9,63c-1.9,28.4-3.9,56.9-5.9,85.3c-1.5,21.5-2.8,43.1-5,64.6
			c-1.8,17.9-20.4,35-38.5,36.4c-2.4,0.2-4.8,0.3-7.2,0.3c-77.3,0-154.7,0.2-232-0.1c-27.3-0.1-45.7-18.8-47.4-46
			c-2.8-44.1-6.1-88.3-9.3-132.4c-1.5-21.5-3.5-43-4.8-64.5c-0.5-8.8-0.1-17.7,0.8-26.5c1.9-18.9,15.3-27.6,31.2-33.7
			C449.5,228.3,452.1,227.3,455.7,225.8z M631.4,286.3c0.6,0.7,1.2,1.4,1.8,2.1c3.7-1.3,7.8-1.9,11.1-3.9
			c18.1-11.3,35.8-11.2,54.1-0.2c12.1,7.3,34.4,3.4,43.6-7.1c1.3-1.5,2.1-3.7,2.6-5.7c5-17.9,10.4-35.7,14.7-53.8
			c8.2-34.8,13.7-70,13.3-105.8c-0.1-7.3-2.9-15.3-6.4-21.8c-7.6-14-20.4-17-32.7-6.9c-8.9,7.3-17.3,16.3-22.8,26.2
			c-25.5,45.8-49.4,92.4-67.7,141.7C638.7,262.6,635.3,274.5,631.4,286.3z M516.6,137.9c-2,0.3-3.5,0.7-5.1,0.8
			c-23.6,2.1-33.1,18.2-24.2,40.4c0.9,2.1-0.8,5.5-1.8,8.1c-1.9,4.8-5.1,9.2-6.1,14.1c-1,4.9,1.6,6.6,6.7,4.3
			c5.3-2.3,10.9-4.6,16.6-5.1c12.9-1.2,22.9,5.4,31.5,14.4c2.4,2.5,5.1,4.8,7.6,7.1c1.3-1.1,1.9-1.4,2.1-1.8c0.4-1,0.9-2,1-3
			c0.6-11.3,6.3-20.3,13.1-28.5c4.8-5.8,5.3-9.4-1.9-13.8c-7.4-4.6-8.3-12.9-7.1-20.7c1.2-8,7-11.8,14.9-13.4
			c13-2.6,25.9-5.9,38.9-8.7c5.1-1.1,10.7-2.5,15.7-1.6c11.9,2.2,17.6,17.2,11.5,28.9c-1.7,3.4-4.6,6.8,0,9.6
			c6.5,4.1,13.2,7.7,19.8,11.5c12.9-14.5,6.5-38.8-12.6-47.5c-4.8-2.2-6.7-4.9-7.8-9.8c-2.6-12.1-11.2-19.4-22.7-20
			c-2.6-0.1-5.2-0.3-7.8-0.4c0.5-23.9-13.4-27.1-27.5-14.6c-2.1-1.5-4.1-3.2-6.4-4.6c-8-4.9-19.3-2.8-21.3,6
			c-2.3,9.9-7.1,13.2-16.1,16.2C515.8,109.9,513.1,120.1,516.6,137.9z M547.2,271.7c-0.8-14.6-7.3-26.4-15.3-37.6
			c-17.1-24-30.2-25.3-52.4-6.5c-6.9,5.8-15.9,9.2-23.9,13.5c-6.3,3.4-13.4,5.7-18.9,10c-10.8,8.4-9.4,20.5,2.2,27.3
			c1.4,0.8,2.8,1.5,4.1,2.4c13,8.8,26,9.2,39.7,1.2c15.3-8.9,30.8-8.4,46.2,0.4c4.4,2.5,9.7,3.4,14.5,5
			C544.7,282.2,546,277,547.2,271.7z M575.5,255.3c0.2,0.8,0.5,1.6,0.7,2.4c9.4-3.8,19-7.3,28.1-11.6c8.1-3.9,15.5-9.3,23.7-12.9
			c5.6-2.4,9.5-5.3,11.2-11.2c1-3.3,2.6-6.4,3.9-9.6c5.1-12.2,4.8-14-5.7-21.9c-3.8-2.9-8.1-5.1-12.1-7.7c-2.7-1.7-6.6-3-7.6-5.4
			c-4.4-10.3-11.8-7.9-19.7-5.8c-5.4,1.5-11,2.1-16.3,3.7c-1.9,0.6-4.8,2.8-4.8,4.2c0.3,9.3-6.3,15-10.9,21.6
			c-6.7,9.6-10.5,19.6-6.9,31.4c1.2,3.8,2.6,7.7,2.7,11.6C562.2,253.3,567.1,256.1,575.5,255.3z M508.9,486.9c14.4,0,28.7,0,43.1,0
			c8.6,0,13.2-3.4,12.7-9.5c-0.6-7.5-5.7-9.3-12.4-9.3c-28.5,0.1-56.9,0.1-85.4,0c-6.7,0-11.7,2-12.3,9.3c-0.5,5.9,4.1,9.4,12,9.5
			C480.7,487,494.8,486.9,508.9,486.9z M501.5,434.8c-11.7,0-23.4,0-35.1,0c-6.3,0-11.1,2.2-11.7,9.2c-0.5,6,4.1,10,11.7,10.1
			c23.2,0.1,46.3,0.1,69.5,0.1c6.7,0,11.6-2.3,12-9.8c0.3-6-4.1-9.5-12-9.6C524.4,434.6,513,434.7,501.5,434.8z M493,420.9
			c8.8,0,17.6,0.1,26.4,0c7.8-0.1,12-3.7,11.8-9.9c-0.2-7.5-5.4-9.3-11.5-9.3c-17.9-0.2-35.7-0.1-53.6,0c-6.2,0-11.2,2.2-11.6,9.4
			c-0.3,5.9,4.4,9.7,12,9.9C475.4,421.1,484.2,420.9,493,420.9z M568.2,269.5c0.6,6.1,0.5,10,7.4,8.2c12.5-3.3,24.7-2.5,36.2,4.4
			c1.5,0.9,6,0,6.4-1c3.5-9.8,6.4-19.9,9.5-29.9c-0.5-0.7-1-1.4-1.5-2.2C608.6,260.6,591.2,272.5,568.2,269.5z M596.9,486.8
			C596.9,486.8,596.9,486.9,596.9,486.8c2.6,0,5.3,0.1,7.9,0c5.9-0.3,9.6-3.2,9.6-9.3c0-6-3.6-9.2-9.5-9.3
			c-5.6-0.1-11.5-1.2-16.6,0.4c-3.7,1.1-8.1,5.5-8.8,9.1c-1.1,5.1,3.2,8.6,8.7,9.1C591.1,487.1,594,486.8,596.9,486.8z M568.2,163.7
			c6.8-1.4,12.3-2.4,17.7-3.7c9.1-2,18.2-3.9,27.1-6.4c1.9-0.5,4.5-2.1,4.5-5.5c-1.1-3.3-4.5-3.6-6.3-3.3
			c-14.3,2.7-28.6,5.8-42.7,9.2c-2.1,0.5-5.3,1.9-5.3,5.8C564.7,162.7,566.3,163.7,568.2,163.7z"/>
		<path class="st1" d="M725.6,200.8c-1.6-0.2-3.3-0.1-4.7-0.7c-11.4-4.2-20.2-2.2-26.2,9.4c-0.9,1.8-6.5,3.3-8,2.2
			c-2.1-1.5-3.7-5.7-3.3-8.4c1.1-9,13.4-18.5,24.1-19c4.2-0.2,8.5,0.5,12.6,1.3c9.3,1.7,14.6-0.3,19.5-8.5c2.6-4.4,5.9-7.4,11-4.8
			c5.5,2.8,3.9,7.3,1.6,11.7C746.4,194.7,737.1,199.3,725.6,200.8z"/>
		<path class="st1" d="M704.8,257.8c-2.9-0.4-5.8-0.6-8.7-1.1c-9-1.7-14.8,0.5-19.5,8.3c-2.5,4.1-5,8.2-10.5,5.2
			c-5.4-2.9-3.9-7.7-1.8-11.9c4.4-8.5,11.1-14.4,21-15.2c5.2-0.4,10.7-0.2,15.9,0.6c8.4,1.4,14.7-0.9,18.7-8.5
			c2.3-4.4,5.4-8.2,10.6-5.2c5.4,3.1,3.9,8.3,1.4,12.7C725.9,253,717,258.4,704.8,257.8z"/>
		<path class="st1" d="M737,144c-0.9-0.1-3.4-0.1-5.7-0.6c-7.2-1.6-12.4,0.7-16.1,7.1c-2,3.5-5.3,7.7-9.3,4
			c-2.3-2.1-3.5-7.7-2.5-10.9c3.2-10,14-15.8,26.7-14c9.3,1.3,16.6,0.8,21.7-8.5c0.9-1.7,6.8-2.7,8.7-1.4c2,1.3,3.2,6.1,2.4,8.7
			C760,138.4,750.4,144.1,737,144z"/>
	</g>
	<g>
		<path class="st1" d="M841,410.7c0.1-0.1,0.2-0.2,0.3-0.3"/>
		<path class="st1" d="M964.4,594c-0.4-42.9-22.2-65.2-65.1-65.5c-19.5-0.2-38.9-0.2-58.4-0.2v0.3H361.8V526c0-13.2,0-24.3,0-35.3
			v-5.6c0-54.1-1.1-54.6-56-55.1c-13.3-0.1-19.7-4.1-23-17c-6-23.5-14.7-46.3-20.1-69.9c-11.8-51.9-28.2-97.7-97.1-84.2
			c0-13.6,0-23.3,0-35.7c9.7,0,18.1,0,26.5,0c63.8-0.1,68.3-5.5,58.7-70.5c-4.4-29.8-24.5-49.7-54.6-52.1
			c-17.1-1.4-34.5,0.1-51.6-0.9c-85-4.9-99.8,24-96.5,98.7c0.8,18,6.8,25.7,25,25c20-0.8,40.1-0.2,60.5-0.2c0,13.1,0,22.8,0,33.3
			c-5.1,0.5-8.9,1-12.7,1.1c-53.9,1.6-72.3,20.6-72.4,75.1c0,45.4-1.2,90.9,0.5,136.2c0.9,25.5,6.6,50.8,11,81.9
			c-14.6,14.1-11.8,39.8-11.4,64.8c0.9,52.6-6.4,45.1,44.6,51.8c0,8.1,0,16.6,0,25c0,76,0.4,151.9-0.3,227.9
			c-0.2,19.3,4.8,28.4,26.3,28.4c256.8-0.5,513.7-0.5,770.5,0c21.4,0,26.5-8.6,26.3-28.1c-0.7-76-0.3-151.9-0.3-227.9
			c0-8.4,0-16.9,0-24.8c48.8-8.6,48.7-8.6,48.7-57.5C964.4,605,964.5,599.5,964.4,594z M78.2,191.6c0-11.8-0.5-21.8,0.1-31.8
			c1.1-19.7,11.9-29.7,31.7-29.8c23.4-0.1,46.9-0.1,70.3,0c33.2,0.1,41,8.2,40.8,42c-0.1,6.1-0.7,12.2-1.2,19.7
			C173.1,191.6,127.4,191.6,78.2,191.6z M78.2,325c0.1-27.5,9.5-37.3,36.1-37.8c25-0.5,50.3-2.1,75,0.8c11,1.3,26.9,10.3,30.3,19.6
			c14.2,38.6,24.5,78.6,37.5,122.1c-22.1,0-39.4-1.4-56.3,0.7c-7.1,0.9-13.3,9-20,13.8c6.6,4.9,13,14,19.7,14.2
			c42.9,1.3,85.8,0.7,130.4,0.7c0,23.1,0,44.6,0,69.3c-20.2,0-40.3,0-60.4,0c-50.9,0-101.7,0.2-152.6-0.1
			c-30.8-0.2-39.6-8.9-39.7-38.9C78,434.6,77.9,379.8,78.2,325z M884.5,918.9c-254.1,0-506,0-760,0c0-83.7,0-166.9,0-252
			c253,0,506,0,760,0C884.5,751,884.5,834.7,884.5,918.9z M934.7,612.8c-0.1,6.2-0.5,12.3-0.9,20.1c-284.6,0-568.3,0-852.7,0
			c-1.4-2-2.1-2.6-2.2-3.3c-3.1-66-2.9-72.5,64.4-72.3c245.8,1,491.6,0.4,737.4,0.4C931.7,557.8,935.2,561.4,934.7,612.8z"/>
	</g>
</g>
</svg>
