<?xml version="1.0" encoding="utf-8"?>
<!-- Generator: Adobe Illustrator 28.1.0, SVG Export Plug-In . SVG Version: 6.00 Build 0)  -->
<svg version="1.1" id="Layer_1" xmlns="http://www.w3.org/2000/svg" xmlns:xlink="http://www.w3.org/1999/xlink" x="0px" y="0px"
	 viewBox="0 0 1080 1080" style="enable-background:new 0 0 1080 1080;" xml:space="preserve">
<style type="text/css">
	.st0{fill:#FFFFFF;}
</style>
<g id="_x31_xCdtU_00000173861275863733979700000012106738912286184326_">
	<g>
		<path class="st0" d="M812.7,84.7c6.5,0,13.1,0,19.6,0c32.4,8.3,50.8,30.8,61.3,61c2.6,7.5,4.4,15.2,6.5,22.9c0,12.5,0,25,0,37.5
			c-0.5,3.2-1.3,6.3-1.5,9.5c-3.8,68.8-14.9,136.4-31.7,203.1c-5.6,22.3-11.9,44.5-17.9,66.6c14.6,6.3,18.1,11.4,17.2,26.9
			c-2.4,37.7-5.1,75.3-7.7,113c-5.1,73.8-10.3,147.7-15.5,221.5c-1.5,21.6-2.6,43.3-4.8,64.9c-5.2,50.2-42.3,83.5-92.9,83.7
			c-63,0.2-126,0.1-189,0.1c-85.3,0-170.6,0.1-255.9-0.1c-51.2-0.1-89.2-34.6-93.4-85.3c-3.8-45.6-6.4-91.3-9.6-137
			c-3.9-55.2-8.8-110.3-11.4-165.5c-1.6-34.5-10.5-68.8-2.9-103.6c0.3-1.3-0.4-2.9-0.7-4.4c-8-41.8,6.3-70.2,45-88.3
			c9.3-4.4,19.1-7.7,29.3-11.7c-1.2-1.6-2.1-3.1-3.3-4.3c-10-9.4-20.9-16.3-35.3-16.8c-10.6-0.3-17.3-7.7-16.8-16.8
			c0.5-9.2,7.7-15.7,18.5-14.8c8.7,0.7,18,1.9,25.8,5.5c11.6,5.5,22.1,13.4,32.8,20c-5.6-20-3.6-39.9,9.4-58.2
			c1.1-1.6,0.2-5.1-0.5-7.5c-11.6-42.3,9.1-83.6,50-98.7c4.9-1.8,6.5-4.1,7.2-9.2c4-29,19.8-48.9,46.8-60.2c3.2-1.3,6.3-5,7.6-8.3
			c12.5-31.9,46.4-46.7,78.3-34.2c3.1,1.2,7.5,1.2,10.5,0c30.5-12.4,63.1,1.8,73.8,32.8c1.7,4.9,4,7.6,9.1,9.2
			c25.3,7.9,41.8,24.9,50.6,49.9c1.4,4,4.6,8.2,8.2,10.4c19.5,12,33.4,28.3,41,49.9c1,2.9,2.2,5.7,3.8,9.7c2.2-4.5,3.6-7.8,5.3-10.9
			c18.3-33.9,35.4-68.6,55.4-101.5C752.7,116.1,777.2,92.7,812.7,84.7z M600.9,517.2c0.7,0.9,1.4,1.8,2.1,2.7
			c9.1-4.5,18.6-8.5,27.4-13.5c19.3-11.1,40-16.3,61.6-10.8c12.7,3.3,24.7,9.7,36.4,16c17,9.1,33.7,10.2,51.1,1.6
			c7.4-3.7,14.9-7.4,22.7-10.3c5.8-2.2,8.8-5.7,10.8-11.6c16.6-50.9,29.6-102.7,39.1-155.4c9.2-50.7,15.1-101.7,15.8-153.3
			c0.3-20.6-6.7-39.2-21-54.4c-11.1-11.8-24.2-15-38.9-8.1c-9.2,4.4-19.1,9.9-25.3,17.6c-15.5,19.4-31.4,39.1-42.8,61
			c-30.9,59.5-60.4,119.8-88.8,180.6C630.3,423.7,614.5,470.1,600.9,517.2z M427.3,392.9c0.5-27.7,13.6-48.7,29.3-68.6
			c8.6-10.8,8.5-10.9-3-18.1c-13-8.1-20.6-27.1-17.7-43.8c2.7-15,12.5-24.4,29.5-28.1c30.1-6.6,60.3-13.3,90.4-19.7
			c23.7-5.1,39.5,5.6,45.1,29.5c2.9,12.3,1.9,23.5-6.1,33.7c-3.8,4.9-3.8,8.8,2.4,12.1c12.2,6.7,24.1,13.9,36.5,21.1
			c0.7-1,1.8-2.3,2.7-3.8c17.7-31,3-71.7-31.5-84.6c-9.3-3.5-12.5-7.9-13.3-17.4c-1.9-21.7-20.1-37.9-41.9-38.6
			c-6.1-0.2-12.3,0-19.1,0c1.1-15.6,6.5-31.8-10.9-40.6c-16.7-8.3-26.1,4.7-36.5,14.8c-11.6-11.5-22.8-22.4-40.2-14.7
			c-17.3,7.7-15.7,23.9-15.9,39.6c-18.3,0-34.5,3.1-45.1,19.3c-10.6,16.1-4.4,32.5-0.5,49.6c-23.4-0.5-45,1.7-58.2,23.2
			c-13.3,21.6-7.6,42,6.1,61.7c-15.5,10.8-26.6,23-19.9,43.3C360.6,338.5,374.7,342.1,427.3,392.9z M428.3,520
			c1.2-3.6,1.7-4.7,1.9-5.8c9-52.3-19.9-100.3-55.1-126.7c-12.1-9-25.9-9.4-38.6-2c-11.2,6.5-21.7,14.5-31.5,23
			c-11.8,10.4-24.8,17.8-39.8,22.8c-12.3,4.1-24.5,9.2-35.7,15.6c-14.7,8.4-19.7,22.4-17.5,38.9c0.3,2.6,1.9,5.9,4,7.1
			c9,5.6,18.4,10.7,27.8,15.9c20.9,11.5,42.3,12,62.7-0.3c33.4-20.1,66-19.9,98.9,1C412.1,513.8,420.1,516.3,428.3,520z
			 M494.4,307.1c3.7,16.4-5.1,27.7-14.1,39.1c-4.8,6-9.2,12.5-13.1,19.1c-6.7,11.3-9.6,23.9-7.4,36.9c2.9,17.2,7,34.2,10.6,51.1
			c29,6.4,53.6-1.7,77.3-17.1c16.5-10.7,34.9-18.6,52.3-28.1c2.8-1.5,5.6-4.2,6.9-7.1c6-13.5,11.9-27.2,17-41.1
			c1.2-3.4,0.8-9.7-1.4-11.6c-11.1-9.6-22.5-19.1-34.9-26.9c-11.6-7.2-23.1-13.6-26.6-28.8C538.6,297.5,517,302.2,494.4,307.1z
			 M363.1,902.1c28.5,0,57,0,85.5,0c11.6,0,18.7-5.9,19-15.5c0.3-9.8-7.3-16.5-19-16.6c-56.7-0.1-113.4,0-170.2,0
			c-11.9,0-19.1,6.4-18.9,16.5c0.2,9.7,7.2,15.5,18.8,15.5C306.7,902.1,334.9,902.1,363.1,902.1z M347.7,837.9c22.9,0,45.7,0,68.6,0
			c12.1,0,19.4-6.2,19.4-16c-0.1-9.7-7.5-16-19.6-16c-45.7-0.1-91.5-0.1-137.2,0c-12.2,0-19.3,6.1-19.2,16.2
			c0.1,10.1,7,15.8,19.4,15.8C302,837.9,324.8,837.9,347.7,837.9z M331.2,773.7c18.1,0,36.2,0.1,54.4,0c10.8-0.1,17.9-6.3,18.1-15.4
			c0.2-9.5-7.2-16.5-18.2-16.5c-36-0.1-71.9-0.2-107.9,0c-11.3,0.1-18.2,6.8-18,16.6c0.2,9.4,6.9,15.2,18.1,15.3
			C295.6,773.8,313.4,773.7,331.2,773.7z M481.2,500.7c31.5-12.6,60.4-8,87.4,10.9c7-21.8,13.5-42.1,20-62.5
			c-0.5-0.5-0.9-1.1-1.4-1.6c-32.3,23.7-65.5,45.2-109.1,39.3C479.3,492.3,480.2,496.2,481.2,500.7z M531.4,902
			c5.6,0,11.3,0.2,16.9-0.1c8.9-0.5,15-6.8,15.3-15.3c0.2-8.5-5.5-15.9-14.2-16.4c-11.5-0.7-23.1-0.6-34.6-0.1
			c-9.2,0.4-15.2,7.9-14.8,16.7c0.4,8.5,6.5,14.6,15.5,15.1C520.8,902.2,526.1,902,531.4,902z M474.2,278.7
			c31.6-6.9,61.1-13.3,90.6-20.2c2.1-0.5,3.2-4.8,4.8-7.3c-2.7-1.6-5.6-4.8-8.2-4.6c-6.7,0.6-13.4,2.6-20,4
			c-22,4.8-44.1,9.3-66,14.6c-2.8,0.7-5.9,4.6-6.5,7.6C468.5,274.4,472.7,277.1,474.2,278.7z"/>
		<path class="st0" d="M778.1,354.9c-6-1.3-12.2-2.4-18.1-4c-16.1-4.2-28.7,1.5-35.8,16.6c-4.9,10.5-13.2,14.4-22,10.4
			c-8.9-4-11.6-12.8-7.3-23.4c11.2-27.8,42.2-43,71.6-35c20.4,5.5,29.9,1.3,39.5-17.7c4.3-8.5,12.6-11.9,20.7-8.6
			c8.4,3.5,11.8,12,8.6,21.5C827.9,337.6,803.6,354.3,778.1,354.9z"/>
		<path class="st0" d="M712.5,428.3c6.4,1.3,12.8,2.3,19.1,3.9c16.1,4.1,28.7-1.6,35.8-16.8c4.9-10.4,13.3-14.3,22.1-10.2
			c8.7,4,11.4,13,7,23.6c-11.2,27.2-41.6,42.4-70.3,35.1c-22.5-5.7-30.2-2.4-41,17.9c-4.3,8-12.4,11.2-20.2,8.1
			c-8.4-3.4-12-12-8.9-21.5C663.4,446,687.4,429.2,712.5,428.3z"/>
		<path class="st0" d="M805.3,247.4c-5.2-1-10.5-1.9-15.6-3.2c-13.6-3.4-21.7,0.1-27.8,12.4c-4.9,9.7-13.2,13.4-21.7,9.7
			c-8.6-3.7-11.6-13.3-7.4-23.5c9.8-23.4,35.9-36.6,60.8-30.8c19.3,4.5,22.7,3,32.2-13.8c4.3-7.6,12.9-10.7,20.6-7.3
			c8,3.5,11.3,11.9,8.3,21C848.1,231.8,827.2,246.6,805.3,247.4z"/>
	</g>
</g>
</svg>
