<?xml version="1.0" encoding="utf-8"?>
<!-- Generator: Adobe Illustrator 28.1.0, SVG Export Plug-In . SVG Version: 6.00 Build 0)  -->
<svg version="1.1" id="Layer_1" xmlns="http://www.w3.org/2000/svg" xmlns:xlink="http://www.w3.org/1999/xlink" x="0px" y="0px"
	 viewBox="0 0 1080 1080" style="enable-background:new 0 0 1080 1080;" xml:space="preserve">
<style type="text/css">
	.st0{fill:#FFFFFF;}
</style>
<g>
	<path class="st0" d="M986.3,793.7c-72.2,36.2-144.4,72.6-216.8,108.2c-4.6,2.3-12.6,1.2-17.6-1.2c-66.6-32.8-133.1-65.9-199.3-99.5
		c-10.5-5.4-18.6-6-29.5-0.4c-66.1,33.8-132.8,66.5-199,100.1c-8,4.1-13.9,4-21.9,0c-67.1-34-134.4-67.5-201.6-101.1h0
		c-6.6-3.3-9.3-11.5-6-18.1C145.8,679.1,196.8,577,248.5,473.7c4.1-8.1,14.9-9.9,21.3-3.4c33.4,33.5,65.9,66.1,98.8,99.1
		c47.9-31.9,94.1-62.6,140.3-93.4c28.7-19.1,28.7-19.1,57.8,0.3c45.9,30.6,91.7,61.1,138.5,92.3c4.5-3.8,9-7.6,14.8-12.4
		c8.3,16.4,16.4,32,24.3,47.8c0.6,1.2,1.3,3.2,0.8,3.9c-12.7,19,0.2,37,3.3,54.8c9.3,53.4,20.6,106.4,31.2,159.5
		c0.6,3.2,1.9,6.2,3.2,10.4c42.6-21.3,84.7-42.3,127.8-63.9c-15.7-31.5-31.2-61.7-45.6-92.4c-2.5-5.2-2.4-13.5,0-18.9
		c5.4-12.1,11.6-23.9,18.1-36.4c3.6-6.9,13.6-6.8,17.1,0.2c7.6,15.3,14.8,29.7,22.1,44c21.5,42.4,43.1,84.7,64.7,127
		C986.7,792.6,986.5,793,986.3,793.7z M353.4,821.6c6.8-2.5,7.1-1.9,11.8-6c34.2-30.4,75.4-52.1,120.1-61.7
		c21.1-4.5,24.4-9.2,24.3-20.1c-0.2-52.4-0.1-104.7-0.1-157.1c0-10.1,0-20.2,0-31.1c-2.8,0.8-4.3,0.8-5.3,1.5
		c-35,23.2-70.2,46.4-104.8,70.1c-3.9,2.7-6.7,8.8-7.8,13.7c-7.6,35.6-14.7,71.4-21.8,107.1C364.3,765.4,359,792.8,353.4,821.6z
		 M720.3,822c0-3.9,0.2-5.3,0-6.6c-12.4-62.7-24.7-125.5-37.6-188.1c-1-4.6-5.9-9.2-10.2-12.2c-32-21.8-64.3-43.2-96.6-64.7
		c-2.8-1.9-6-3.1-10.3-5.2c0,65.4-0.1,129,0.2,192.5c0,3.3,2.8,8.1,5.7,9.5C620.5,772.1,669.7,796.7,720.3,822z M273,551.3
		c-37,74-72.5,145.2-108.5,217.1c43.5,21.7,85.4,42.7,127.7,63.8c1.1-2.9,1.8-4.1,2.1-5.4c13.7-67.7,27.4-135.4,40.7-203.1
		c0.7-3.5-0.3-8.9-2.7-11.3C313.4,592.3,294,572.8,273,551.3z"/>
	<path class="st0" d="M822.2,617.8c-1.7,3.3-6.6,3.2-8.3-0.1c-15.6-30.5-30.4-59.4-45.1-88.2c-25-49.1-50-98.3-75.1-147.3
		C667.5,330.9,673,270,710,227.2c39.5-45.8,89.6-60.8,147.9-45c53.7,14.5,93.3,62,99.8,118.2c3.1,27-0.8,53.2-13.3,77.7
		C903.8,458,863,537.9,822.2,617.8C822.2,617.8,822.2,617.8,822.2,617.8z M818.5,232.8c-46.3-0.2-84.1,37.3-84.4,83.4
		c-0.2,46.1,37.4,84.2,83.4,84.4c46.2,0.2,84.2-37.3,84.4-83.4C902.1,270.9,864.6,233,818.5,232.8z"/>
</g>
</svg>
