<?xml version="1.0" encoding="utf-8"?>
<!-- Generator: Adobe Illustrator 28.2.0, SVG Export Plug-In . SVG Version: 6.00 Build 0)  -->
<svg version="1.1" id="Layer_1" xmlns="http://www.w3.org/2000/svg" xmlns:xlink="http://www.w3.org/1999/xlink" x="0px" y="0px"
	 viewBox="0 0 1012 1012" style="enable-background:new 0 0 1012 1012;" xml:space="preserve">
<style type="text/css">
	.st0{fill:#0085A3;}
</style>
<g id="BCXQvC_00000164495762551866300210000012106136258959152258_">
	<g>
		<path class="st0" d="M411.2,193.1c1.4-2.1,2.4-3.5,3.3-5c9.7-17.2,19.3-34.6,29.3-51.7c2.5-4.3,1.8-6.4-2.5-8.5
			c-4.9-2.4-9.6-5.2-14.2-8c-6.4-3.8-8.7-10.6-5.5-15.7c3.2-5.1,9.7-6.3,15.9-2.8c6.3,3.5,12.5,7,19.7,11.1c1.8-3.2,3.1-6,4.8-8.4
			c5.4-8,9.9-16.9,16.6-23.6c14.7-14.8,38.7-18,57.1-7.9c46.6,25.7,92.8,52,139.2,78c48.1,27,96.1,54.1,144.2,81.1
			c19.3,10.9,29.7,27.1,28,49.5c-0.6,7.8-3.6,16-7.4,22.9c-35.5,63.8-71.4,127.4-107.3,191c-0.6,1-1.1,2-1.7,3.1
			c-1.5,2.8-0.8,4.3,2.4,4.7c7.1,1,15.1,9.5,15.9,16.6c0.7,6.9,0.8,14,2.3,20.8c1.9,9.1-2.7,16.1-5.9,23.7c-0.5,1.1-2.8,1.7-4.4,1.8
			c-15.6,1.7-31.2,3.3-46.8,4.7c-3.8,0.3-5.5,1.8-7.4,5.1c-21.6,38.6-43.2,77.3-65.4,115.6c-10.9,18.8-41.8,26.9-61.6,16.3
			c-27.7-14.9-55-30.5-82.4-46C410,623.6,342.9,585.7,275.7,548c-12.3-6.9-21.7-15.9-26.6-29.4c-4.6-12.8-4.7-25.5,1-37.8
			c3.7-8,8.6-15.5,13.4-24.1c-7.2-4-13.8-7.2-19.8-11.4c-2.9-2-5.8-5.5-6.5-8.9c-1.7-8.2,7.4-14,15.7-10.2c4.9,2.3,9.5,5.2,14.3,7.8
			c2,1.1,4,2.2,6.2,3.5c1.3-1.9,2.3-3,3-4.4c9.9-17.6,19.7-35.2,29.8-52.7c2.2-3.8,1.6-5.8-2.2-7.7c-4.9-2.4-9.5-5.2-14.2-8
			c-7-4.1-9-9.5-5.6-15.3c3.6-6.2,8.6-7.4,15.8-3.5c5.1,2.8,10.2,5.6,15.2,8.6c2.9,1.8,4.7,1.5,6.5-1.7
			c10.4-18.7,20.8-37.3,31.4-55.8c2-3.5,0.9-5.1-2.2-6.8c-5.3-2.8-10.6-5.8-15.7-8.9c-5.4-3.2-8-10-5.5-14.3
			c2.4-4.3,9.6-5.6,15.1-2.6c5.3,2.8,10.6,5.7,15.7,8.9c3.1,1.9,5,1.8,6.9-1.7c10.4-18.7,20.9-37.3,31.4-55.8c1.8-3.2,1.1-4.8-2-6.4
			c-5.2-2.7-10.2-5.6-15.2-8.5c-6.4-3.8-8.9-10.4-5.9-15.7c3-5.3,9.7-6.6,16.5-3C398.5,185.8,404.6,189.4,411.2,193.1z M660.7,576.6
			c-0.4-0.5-0.7-1.1-1.1-1.6c-52.2,5.3-104.3,10.6-156.5,15.9c1.9-3.5,5.7-7,5.3-10c-0.8-5.8,1.3-10.5,2.4-15.7
			c0.8-3.6,0.8-7.9-0.3-11.4c-3.1-9.3-7-18.3-10.6-27.4c27.3-2.9,54.9-5.9,82.5-8.8c37.6-3.9,75.3-7.7,113-11.4
			c3.8-0.4,6.2-1.8,8.1-5.4c7.6-14.2,15.7-28.2,23.6-42.2c31-55,62-109.9,93-164.9c9.7-17.2,5.3-33-11.6-42.5
			c-78-43.9-156-87.8-233.9-131.8c-4.2-2.4-5.9-1.5-8.1,2.4c-14,25.1-28.1,50.1-42.2,75.2c-33,58.5-65.9,117.1-98.9,175.6
			c-32.4,57.5-64.7,115.1-97.2,172.5c-2.2,3.9-1.9,5.8,2.2,8.1c49.2,27.5,98.4,55.3,147.6,83c28.8,16.2,57.5,32.4,86.3,48.6
			c16.8,9.4,32.7,5.1,42-11.5c16.6-29.4,33.2-58.9,49.7-88.3C657.5,582.2,659.1,579.4,660.7,576.6z M385.5,286.1
			c5.2,3.7,9.7,6.7,16.5,5.5c9.3-1.6,17.6,5.2,19.5,14.4c1.7,8.2-3.5,17.3-11.3,20.1c-8.7,3.1-19.1-0.7-22.4-9.5
			c-2.5-6.6-7.4-8.8-13.1-11.3c-11.7,20.8-23.2,41.3-34.9,62c5.2,2.8,9.1,6.5,15.6,5.3c9.3-1.8,18.1,4.6,20.2,13.5
			c2.1,8.9-2.9,18.3-11.7,21.6c-9.1,3.4-19.2-0.1-23-9.1c-2.6-6.3-7.5-8.2-12.8-10.5c-11.4,20.2-22.6,40.1-33.9,60.3
			c4.9,2.7,8.6,6.6,15,5.4c9.8-1.9,18.4,4.1,20.8,13.4c2.2,8.7-2.9,18.4-11.5,21.6c-8.8,3.3-19.5-0.5-23-9.3
			c-2.6-6.4-7.8-7.8-13.2-10.6c-3.8,6.8-7.6,13.1-11,19.6c-6.1,11.5-4.7,25.7,5.9,33.2c12.2,8.7,26,15.1,39.5,22.7
			c81-143.9,162.2-288.1,243.5-432.5c-12.6-7.1-24.3-14.5-36.7-20.4c-11.2-5.4-25.3-2.3-31.9,6.8c-5.4,7.4-9.3,16-13.8,24
			c6.8,5.5,8,5.9,16.3,5.5c9.2-0.4,17.7,6.5,19.2,15.4c1.5,9.1-3.8,17.9-12.3,20.7c-9,2.9-18.6-1-22.1-9.9
			c-2.5-6.3-7.4-8.3-12.9-10.5c-11.4,20.2-22.5,40-33.9,60.2c5.3,3.5,9.9,6.6,16.7,5.7c9.3-1.2,16.9,5.2,18.8,14.5
			c1.8,8.9-3.3,18-11.7,21c-8.7,3.1-19.1-0.7-22.4-9.5c-2.5-6.6-7.7-8.4-13.1-10.9C408.6,245.1,397.2,265.5,385.5,286.1z"/>
		<path class="st0" d="M652,362.5c19.4,10.9,38.9,21.8,58.3,32.9c8.4,4.8,9.9,13.1,3.8,19.2c-3.8,3.8-9.3,4.1-15.6,0.6
			c-16.6-9.3-33.2-18.6-49.7-27.9c-21.8-12.3-43.6-24.6-65.4-36.9c-4.4-2.5-8.1-5.4-8.5-10.9c-0.6-8.2,6.6-14,14.5-11.6
			c2.2,0.7,4.3,1.8,6.3,3C614.4,341.4,633.2,351.9,652,362.5z"/>
		<path class="st0" d="M683.5,305.1c-18.3-10.3-36.5-20.6-54.8-30.8c-1.2-0.7-2.4-1.3-3.5-2c-6.7-4.1-9-11-5.6-16.8
			c3.2-5.4,10.1-6.9,17-3.2c10.2,5.5,20.3,11.3,30.5,17c28.7,16.2,57.5,32.3,86.2,48.6c8.6,4.9,10.4,11.9,4.9,18.6
			c-3.8,4.6-9.5,5.2-16.3,1.4C722.4,327.1,703,316.1,683.5,305.1z"/>
		<path class="st0" d="M601.5,433.2c15.6,8.8,31.1,17.5,46.7,26.3c1.2,0.7,2.4,1.3,3.5,2c6.9,4.2,9.1,10.6,5.6,16.7
			c-3.3,5.7-10,7.2-16.8,3.4c-11.7-6.5-23.4-13.1-35-19.7c-21-11.8-41.9-23.6-62.9-35.5c-1-0.6-2-1.1-3-1.7c-6.6-4.1-9-10.5-6-16.2
			c3.2-6.1,10.1-7.8,17.2-3.8C567.7,414.1,584.6,423.7,601.5,433.2z"/>
		<path class="st0" d="M529.1,389.1c-3.3,1.8-5.5,3.5-7.9,4.3c-11.7,3.5-23.5,6.9-35.3,9.9c-7.8,2-11,0.6-13.5-6.9
			c-2.9-8.4-5.3-17-7.3-25.7c-1.5-6.2,0.9-9.8,6.2-11.3c5.1-1.5,8.8,0.7,10.9,6.8c1.4,3.8,2.5,7.8,3.3,11.7c1,5.2,3.6,6,8.3,4.5
			c7.8-2.5,15.6-4.5,23.5-6.5c3.9-1,7.6-0.1,9.4,3.8C528,382.4,528.3,385.6,529.1,389.1z"/>
		<path class="st0" d="M519.9,327.4c-1.5-2.1-3.2-3.7-3.7-5.6c-2.9-9.6-5.7-19.3-8.2-29c-1.4-5.3,1.7-8.5,6.7-9.8
			c4.7-1.3,8.1,0.9,9.7,5.1c1.7,4.3,3.1,8.8,4.1,13.3c1,4.9,3.1,6.4,8.1,4.7c7.7-2.5,15.6-4.7,23.5-6.5c7.9-1.8,13.4,4.6,10.6,12.2
			c-0.8,2-3.1,4.1-5.2,4.7c-12.6,3.8-25.3,7.3-38,10.7C525,327.8,522.5,327.4,519.9,327.4z"/>
		<path class="st0" d="M562.5,250.9c-1.4-2.1-3-3.7-3.5-5.6c-2.9-9.4-5.6-18.9-8.1-28.5c-1.3-5.1,1.1-8.7,6.1-10.3
			c4.4-1.4,8.7,0.8,10.5,5.8c1.6,4.3,2.9,8.8,3.9,13.4c1,4.3,2.8,5.7,7.3,4.3c7.7-2.5,15.6-4.6,23.5-6.6c6.4-1.6,11.2,1.4,12.1,7.4
			c0.8,4.7-1.4,8.1-5.9,9.4c-13,3.8-26.1,7.4-39.2,10.9C567.4,251.6,565,251,562.5,250.9z"/>
		<path class="st0" d="M467.6,541.1c7.5,12.7,9,25.3,5.2,38.5c-0.3,1.2-3.5,2.6-4.9,2.2c-10.9-3.2-21.8-6.6-32.6-10.4
			c-2.2-0.8-4.7-3.2-5.2-5.3c-0.3-1.5,2.1-4.3,4-5.5C444.9,554.1,455.9,547.9,467.6,541.1z"/>
	</g>
</g>
<path class="st0" d="M743.5,469.8H292.7c-44.8,0-81.2,36.3-81.2,81.2l20.6,283.5c0,44.8,36.3,81.2,81.2,81.2h411.2
	c44.8,0,81.2-36.3,81.2-81.2l19-283.5C824.7,506.1,788.3,469.8,743.5,469.8z M293.1,686h101.8c9.1,0,16.6,7.5,16.6,16.6
	s-7.5,16.6-16.6,16.6H293.1c-9.1,0-16.6-7.5-16.6-16.6S283.9,686,293.1,686z M276.5,761.3c0-9.1,7.5-16.6,16.6-16.6h130.8
	c9.1,0,16.6,7.5,16.6,16.6v0c0,9.1-7.5,16.6-16.6,16.6H293.1C283.9,777.9,276.5,770.4,276.5,761.3L276.5,761.3z M453.5,836.6H293.1
	c-9.1,0-16.6-7.5-16.6-16.6s7.5-16.6,16.6-16.6h160.5c9.1,0,16.6,7.5,16.6,16.6S462.6,836.6,453.5,836.6z M544.3,836.6h-32.2
	c-9.1,0-16.6-7.5-16.6-16.6s7.5-16.6,16.6-16.6h32.2c9.1,0,16.6,7.5,16.6,16.6S553.4,836.6,544.3,836.6z"/>
</svg>
