<?xml version="1.0" encoding="utf-8"?>
<!-- Generator: Adobe Illustrator 28.1.0, SVG Export Plug-In . SVG Version: 6.00 Build 0)  -->
<svg version="1.1" id="Layer_1" xmlns="http://www.w3.org/2000/svg" xmlns:xlink="http://www.w3.org/1999/xlink" x="0px" y="0px"
	 viewBox="0 0 1080 1080" style="enable-background:new 0 0 1080 1080;" xml:space="preserve">
<style type="text/css">
	.st0{fill:#FFFFFF;}
</style>
<g id="cjTOVe_00000005952126220443237680000012205595348494554001_">
	<g>
		<path class="st0" d="M699,410.3c-64,0-126.8,0-189.5,0c-16.2,0-32.5-0.2-48.7,0.1c-56.8,0.9-101.8,45.1-103.4,102
			c-0.7,23.8-0.7,47.7,0,71.5c0.3,10.6-3.7,15.2-13.4,18.5c-26.6,9-52.9,19.1-79.4,28.6c-11.3,4.1-20.5,10.2-15.7,23.6
			c4.7,13.3,15.7,12.8,27,8.6c25.9-9.5,51.7-18.8,79-28.7c0.9,4.4,2.1,7.8,2.2,11.2c0.2,26.5-0.2,53.1,0.3,79.6
			c0.2,9.2-3.2,13.6-11.7,16.5c-21.5,7.3-42.7,15.6-64.1,23c-39.2,13.4-74.7-3.5-88.9-42.2c-28.6-78.2-57.1-156.5-85.4-234.9
			c-15.9-44.1,0-78.2,44-94.3c137.2-50.1,274.4-100.1,411.7-150c40.9-14.9,76.4,1.4,91.5,41.9c13.6,36.5,26.9,73.1,40.3,109.7
			C696.4,399.5,697.4,404.2,699,410.3z M319.8,529.4c-8.1-19.9-13.4-37-21.9-52.3c-5.9-10.5-17.9-13.4-30.1-9
			c-16.3,5.8-32.6,11.2-48.6,17.7c-15.9,6.4-22.1,19-17.2,35.1c3.6,11.9,7.8,23.6,12.8,34.9c6.1,13.8,18.7,19.7,33.3,15.1
			c17.5-5.5,35.2-10.9,51.4-19.2C307.8,547.5,313.1,537.1,319.8,529.4z"/>
		<path class="st0" d="M686,841.9c-72.5,0-145.1,0.1-217.6,0c-46.4-0.1-73.6-27.7-73.6-73.8c0.1-81.2-0.1-162.4,0-243.6
			c0.1-50.2,25.5-76.1,76-76.2c145-0.3,290.1-0.2,435.1,0c45.9,0.1,72.5,27.4,72.5,73c0,82.8,0.1,165.6-0.1,248.4
			c-0.1,44.7-27.1,72-71.7,72.2C833.2,842.1,759.6,841.9,686,841.9z M933.4,628.9c-165.3,0-328.4,0-492.4,0
			c-0.3,5.8-0.9,10.5-0.9,15.3c-0.1,39.5-0.1,79,0,118.5c0.1,28.3,6,34.1,34.5,34.1c139.6,0,279.3,0,418.9,0
			c6.5,0,13.1,0.4,19.5-0.5c12.3-1.7,20.1-8.9,20.2-21.5C933.6,726.7,933.4,678.6,933.4,628.9z M921.5,546.3c6.3,0,11.6-5,11.9-11.3
			c0.1-1.5,0.1-2.8,0.1-4.2c0.3-32.8-4.1-37.1-37.4-37.1c-140.7,0-281.3,0-422,0.1c-5.4,0-10.9-0.4-16.2,0.6
			c-14.9,2.7-20,16-18,41.5c1.3,15.9,12.9,10.2,20.6,10.2c151,0.3,301.9,0.2,452.9,0.2C916,546.3,918.7,546.3,921.5,546.3z"/>
		<path class="st0" d="M618.1,703c-37.3,0-74.6-0.1-111.9,0.1c-11.4,0.1-21.5-2.2-21.5-15.9c0-13.7,10.3-16,21.5-16
			c74,0.1,148.1,0.1,222.1,0c11.5,0,21.7,3.1,21.7,16.1c0,13.3-10.2,15.8-21.8,15.7C691.6,702.8,654.8,703,618.1,703
			C618.1,703,618.1,703,618.1,703z"/>
	</g>
</g>
</svg>
