<?xml version="1.0" encoding="UTF-8"?>
<svg id="Layer_1" data-name="Layer 1" xmlns="http://www.w3.org/2000/svg" version="1.1" viewBox="0 0 1080 1080">
  <defs>
    <style>
      .cls-1 {
        fill: #fff;
        stroke-width: 0px;
      }
    </style>
  </defs>
  <g>
    <path class="cls-1" d="M884.6,782.8c-5.1-7-13.5-11-23.2-11.1h-42.6c-21.3,0-43.3,0-65.1,0-.5-2.5-.9-5-1.3-7.4l-.4-2.3c-2.7-14.8-12.9-23.4-28-23.5-7.7,0-15.4,0-22.7,0-3.7,0-6.8.5-9.8,1.5-12.1,4-19.7,16.3-17.9,29.1,1.9,13.2,12.6,22.7,26,23.1,1,0,2,0,3,0l1.4,8.1c4.2,24.6,8.5,50,12.8,75.1,2.7,16,13.1,24.8,29.2,24.8h90.9c14.3,0,23.7-6.8,28-20.4,7.4-23.1,15.2-47.5,23-71.8,2.9-9.1,1.6-18.3-3.4-25.3Z"/>
    <path class="cls-1" d="M757.2,908.7h0c-14.4-.3-26.9,11.5-27.2,25.9-.2,7.2,2.5,14.1,7.5,19.3,5,5.2,11.7,8.1,18.9,8.2h.4c14.3,0,26.2-11.8,26.6-26.4.2-6.8-2.4-13.4-7.2-18.6-5-5.2-11.9-8.3-18.9-8.5Z"/>
    <path class="cls-1" d="M826.4,908.7h-.4c-14.4,0-26.3,11.6-26.6,26-.2,7.2,2.6,14,7.7,19.2,5.1,5.2,11.8,8.1,19,8.2h.2c14.4,0,26.4-11.9,26.6-26.6.1-6.9-2.5-13.4-7.5-18.6-5-5.1-11.9-8.1-18.9-8.2Z"/>
  </g>
  <path class="cls-1" d="M441.6,525.4c-52.1-43.5-83.6-97.3-101.1-159.6-16.2-57.8-20-116.1,2-173.2,27.4-71.2,82.2-109.6,155.2-122.8,57.2-10.3,113.2-4.6,164.9,24.1,61.2,34,93.7,87.9,98.6,156.6,7.6,106.6-27.8,197.4-106.9,270.2-1.1,1-2,2.3-3.6,4.1,122,34.6,223.9,94.1,276.1,216.8-37.8-39.1-82.8-62.9-137.4-65.1-54.5-2.2-101.9,16.3-140.3,55.3-37.7,38.3-55.4,84.9-53.6,138.8,1.8,53.4,24.4,97.2,65.1,135-18.7,1.9-34.5,4-50.5,4.9-95.5,5.8-190.1.9-282.1-28.2-36.4-11.5-70.9-27.2-101.9-50-71.8-52.9-91.8-129.9-54-210.8,28.8-61.6,76.4-105.9,133.2-141.1,41.6-25.7,86.6-43.2,136.4-55.1Z"/>
</svg>